<?xml version="1.0" encoding="UTF-8"?>
<svg xmlns="http://www.w3.org/2000/svg" xmlns:xlink="http://www.w3.org/1999/xlink" width="375pt" height="374.999991pt" viewBox="0 0 375 374.999991" version="1.2">
<defs>
<clipPath id="clip1">
  <path d="M 89.089844 15.503906 L 285.554688 15.503906 L 285.554688 359.246094 L 89.089844 359.246094 Z M 89.089844 15.503906 "/>
</clipPath>
<clipPath id="clip2">
  <path d="M 89.089844 70 L 285.554688 70 L 285.554688 81.707031 L 89.089844 81.707031 Z M 89.089844 70 "/>
</clipPath>
<clipPath id="clip3">
  <path d="M 89.089844 282.1875 L 285.554688 282.1875 L 285.554688 293.375 L 89.089844 293.375 Z M 89.089844 282.1875 "/>
</clipPath>
<clipPath id="clip4">
  <path d="M 141.820312 138.050781 L 233.320312 138.050781 L 233.320312 237.050781 L 141.820312 237.050781 Z M 141.820312 138.050781 "/>
</clipPath>
</defs>
<g id="surface1">
<g clip-path="url(#clip1)" clip-rule="nonzero">
<path style=" stroke:none;fill-rule:nonzero;fill:rgb(25.099182%,25.099182%,25.099182%);fill-opacity:1;" d="M 245.765625 26.246094 L 128.878906 26.246094 C 120.894531 26.246094 113.632812 29.519531 108.363281 34.789062 C 103.097656 40.0625 99.824219 47.332031 99.824219 55.320312 L 99.824219 319.425781 C 99.824219 327.417969 103.097656 334.683594 108.363281 339.957031 C 113.632812 345.230469 120.894531 348.503906 128.878906 348.503906 L 245.765625 348.503906 C 253.75 348.503906 261.015625 345.230469 266.28125 339.957031 C 271.550781 334.683594 274.820312 327.417969 274.820312 319.425781 L 274.820312 55.320312 C 274.820312 47.332031 271.550781 40.0625 266.28125 34.789062 C 261.015625 29.519531 253.75 26.246094 245.765625 26.246094 Z M 128.878906 15.503906 L 245.765625 15.503906 C 256.714844 15.503906 266.664062 19.984375 273.871094 27.195312 C 281.078125 34.410156 285.554688 44.367188 285.554688 55.320312 L 285.554688 319.425781 C 285.554688 330.382812 281.078125 340.335938 273.871094 347.554688 C 266.664062 354.765625 256.714844 359.246094 245.765625 359.246094 L 128.878906 359.246094 C 117.929688 359.246094 107.984375 354.769531 100.773438 347.554688 C 93.5625 340.335938 89.089844 330.382812 89.089844 319.425781 L 89.089844 55.320312 C 89.089844 44.367188 93.5625 34.410156 100.773438 27.195312 C 107.984375 19.984375 117.929688 15.503906 128.878906 15.503906 "/>
</g>
<g clip-path="url(#clip2)" clip-rule="nonzero">
<path style=" stroke:none;fill-rule:nonzero;fill:rgb(25.099182%,25.099182%,25.099182%);fill-opacity:1;" d="M 94.460938 70.3125 C 91.492188 70.3125 89.089844 72.71875 89.089844 75.6875 C 89.089844 78.652344 91.492188 81.054688 94.460938 81.054688 L 280.1875 81.054688 C 283.152344 81.054688 285.554688 78.652344 285.554688 75.6875 C 285.554688 72.71875 283.152344 70.3125 280.1875 70.3125 L 94.460938 70.3125 "/>
</g>
<path style=" stroke:none;fill-rule:nonzero;fill:rgb(25.099182%,25.099182%,25.099182%);fill-opacity:1;" d="M 171.566406 38.453125 C 168.605469 38.453125 166.203125 40.859375 166.203125 43.824219 C 166.203125 46.792969 168.605469 49.195312 171.566406 49.195312 L 203.078125 49.195312 C 206.042969 49.195312 208.445312 46.792969 208.445312 43.824219 C 208.445312 40.859375 206.042969 38.453125 203.078125 38.453125 L 171.566406 38.453125 "/>
<path style=" stroke:none;fill-rule:nonzero;fill:rgb(25.099182%,25.099182%,25.099182%);fill-opacity:1;" d="M 190.984375 317.214844 C 190.046875 316.28125 188.753906 315.699219 187.320312 315.699219 C 185.890625 315.699219 184.597656 316.28125 183.660156 317.214844 C 182.726562 318.152344 182.148438 319.449219 182.148438 320.878906 C 182.148438 322.3125 182.726562 323.609375 183.660156 324.542969 C 184.597656 325.480469 185.890625 326.0625 187.320312 326.0625 C 188.753906 326.0625 190.046875 325.480469 190.984375 324.542969 C 191.917969 323.609375 192.5 322.3125 192.5 320.878906 C 192.5 319.449219 191.917969 318.152344 190.984375 317.214844 Z M 187.320312 304.957031 C 191.714844 304.957031 195.691406 306.738281 198.570312 309.621094 C 201.449219 312.503906 203.234375 316.484375 203.234375 320.878906 C 203.234375 325.277344 201.449219 329.257812 198.570312 332.136719 C 195.691406 335.019531 191.714844 336.804688 187.320312 336.804688 C 182.929688 336.804688 178.949219 335.019531 176.070312 332.136719 C 173.191406 329.257812 171.414062 325.277344 171.414062 320.878906 C 171.414062 316.484375 173.191406 312.503906 176.070312 309.621094 C 178.949219 306.738281 182.929688 304.957031 187.320312 304.957031 "/>
<g clip-path="url(#clip3)" clip-rule="nonzero">
<path style=" stroke:none;fill-rule:nonzero;fill:rgb(25.099182%,25.099182%,25.099182%);fill-opacity:1;" d="M 94.460938 282.429688 C 91.492188 282.429688 89.089844 284.835938 89.089844 287.800781 C 89.089844 290.765625 91.492188 293.167969 94.460938 293.167969 L 280.1875 293.167969 C 283.152344 293.167969 285.554688 290.765625 285.554688 287.800781 C 285.554688 284.835938 283.152344 282.429688 280.1875 282.429688 L 94.460938 282.429688 "/>
</g>
<g clip-path="url(#clip4)" clip-rule="nonzero">
<path style=" stroke:none;fill-rule:nonzero;fill:rgb(25.099182%,25.099182%,25.099182%);fill-opacity:1;" d="M 187.570312 138.050781 C 175.007812 138.050781 164.710938 148.34375 164.710938 160.894531 L 149.472656 160.894531 C 147.445312 160.894531 145.78125 162.472656 145.660156 164.496094 L 141.851562 233.035156 C 141.792969 234.074219 142.179688 235.117188 142.894531 235.859375 C 143.605469 236.632812 144.617188 237.050781 145.660156 237.050781 L 229.480469 237.050781 C 230.523438 237.050781 231.535156 236.632812 232.25 235.859375 C 232.964844 235.117188 233.351562 234.074219 233.289062 233.035156 L 229.480469 164.496094 C 229.363281 162.472656 227.695312 160.894531 225.671875 160.894531 L 210.429688 160.894531 C 210.429688 148.34375 200.132812 138.050781 187.570312 138.050781 Z M 187.570312 145.664062 C 195.964844 145.664062 202.8125 152.507812 202.8125 160.894531 L 172.332031 160.894531 C 172.332031 152.507812 179.175781 145.664062 187.570312 145.664062 Z M 153.074219 168.511719 L 164.710938 168.511719 L 164.710938 183.742188 L 172.332031 183.742188 L 172.332031 168.511719 L 202.8125 168.511719 L 202.8125 183.742188 L 210.429688 183.742188 L 210.429688 168.511719 L 222.070312 168.511719 L 225.433594 229.433594 L 149.707031 229.433594 Z M 153.074219 168.511719 "/>
</g>
</g>
</svg>
