<?xml version="1.0" encoding="UTF-8"?>
<svg xmlns="http://www.w3.org/2000/svg" xmlns:xlink="http://www.w3.org/1999/xlink" width="600pt" height="693.000001pt" viewBox="0 0 600 693.000001" version="1.2">
<defs>
<clipPath id="clip1">
  <path d="M 0.433594 0 L 599.566406 0 L 599.566406 692 L 0.433594 692 Z M 0.433594 0 "/>
</clipPath>
<clipPath id="clip2">
  <path d="M 39.296875 85.296875 L 560.542969 85.296875 L 560.542969 606.542969 L 39.296875 606.542969 Z M 39.296875 85.296875 "/>
</clipPath>
</defs>
<g id="surface1">
<g clip-path="url(#clip1)" clip-rule="nonzero">
<path style=" stroke:none;fill-rule:nonzero;fill:rgb(100%,100%,100%);fill-opacity:1;" d="M 0.433594 0 L 599.566406 0 L 599.566406 4189.453125 L 0.433594 4189.453125 Z M 0.433594 0 "/>
<path style=" stroke:none;fill-rule:nonzero;fill:rgb(100%,100%,100%);fill-opacity:1;" d="M 0.433594 0 L 599.566406 0 L 599.566406 692 L 0.433594 692 Z M 0.433594 0 "/>
<path style=" stroke:none;fill-rule:nonzero;fill:rgb(100%,100%,100%);fill-opacity:1;" d="M 0.433594 0 L 599.566406 0 L 599.566406 692 L 0.433594 692 Z M 0.433594 0 "/>
</g>
<path style=" stroke:none;fill-rule:nonzero;fill:rgb(90.589905%,86.669922%,79.60968%);fill-opacity:1;" d="M 300 50.824219 C 295.167969 50.824219 290.339844 50.941406 285.515625 51.179688 C 280.691406 51.417969 275.875 51.769531 271.066406 52.246094 C 266.261719 52.71875 261.46875 53.308594 256.6875 54.019531 C 251.910156 54.726562 247.152344 55.554688 242.414062 56.496094 C 237.675781 57.4375 232.964844 58.496094 228.277344 59.667969 C 223.589844 60.84375 218.9375 62.132812 214.316406 63.535156 C 209.691406 64.9375 205.105469 66.449219 200.558594 68.078125 C 196.007812 69.707031 191.503906 71.445312 187.039062 73.292969 C 182.578125 75.140625 178.164062 77.097656 173.796875 79.164062 C 169.429688 81.230469 165.113281 83.402344 160.855469 85.675781 C 156.59375 87.953125 152.390625 90.335938 148.25 92.820312 C 144.105469 95.300781 140.023438 97.886719 136.007812 100.570312 C 131.992188 103.253906 128.042969 106.035156 124.164062 108.914062 C 120.28125 111.789062 116.476562 114.761719 112.742188 117.824219 C 109.007812 120.890625 105.351562 124.042969 101.769531 127.289062 C 98.191406 130.53125 94.695312 133.863281 91.277344 137.277344 C 87.863281 140.695312 84.53125 144.191406 81.289062 147.773438 C 78.042969 151.351562 74.890625 155.007812 71.824219 158.742188 C 68.761719 162.476562 65.789062 166.285156 62.910156 170.164062 C 60.035156 174.042969 57.253906 177.992188 54.570312 182.007812 C 51.886719 186.027344 49.300781 190.105469 46.816406 194.25 C 44.335938 198.394531 41.953125 202.59375 39.675781 206.855469 C 37.398438 211.117188 35.226562 215.429688 33.164062 219.796875 C 31.097656 224.164062 29.140625 228.578125 27.292969 233.042969 C 25.441406 237.503906 23.703125 242.011719 22.078125 246.558594 C 20.449219 251.105469 18.933594 255.691406 17.53125 260.316406 C 16.128906 264.9375 14.84375 269.59375 13.667969 274.277344 C 12.496094 278.964844 11.4375 283.675781 10.496094 288.414062 C 9.550781 293.152344 8.726562 297.910156 8.019531 302.6875 C 7.308594 307.46875 6.71875 312.261719 6.242188 317.066406 C 5.769531 321.875 5.414062 326.691406 5.179688 331.515625 C 4.941406 336.34375 4.824219 341.171875 4.824219 346 C 4.824219 350.832031 4.941406 355.660156 5.179688 360.484375 C 5.414062 365.308594 5.769531 370.125 6.242188 374.933594 C 6.71875 379.742188 7.308594 384.535156 8.019531 389.3125 C 8.726562 394.089844 9.550781 398.847656 10.496094 403.585938 C 11.4375 408.324219 12.496094 413.035156 13.667969 417.722656 C 14.84375 422.410156 16.128906 427.0625 17.53125 431.6875 C 18.933594 436.308594 20.449219 440.894531 22.078125 445.441406 C 23.703125 449.992188 25.441406 454.496094 27.292969 458.960938 C 29.140625 463.421875 31.097656 467.839844 33.164062 472.207031 C 35.226562 476.570312 37.398438 480.886719 39.675781 485.144531 C 41.953125 489.40625 44.335938 493.609375 46.816406 497.753906 C 49.300781 501.894531 51.886719 505.976562 54.570312 509.992188 C 57.253906 514.007812 60.035156 517.957031 62.910156 521.835938 C 65.789062 525.71875 68.761719 529.523438 71.824219 533.257812 C 74.890625 536.992188 78.042969 540.648438 81.289062 544.230469 C 84.53125 547.808594 87.863281 551.304688 91.277344 554.722656 C 94.695312 558.136719 98.191406 561.46875 101.769531 564.710938 C 105.351562 567.957031 109.007812 571.109375 112.742188 574.175781 C 116.476562 577.242188 120.28125 580.210938 124.164062 583.089844 C 128.042969 585.96875 131.992188 588.746094 136.007812 591.429688 C 140.023438 594.117188 144.105469 596.699219 148.25 599.183594 C 152.390625 601.667969 156.59375 604.046875 160.855469 606.324219 C 165.113281 608.601562 169.429688 610.773438 173.796875 612.835938 C 178.164062 614.902344 182.578125 616.859375 187.039062 618.707031 C 191.503906 620.558594 196.007812 622.296875 200.558594 623.921875 C 205.105469 625.550781 209.691406 627.066406 214.316406 628.46875 C 218.9375 629.871094 223.589844 631.15625 228.277344 632.332031 C 232.964844 633.503906 237.675781 634.5625 242.414062 635.507812 C 247.152344 636.449219 251.910156 637.273438 256.6875 637.984375 C 261.46875 638.691406 266.261719 639.28125 271.066406 639.757812 C 275.875 640.230469 280.691406 640.585938 285.515625 640.824219 C 290.339844 641.058594 295.167969 641.179688 300 641.179688 C 304.832031 641.179688 309.660156 641.058594 314.484375 640.824219 C 319.308594 640.585938 324.125 640.230469 328.933594 639.757812 C 333.738281 639.28125 338.53125 638.691406 343.3125 637.984375 C 348.089844 637.273438 352.847656 636.449219 357.585938 635.507812 C 362.324219 634.5625 367.035156 633.503906 371.722656 632.332031 C 376.40625 631.15625 381.0625 629.871094 385.683594 628.46875 C 390.308594 627.066406 394.894531 625.550781 399.441406 623.921875 C 403.992188 622.296875 408.496094 620.558594 412.960938 618.707031 C 417.421875 616.859375 421.835938 614.902344 426.203125 612.835938 C 430.570312 610.773438 434.886719 608.601562 439.144531 606.324219 C 443.40625 604.046875 447.609375 601.667969 451.75 599.183594 C 455.894531 596.699219 459.976562 594.117188 463.992188 591.429688 C 468.007812 588.746094 471.957031 585.96875 475.835938 583.089844 C 479.71875 580.210938 483.523438 577.242188 487.257812 574.175781 C 490.992188 571.109375 494.648438 567.957031 498.230469 564.710938 C 501.808594 561.46875 505.304688 558.136719 508.722656 554.722656 C 512.136719 551.304688 515.46875 547.808594 518.710938 544.230469 C 521.957031 540.648438 525.109375 536.992188 528.175781 533.257812 C 531.238281 529.523438 534.210938 525.71875 537.089844 521.835938 C 539.964844 517.957031 542.746094 514.007812 545.429688 509.992188 C 548.113281 505.976562 550.699219 501.894531 553.183594 497.753906 C 555.664062 493.609375 558.046875 489.40625 560.324219 485.144531 C 562.601562 480.886719 564.773438 476.570312 566.835938 472.207031 C 568.902344 467.839844 570.859375 463.421875 572.707031 458.960938 C 574.558594 454.496094 576.292969 449.992188 577.921875 445.441406 C 579.550781 440.894531 581.066406 436.308594 582.46875 431.6875 C 583.871094 427.0625 585.15625 422.410156 586.332031 417.722656 C 587.503906 413.035156 588.5625 408.324219 589.503906 403.585938 C 590.449219 398.847656 591.273438 394.089844 591.980469 389.3125 C 592.691406 384.535156 593.28125 379.742188 593.753906 374.933594 C 594.230469 370.125 594.585938 365.308594 594.820312 360.484375 C 595.058594 355.660156 595.175781 350.832031 595.175781 346 C 595.175781 341.171875 595.058594 336.34375 594.820312 331.515625 C 594.585938 326.691406 594.230469 321.875 593.753906 317.066406 C 593.28125 312.261719 592.691406 307.46875 591.980469 302.6875 C 591.273438 297.910156 590.449219 293.152344 589.503906 288.414062 C 588.5625 283.675781 587.503906 278.964844 586.332031 274.277344 C 585.15625 269.59375 583.871094 264.9375 582.46875 260.316406 C 581.066406 255.691406 579.550781 251.105469 577.921875 246.558594 C 576.292969 242.011719 574.558594 237.503906 572.707031 233.042969 C 570.859375 228.578125 568.902344 224.164062 566.835938 219.796875 C 564.773438 215.429688 562.601562 211.117188 560.324219 206.855469 C 558.046875 202.59375 555.664062 198.394531 553.183594 194.25 C 550.699219 190.105469 548.113281 186.027344 545.429688 182.007812 C 542.746094 177.992188 539.964844 174.042969 537.089844 170.164062 C 534.210938 166.285156 531.238281 162.476562 528.175781 158.742188 C 525.109375 155.007812 521.957031 151.351562 518.710938 147.773438 C 515.46875 144.191406 512.136719 140.695312 508.722656 137.277344 C 505.304688 133.863281 501.808594 130.53125 498.230469 127.289062 C 494.648438 124.042969 490.992188 120.890625 487.257812 117.824219 C 483.523438 114.761719 479.71875 111.789062 475.835938 108.914062 C 471.957031 106.035156 468.007812 103.253906 463.992188 100.570312 C 459.976562 97.886719 455.894531 95.300781 451.75 92.820312 C 447.609375 90.335938 443.40625 87.953125 439.144531 85.675781 C 434.886719 83.402344 430.570312 81.230469 426.203125 79.164062 C 421.835938 77.097656 417.421875 75.140625 412.960938 73.292969 C 408.496094 71.445312 403.992188 69.707031 399.441406 68.078125 C 394.894531 66.449219 390.308594 64.9375 385.683594 63.535156 C 381.0625 62.132812 376.40625 60.84375 371.722656 59.667969 C 367.035156 58.496094 362.324219 57.4375 357.585938 56.496094 C 352.847656 55.554688 348.089844 54.726562 343.3125 54.019531 C 338.53125 53.308594 333.738281 52.71875 328.933594 52.246094 C 324.125 51.769531 319.308594 51.417969 314.484375 51.179688 C 309.660156 50.941406 304.832031 50.824219 300 50.824219 Z M 300 50.824219 "/>
<g clip-path="url(#clip2)" clip-rule="nonzero">
<path style=" stroke:none;fill-rule:nonzero;fill:rgb(25.099182%,25.099182%,25.099182%);fill-opacity:1;" d="M 299.917969 85.296875 C 156.207031 85.296875 39.296875 202.210938 39.296875 345.917969 C 39.296875 489.628906 156.207031 606.542969 299.917969 606.542969 C 443.640625 606.542969 560.542969 489.628906 560.542969 345.917969 C 560.542969 202.210938 443.640625 85.296875 299.917969 85.296875 Z M 299.917969 594.695312 C 162.734375 594.695312 51.140625 483.101562 51.140625 345.917969 C 51.140625 208.738281 162.734375 97.140625 299.917969 97.140625 C 437.101562 97.140625 548.695312 208.738281 548.695312 345.917969 C 548.695312 483.101562 437.089844 594.695312 299.917969 594.695312 Z M 299.917969 594.695312 "/>
</g>
<path style=" stroke:none;fill-rule:nonzero;fill:rgb(25.099182%,25.099182%,25.099182%);fill-opacity:1;" d="M 401.789062 219.101562 C 399.15625 219.601562 396.90625 221.339844 395.746094 223.78125 C 389.824219 236.257812 382.417969 247.960938 374.207031 259.0625 C 327.925781 219.433594 258.019531 222.953125 216.140625 267.980469 C 207.019531 277.789062 199.746094 289.019531 194.53125 301.351562 C 193.265625 304.363281 194.664062 307.84375 197.683594 309.113281 C 198.429688 309.433594 199.222656 309.585938 199.992188 309.585938 C 202.304688 309.585938 204.496094 308.234375 205.441406 305.972656 C 210.121094 294.910156 216.636719 284.851562 224.824219 276.050781 C 262.519531 235.523438 325.519531 232.5 367.03125 268.46875 C 357.257812 280.242188 346.34375 291.09375 334.25 300.5 C 332.496094 301.886719 331.371094 303.875 331.074219 306.105469 C 330.816406 308.34375 331.40625 310.546875 332.804688 312.324219 C 334.390625 314.347656 336.867188 315.570312 339.4375 315.570312 L 420.398438 306.777344 C 422.046875 306.601562 423.550781 305.75 424.519531 304.421875 C 425.515625 303.09375 425.882812 301.425781 425.585938 299.789062 L 411.65625 225.820312 C 410.789062 221.472656 406.085938 218.273438 401.789062 219.101562 Z M 350.492188 302.476562 C 371.390625 284.378906 388.921875 262.367188 401.859375 237.972656 L 412.734375 295.691406 Z M 350.492188 302.476562 "/>
<path style=" stroke:none;fill-rule:nonzero;fill:rgb(25.099182%,25.099182%,25.099182%);fill-opacity:1;" d="M 402.179688 382.726562 C 399.191406 381.460938 395.6875 382.855469 394.429688 385.878906 C 389.738281 396.941406 383.234375 407 375.039062 415.789062 C 337.34375 456.304688 274.34375 459.339844 232.84375 423.382812 C 242.628906 411.609375 253.527344 400.757812 265.613281 391.351562 C 267.375 389.964844 268.503906 387.976562 268.785156 385.734375 C 269.058594 383.507812 268.453125 381.292969 267.070312 379.527344 C 265.457031 377.46875 263.300781 376.472656 259.511719 376.316406 L 179.464844 385.0625 C 177.816406 385.226562 176.324219 386.078125 175.339844 387.40625 C 174.359375 388.734375 173.976562 390.402344 174.285156 392.050781 L 188.21875 465.996094 C 188.964844 469.976562 192.445312 472.855469 196.5 472.855469 C 196.878906 472.855469 197.707031 472.785156 198.074219 472.714844 C 200.691406 472.214844 202.941406 470.484375 204.117188 468.023438 C 210.015625 455.558594 217.417969 443.867188 225.628906 432.765625 C 246.421875 450.582031 272.421875 460.332031 299.824219 460.332031 C 301.234375 460.332031 302.644531 460.308594 304.054688 460.238281 C 334.59375 459.148438 362.894531 446.199219 383.722656 423.835938 C 392.84375 414.027344 400.117188 402.796875 405.328125 390.460938 C 406.597656 387.476562 405.1875 384.007812 402.179688 382.726562 Z M 197.96875 453.855469 L 187.09375 396.148438 L 249.371094 389.335938 C 228.472656 407.4375 210.941406 429.460938 197.96875 453.855469 Z M 197.96875 453.855469 "/>
</g>
</svg>
