<?xml version="1.0" encoding="UTF-8"?>
<svg xmlns="http://www.w3.org/2000/svg" xmlns:xlink="http://www.w3.org/1999/xlink" width="600pt" height="693.000001pt" viewBox="0 0 600 693.000001" version="1.2">
<defs>
<clipPath id="clip1">
  <path d="M 0.433594 46 L 599.566406 46 L 599.566406 646 L 0.433594 646 Z M 0.433594 46 "/>
</clipPath>
<clipPath id="clip2">
  <path d="M 223 157.597656 L 313 157.597656 L 313 277 L 223 277 Z M 223 157.597656 "/>
</clipPath>
<clipPath id="clip3">
  <path d="M 83.046875 414 L 98 414 L 98 424 L 83.046875 424 Z M 83.046875 414 "/>
</clipPath>
<clipPath id="clip4">
  <path d="M 105 241 L 516.671875 241 L 516.671875 491.617188 L 105 491.617188 Z M 105 241 "/>
</clipPath>
<clipPath id="clip5">
  <path d="M 322 482 L 339 482 L 339 491.617188 L 322 491.617188 Z M 322 482 "/>
</clipPath>
<clipPath id="clip6">
  <path d="M 115 482 L 131 482 L 131 491.617188 L 115 491.617188 Z M 115 482 "/>
</clipPath>
</defs>
<g id="surface1">
<g clip-path="url(#clip1)" clip-rule="nonzero">
<path style=" stroke:none;fill-rule:nonzero;fill:rgb(90.589905%,86.669922%,79.60968%);fill-opacity:1;" d="M 300 46.433594 C 295.097656 46.433594 290.199219 46.554688 285.300781 46.792969 C 280.402344 47.035156 275.515625 47.394531 270.636719 47.875 C 265.757812 48.355469 260.894531 48.957031 256.042969 49.675781 C 251.195312 50.394531 246.367188 51.234375 241.558594 52.1875 C 236.75 53.144531 231.964844 54.21875 227.210938 55.410156 C 222.457031 56.601562 217.730469 57.910156 213.039062 59.332031 C 208.347656 60.753906 203.695312 62.292969 199.078125 63.945312 C 194.460938 65.597656 189.890625 67.359375 185.359375 69.234375 C 180.832031 71.113281 176.351562 73.097656 171.917969 75.195312 C 167.484375 77.289062 163.109375 79.496094 158.785156 81.804688 C 154.460938 84.117188 150.195312 86.53125 145.992188 89.054688 C 141.785156 91.574219 137.644531 94.195312 133.570312 96.917969 C 129.492188 99.644531 125.484375 102.464844 121.546875 105.386719 C 117.609375 108.304688 113.746094 111.320312 109.957031 114.433594 C 106.167969 117.542969 102.457031 120.742188 98.824219 124.035156 C 95.191406 127.328125 91.640625 130.707031 88.171875 134.175781 C 84.707031 137.640625 81.328125 141.191406 78.035156 144.824219 C 74.742188 148.457031 71.542969 152.167969 68.429688 155.957031 C 65.320312 159.746094 62.304688 163.609375 59.386719 167.546875 C 56.464844 171.484375 53.640625 175.492188 50.917969 179.570312 C 48.195312 183.644531 45.574219 187.785156 43.050781 191.992188 C 40.53125 196.199219 38.117188 200.460938 35.804688 204.785156 C 33.492188 209.109375 31.289062 213.488281 29.195312 217.917969 C 27.097656 222.351562 25.113281 226.832031 23.234375 231.359375 C 21.359375 235.890625 19.59375 240.464844 17.945312 245.078125 C 16.292969 249.695312 14.753906 254.347656 13.332031 259.039062 C 11.910156 263.730469 10.601562 268.457031 9.410156 273.210938 C 8.21875 277.96875 7.144531 282.75 6.1875 287.558594 C 5.230469 292.367188 4.394531 297.195312 3.675781 302.046875 C 2.957031 306.894531 2.355469 311.757812 1.875 316.636719 C 1.394531 321.515625 1.035156 326.40625 0.792969 331.300781 C 0.550781 336.199219 0.433594 341.097656 0.433594 346 C 0.433594 350.902344 0.550781 355.804688 0.792969 360.699219 C 1.035156 365.597656 1.394531 370.484375 1.875 375.363281 C 2.355469 380.242188 2.957031 385.105469 3.675781 389.957031 C 4.394531 394.804688 5.230469 399.636719 6.1875 404.445312 C 7.144531 409.25 8.21875 414.035156 9.410156 418.789062 C 10.601562 423.546875 11.910156 428.269531 13.332031 432.960938 C 14.753906 437.652344 16.292969 442.304688 17.945312 446.921875 C 19.59375 451.539062 21.359375 456.109375 23.234375 460.640625 C 25.113281 465.167969 27.097656 469.652344 29.195312 474.082031 C 31.289062 478.515625 33.492188 482.890625 35.804688 487.214844 C 38.117188 491.539062 40.53125 495.804688 43.050781 500.007812 C 45.574219 504.214844 48.195312 508.355469 50.917969 512.429688 C 53.640625 516.507812 56.464844 520.515625 59.386719 524.453125 C 62.304688 528.390625 65.320312 532.253906 68.429688 536.042969 C 71.542969 539.835938 74.742188 543.546875 78.035156 547.179688 C 81.328125 550.8125 84.707031 554.359375 88.171875 557.828125 C 91.640625 561.292969 95.191406 564.671875 98.824219 567.964844 C 102.457031 571.257812 106.167969 574.460938 109.957031 577.570312 C 113.746094 580.679688 117.609375 583.695312 121.546875 586.617188 C 125.484375 589.535156 129.492188 592.359375 133.570312 595.082031 C 137.644531 597.804688 141.785156 600.429688 145.992188 602.949219 C 150.195312 605.46875 154.460938 607.882812 158.785156 610.195312 C 163.109375 612.507812 167.484375 614.710938 171.917969 616.808594 C 176.351562 618.902344 180.832031 620.890625 185.359375 622.765625 C 189.890625 624.640625 194.460938 626.40625 199.078125 628.058594 C 203.695312 629.707031 208.347656 631.246094 213.039062 632.667969 C 217.730469 634.09375 222.457031 635.398438 227.210938 636.589844 C 231.964844 637.78125 236.75 638.855469 241.558594 639.8125 C 246.367188 640.769531 251.195312 641.605469 256.042969 642.324219 C 260.894531 643.046875 265.757812 643.644531 270.636719 644.125 C 275.515625 644.605469 280.402344 644.96875 285.300781 645.207031 C 290.199219 645.449219 295.097656 645.570312 300 645.570312 C 304.902344 645.570312 309.800781 645.449219 314.699219 645.207031 C 319.597656 644.96875 324.484375 644.605469 329.363281 644.125 C 334.242188 643.644531 339.105469 643.046875 343.957031 642.324219 C 348.804688 641.605469 353.632812 640.769531 358.441406 639.8125 C 363.25 638.855469 368.035156 637.78125 372.789062 636.589844 C 377.542969 635.398438 382.269531 634.09375 386.960938 632.667969 C 391.652344 631.246094 396.304688 629.707031 400.921875 628.058594 C 405.539062 626.40625 410.109375 624.640625 414.640625 622.765625 C 419.167969 620.890625 423.648438 618.902344 428.082031 616.804688 C 432.511719 614.710938 436.890625 612.507812 441.214844 610.195312 C 445.539062 607.882812 449.804688 605.46875 454.007812 602.949219 C 458.214844 600.429688 462.355469 597.804688 466.429688 595.082031 C 470.507812 592.359375 474.515625 589.535156 478.453125 586.617188 C 482.390625 583.695312 486.253906 580.679688 490.042969 577.570312 C 493.832031 574.460938 497.542969 571.257812 501.175781 567.964844 C 504.808594 564.671875 508.359375 561.292969 511.828125 557.828125 C 515.292969 554.359375 518.671875 550.8125 521.964844 547.179688 C 525.257812 543.546875 528.457031 539.835938 531.570312 536.042969 C 534.679688 532.253906 537.695312 528.390625 540.613281 524.453125 C 543.535156 520.515625 546.359375 516.507812 549.082031 512.429688 C 551.804688 508.355469 554.425781 504.214844 556.949219 500.007812 C 559.46875 495.804688 561.882812 491.539062 564.195312 487.214844 C 566.507812 482.890625 568.710938 478.515625 570.804688 474.082031 C 572.902344 469.652344 574.886719 465.167969 576.765625 460.640625 C 578.640625 456.109375 580.40625 451.539062 582.054688 446.921875 C 583.707031 442.304688 585.246094 437.652344 586.667969 432.960938 C 588.089844 428.269531 589.398438 423.546875 590.589844 418.789062 C 591.78125 414.035156 592.855469 409.25 593.8125 404.445312 C 594.769531 399.636719 595.605469 394.804688 596.324219 389.957031 C 597.042969 385.105469 597.644531 380.242188 598.125 375.363281 C 598.605469 370.484375 598.964844 365.597656 599.207031 360.699219 C 599.449219 355.804688 599.566406 350.902344 599.566406 346 C 599.566406 341.097656 599.449219 336.199219 599.207031 331.300781 C 598.964844 326.40625 598.605469 321.515625 598.125 316.636719 C 597.644531 311.757812 597.042969 306.894531 596.324219 302.046875 C 595.605469 297.195312 594.769531 292.367188 593.8125 287.558594 C 592.855469 282.75 591.78125 277.96875 590.589844 273.210938 C 589.398438 268.457031 588.089844 263.730469 586.667969 259.039062 C 585.246094 254.347656 583.707031 249.695312 582.054688 245.078125 C 580.40625 240.464844 578.640625 235.890625 576.765625 231.359375 C 574.886719 226.832031 572.902344 222.351562 570.804688 217.917969 C 568.710938 213.488281 566.507812 209.109375 564.195312 204.785156 C 561.882812 200.460938 559.46875 196.199219 556.949219 191.992188 C 554.425781 187.785156 551.804688 183.644531 549.082031 179.570312 C 546.359375 175.492188 543.535156 171.484375 540.613281 167.546875 C 537.695312 163.609375 534.679688 159.746094 531.570312 155.957031 C 528.457031 152.167969 525.257812 148.457031 521.964844 144.824219 C 518.671875 141.191406 515.292969 137.640625 511.828125 134.175781 C 508.359375 130.707031 504.808594 127.328125 501.175781 124.035156 C 497.542969 120.742188 493.832031 117.542969 490.042969 114.433594 C 486.253906 111.320312 482.390625 108.304688 478.453125 105.386719 C 474.515625 102.464844 470.507812 99.644531 466.429688 96.917969 C 462.355469 94.195312 458.214844 91.574219 454.007812 89.054688 C 449.804688 86.53125 445.539062 84.117188 441.214844 81.804688 C 436.890625 79.496094 432.511719 77.289062 428.082031 75.195312 C 423.648438 73.097656 419.167969 71.113281 414.640625 69.234375 C 410.109375 67.359375 405.539062 65.597656 400.921875 63.945312 C 396.304688 62.292969 391.652344 60.753906 386.960938 59.332031 C 382.269531 57.910156 377.542969 56.601562 372.789062 55.410156 C 368.035156 54.21875 363.25 53.144531 358.441406 52.1875 C 353.632812 51.234375 348.804688 50.394531 343.957031 49.675781 C 339.105469 48.957031 334.242188 48.355469 329.363281 47.875 C 324.484375 47.394531 319.597656 47.035156 314.699219 46.792969 C 309.800781 46.554688 304.902344 46.433594 300 46.433594 Z M 300 46.433594 "/>
</g>
<path style=" stroke:none;fill-rule:nonzero;fill:rgb(25.099182%,25.099182%,25.099182%);fill-opacity:1;" d="M 292.542969 201.691406 C 292.542969 188.175781 281.554688 177.179688 268.042969 177.179688 C 254.535156 177.179688 243.550781 188.175781 243.550781 201.691406 C 243.550781 215.207031 254.535156 226.199219 268.042969 226.199219 C 281.554688 226.199219 292.542969 215.207031 292.542969 201.691406 Z M 252.65625 201.691406 C 252.65625 193.199219 259.558594 186.289062 268.042969 186.289062 C 276.53125 186.289062 283.4375 193.199219 283.4375 201.691406 C 283.4375 210.183594 276.53125 217.09375 268.042969 217.09375 C 259.558594 217.09375 252.65625 210.183594 252.65625 201.691406 Z M 252.65625 201.691406 "/>
<g clip-path="url(#clip2)" clip-rule="nonzero">
<path style=" stroke:none;fill-rule:nonzero;fill:rgb(25.099182%,25.099182%,25.099182%);fill-opacity:1;" d="M 271.453125 272.511719 C 275.664062 267.753906 312.601562 225.347656 312.601562 202.195312 C 312.601562 177.621094 292.613281 157.625 268.042969 157.625 C 243.476562 157.625 223.492188 177.617188 223.492188 202.195312 C 223.492188 225.347656 260.421875 267.753906 264.632812 272.511719 L 268.042969 276.363281 Z M 232.597656 202.195312 C 232.597656 182.644531 248.5 166.734375 268.042969 166.734375 C 287.59375 166.734375 303.496094 182.640625 303.496094 202.195312 C 303.496094 217.347656 280.394531 247.871094 268.042969 262.519531 C 255.691406 247.875 232.597656 217.359375 232.597656 202.195312 Z M 232.597656 202.195312 "/>
</g>
<path style=" stroke:none;fill-rule:nonzero;fill:rgb(25.099182%,25.099182%,25.099182%);fill-opacity:1;" d="M 108.285156 414.574219 L 152.164062 414.574219 L 152.164062 423.683594 L 108.285156 423.683594 Z M 108.285156 414.574219 "/>
<g clip-path="url(#clip3)" clip-rule="nonzero">
<path style=" stroke:none;fill-rule:nonzero;fill:rgb(25.099182%,25.099182%,25.099182%);fill-opacity:1;" d="M 83.332031 414.574219 L 97.675781 414.574219 L 97.675781 423.683594 L 83.332031 423.683594 Z M 83.332031 414.574219 "/>
</g>
<path style=" stroke:none;fill-rule:nonzero;fill:rgb(25.099182%,25.099182%,25.099182%);fill-opacity:1;" d="M 125.679688 439.457031 L 152.164062 439.457031 L 152.164062 448.566406 L 125.679688 448.566406 Z M 125.679688 439.457031 "/>
<path style=" stroke:none;fill-rule:nonzero;fill:rgb(25.099182%,25.099182%,25.099182%);fill-opacity:1;" d="M 219.054688 346.628906 L 242.382812 346.628906 L 242.382812 355.738281 L 219.054688 355.738281 Z M 219.054688 346.628906 "/>
<g clip-path="url(#clip4)" clip-rule="nonzero">
<path style=" stroke:none;fill-rule:nonzero;fill:rgb(25.099182%,25.099182%,25.099182%);fill-opacity:1;" d="M 105.660156 254.289062 L 105.660156 341.007812 L 141.429688 341.007812 L 189.511719 377.199219 C 189.367188 378.464844 189.25 379.746094 189.164062 381.046875 C 175.429688 392.984375 166.933594 409.371094 166.933594 427.433594 L 166.933594 446.542969 L 183.460938 446.542969 C 184.816406 461.40625 192.742188 474.390625 204.300781 482.570312 L 140.523438 482.570312 L 140.523438 491.679688 L 309.875 491.679688 L 309.875 482.570312 L 261.511719 482.570312 C 267.289062 478.484375 272.15625 473.199219 275.75 467.078125 L 306.335938 467.078125 L 320.921875 459.546875 C 324.945312 461.734375 329.550781 462.980469 334.441406 462.980469 L 400.351562 462.980469 L 402.5 462.976562 L 403.867188 461.316406 C 403.945312 461.222656 405.480469 459.390625 408.3125 456.476562 C 411.90625 467.328125 419.164062 476.480469 428.511719 482.570312 L 351.761719 482.570312 L 351.761719 491.679688 L 516.203125 491.679688 L 516.203125 482.570312 L 482.558594 482.570312 C 496.148438 473.699219 505.15625 458.359375 505.15625 440.949219 C 505.15625 429.917969 501.445312 419.25 494.796875 410.605469 C 499.550781 409.996094 504.441406 409.664062 509.460938 409.664062 C 513.277344 409.664062 514.539062 407.058594 514.835938 406.261719 C 516.355469 402.175781 512.75 399.0625 507.289062 394.355469 C 506.0625 393.296875 504.902344 392.296875 504.230469 391.621094 C 493.273438 380.648438 479.476562 373.570312 464.507812 371.03125 L 427.195312 279.566406 L 438.441406 279.566406 L 438.441406 275.292969 L 439.375 275.292969 C 447.386719 275.292969 453.902344 268.777344 453.902344 260.765625 L 453.902344 260.453125 C 453.902344 252.441406 447.386719 245.921875 439.375 245.921875 L 438.441406 245.921875 L 438.441406 241.648438 L 406.949219 241.648438 C 396.492188 241.648438 387.980469 250.164062 387.980469 260.625 L 387.980469 269.445312 C 387.980469 269.785156 388 270.121094 388.03125 270.453125 L 382.484375 270.453125 L 363.117188 251.078125 L 340.371094 251.078125 L 340.371094 260.1875 L 359.347656 260.1875 L 378.714844 279.5625 L 396.980469 279.5625 L 386.875 310.199219 L 400.519531 391.066406 C 393.8125 397.621094 388.328125 405.449219 384.480469 414.1875 L 332.796875 414.1875 C 330.34375 409.160156 328.359375 403.925781 326.863281 398.503906 C 320.144531 374.15625 325.277344 352.652344 329.640625 340.664062 C 334.390625 339.46875 337.921875 335.171875 337.921875 330.054688 C 337.921875 315.136719 325.792969 303.003906 310.882812 303.003906 L 217.167969 303.003906 C 206.691406 303.003906 198.171875 311.527344 198.171875 322.007812 C 198.171875 325.632812 199.210938 329.011719 200.980469 331.898438 L 192.347656 331.898438 L 192.347656 254.289062 Z M 114.765625 331.902344 L 114.765625 263.398438 L 183.242188 263.398438 L 183.242188 331.902344 Z M 176.039062 427.433594 C 176.039062 396.023438 206.492188 370.46875 243.917969 370.46875 L 261.121094 370.46875 C 285.882812 370.46875 306.03125 387.273438 306.03125 407.929688 L 306.03125 437.433594 L 282.367188 437.433594 C 280.0625 412.164062 258.761719 392.300781 232.914062 392.300781 C 207.058594 392.300781 185.757812 412.164062 183.449219 437.433594 L 176.042969 437.433594 L 176.042969 427.433594 Z M 192.609375 437.433594 C 194.882812 417.195312 212.085938 401.40625 232.914062 401.40625 C 253.734375 401.40625 270.9375 417.195312 273.207031 437.433594 Z M 246.335938 446.542969 C 244.433594 452.140625 239.140625 456.179688 232.914062 456.179688 C 226.679688 456.179688 221.382812 452.140625 219.480469 446.542969 Z M 232.902344 482.570312 C 212.078125 482.570312 194.878906 466.785156 192.609375 446.542969 L 210.0625 446.542969 C 212.1875 457.21875 221.621094 465.289062 232.914062 465.289062 C 244.199219 465.289062 253.632812 457.21875 255.753906 446.542969 L 273.207031 446.542969 C 272.757812 450.554688 271.722656 454.394531 270.1875 457.96875 L 254.050781 457.96875 L 254.050781 467.078125 L 264.753906 467.078125 C 257.316406 476.503906 245.808594 482.570312 232.902344 482.570312 Z M 304.125 457.96875 L 279.921875 457.96875 C 281.164062 454.328125 281.992188 450.503906 282.355469 446.542969 L 308.699219 446.542969 C 309.855469 449.015625 311.355469 451.292969 313.132812 453.316406 Z M 496.054688 440.949219 C 496.054688 463.320312 477.855469 481.519531 455.488281 481.519531 C 436.328125 481.519531 419.679688 467.820312 415.789062 449.285156 C 420.300781 445.207031 426.015625 440.488281 432.78125 435.75 C 432.402344 437.425781 432.191406 439.160156 432.191406 440.945312 C 432.191406 453.796875 442.644531 464.25 455.488281 464.25 C 468.332031 464.25 478.785156 453.796875 478.785156 440.945312 C 478.785156 430.839844 472.316406 422.214844 463.308594 418.996094 C 469.890625 416.320312 476.914062 414.050781 484.339844 412.421875 C 491.808594 420.003906 496.054688 430.273438 496.054688 440.949219 Z M 445.285156 431.101562 L 451.445312 443.035156 L 459.535156 438.855469 L 453.375 426.925781 C 454.066406 426.820312 454.769531 426.75 455.488281 426.75 C 463.3125 426.75 469.679688 433.117188 469.679688 440.945312 C 469.679688 448.773438 463.3125 455.140625 455.488281 455.140625 C 447.664062 455.140625 441.296875 448.773438 441.296875 440.945312 C 441.296875 437.125 442.820312 433.65625 445.285156 431.101562 Z M 439.378906 255.03125 C 442.367188 255.03125 444.796875 257.460938 444.796875 260.453125 L 444.796875 260.765625 C 444.796875 263.753906 442.367188 266.1875 439.378906 266.1875 L 438.445312 266.1875 L 438.445312 255.03125 Z M 397.085938 269.445312 L 397.085938 260.628906 C 397.085938 255.1875 401.511719 250.761719 406.949219 250.761719 L 429.339844 250.761719 L 429.339844 270.457031 L 398.097656 270.457031 C 397.539062 270.453125 397.085938 270 397.085938 269.445312 Z M 396.230469 310.910156 L 406.566406 279.566406 L 417.363281 279.566406 L 454.261719 370.019531 C 453.519531 370 452.785156 369.964844 452.042969 369.964844 C 435.941406 369.964844 420.878906 375.25 408.601562 384.234375 Z M 452.042969 379.074219 C 469.316406 379.074219 485.5625 385.816406 497.785156 398.054688 C 498.59375 398.863281 499.695312 399.828125 500.878906 400.851562 C 469.804688 403.019531 444.257812 416.535156 427.785156 428.03125 C 412.125 438.957031 401.875 449.800781 398.265625 453.871094 L 334.441406 453.871094 C 325.375 453.871094 317.75 447.574219 315.6875 439.113281 L 349.867188 439.113281 L 349.828125 439.070312 L 387.417969 439.066406 L 387.949219 435.121094 C 392.261719 403.167969 419.816406 379.074219 452.042969 379.074219 Z M 381.171875 423.296875 C 380.539062 425.476562 380 427.699219 379.566406 429.960938 L 342.558594 429.960938 C 340.902344 427.796875 339.351562 425.570312 337.902344 423.300781 L 381.171875 423.300781 Z M 331.371094 429.960938 L 315.136719 429.960938 L 315.136719 407.929688 C 315.136719 382.25 290.902344 361.359375 261.117188 361.359375 L 243.917969 361.359375 C 227.257812 361.359375 211.828125 365.941406 199.214844 373.691406 C 201.855469 358.648438 208.554688 346.984375 212.632812 341.011719 L 319.894531 341.011719 C 315.476562 354.582031 311.324219 376.417969 318.085938 400.929688 C 320.9375 411.265625 325.394531 420.996094 331.371094 429.960938 Z M 217.167969 312.113281 L 310.882812 312.113281 C 320.773438 312.113281 328.816406 320.160156 328.816406 330.054688 C 328.816406 331.070312 327.992188 331.902344 326.972656 331.902344 L 217.167969 331.902344 C 211.714844 331.902344 207.277344 327.460938 207.277344 322.007812 C 207.277344 316.550781 211.714844 312.113281 217.167969 312.113281 Z M 201.863281 341.007812 C 198.160156 347.300781 193.851562 356.273438 191.273438 367.125 L 156.574219 341.007812 Z M 201.863281 341.007812 "/>
</g>
<path style=" stroke:none;fill-rule:nonzero;fill:rgb(25.099182%,25.099182%,25.099182%);fill-opacity:1;" d="M 149.003906 274.253906 L 175.121094 274.253906 L 175.121094 283.363281 L 149.003906 283.363281 Z M 149.003906 274.253906 "/>
<g clip-path="url(#clip5)" clip-rule="nonzero">
<path style=" stroke:none;fill-rule:nonzero;fill:rgb(25.099182%,25.099182%,25.099182%);fill-opacity:1;" d="M 322.632812 482.570312 L 338.40625 482.570312 L 338.40625 491.679688 L 322.632812 491.679688 Z M 322.632812 482.570312 "/>
</g>
<g clip-path="url(#clip6)" clip-rule="nonzero">
<path style=" stroke:none;fill-rule:nonzero;fill:rgb(25.099182%,25.099182%,25.099182%);fill-opacity:1;" d="M 115.636719 482.570312 L 130.050781 482.570312 L 130.050781 491.679688 L 115.636719 491.679688 Z M 115.636719 482.570312 "/>
</g>
</g>
</svg>
