<?xml version="1.0" encoding="UTF-8"?>
<svg xmlns="http://www.w3.org/2000/svg" xmlns:xlink="http://www.w3.org/1999/xlink" width="375pt" height="374.999991pt" viewBox="0 0 375 374.999991" version="1.2">
<defs>
<clipPath id="clip1">
  <path d="M 14.28125 25.539062 L 360.78125 25.539062 L 360.78125 349.539062 L 14.28125 349.539062 Z M 14.28125 25.539062 "/>
</clipPath>
</defs>
<g id="surface1">
<g clip-path="url(#clip1)" clip-rule="nonzero">
<path style=" stroke:none;fill-rule:nonzero;fill:rgb(22.349548%,20.779419%,21.179199%);fill-opacity:1;" d="M 344.363281 163.34375 C 340.148438 175.820312 334.238281 188.746094 326.785156 201.78125 C 325.546875 203.953125 324.246094 206.167969 322.898438 208.378906 C 321.0625 211.421875 319.167969 214.417969 317.261719 217.292969 C 309.210938 229.53125 299.871094 241.765625 289.492188 253.675781 C 275.847656 269.40625 260.359375 284.695312 243.464844 299.113281 C 226.195312 313.871094 207.398438 327.804688 187.550781 340.5625 C 167.714844 327.816406 148.90625 313.878906 131.609375 299.113281 C 114.625 284.589844 99.144531 269.300781 85.59375 253.671875 C 75.796875 242.414062 66.957031 230.914062 59.324219 219.488281 C 56.734375 215.625 54.414062 211.992188 52.222656 208.359375 C 51.328125 206.898438 50.449219 205.445312 49.59375 203.957031 C 41.613281 190.304688 35.277344 176.636719 30.753906 163.335938 C 25.449219 147.699219 22.761719 132.714844 22.769531 118.804688 C 22.800781 102.367188 26.625 87.644531 34.140625 75.039062 C 38.945312 66.96875 45.292969 59.726562 53.003906 53.507812 C 69.167969 40.46875 85.832031 33.851562 102.535156 33.851562 C 135.9375 33.851562 162.597656 59.988281 175.496094 75.535156 C 176.984375 77.367188 178.332031 79.066406 179.480469 80.558594 C 182.425781 84.4375 184.03125 86.960938 184.046875 86.984375 C 184.808594 88.183594 186.132812 88.910156 187.550781 88.910156 C 187.550781 88.910156 187.550781 88.910156 187.554688 88.910156 C 188.96875 88.910156 190.292969 88.183594 191.054688 86.992188 C 191.082031 86.941406 194.140625 82.167969 199.574219 75.566406 C 212.5 59.988281 239.167969 33.851562 272.582031 33.851562 C 289.289062 33.851562 305.960938 40.46875 322.132812 53.511719 C 329.828125 59.71875 336.183594 66.960938 341.007812 75.039062 C 348.503906 87.660156 352.320312 102.382812 352.347656 118.804688 C 352.363281 132.695312 349.679688 147.675781 344.363281 163.34375 Z M 348.136719 70.789062 C 342.804688 61.859375 335.808594 53.871094 327.339844 47.046875 C 309.65625 32.785156 291.234375 25.550781 272.582031 25.550781 C 235.777344 25.550781 207.039062 53.566406 193.175781 70.277344 C 190.886719 73.058594 189.003906 75.519531 187.554688 77.496094 C 187.101562 76.882812 186.609375 76.21875 186.074219 75.519531 C 184.867188 73.945312 183.46875 72.1875 181.910156 70.269531 C 168.058594 53.566406 139.332031 25.550781 102.535156 25.550781 C 83.886719 25.550781 65.46875 32.785156 47.792969 47.042969 C 39.316406 53.878906 32.320312 61.871094 27.007812 70.789062 C 18.722656 84.6875 14.503906 100.835938 14.464844 118.796875 C 14.460938 133.621094 17.292969 149.503906 22.894531 166.007812 C 27.59375 179.835938 34.167969 194.015625 42.414062 208.128906 C 43.292969 209.65625 44.207031 211.167969 45.125 212.667969 C 47.375 216.398438 49.765625 220.136719 52.421875 224.105469 C 60.253906 235.820312 69.304688 247.601562 79.328125 259.117188 C 93.144531 275.050781 108.917969 290.632812 126.21875 305.429688 C 144.457031 321 164.34375 335.65625 185.328125 348.992188 C 186.007812 349.421875 186.777344 349.636719 187.554688 349.636719 C 188.328125 349.636719 189.097656 349.421875 189.777344 348.988281 C 210.773438 335.644531 230.652344 320.988281 248.855469 305.429688 C 266.066406 290.742188 281.847656 275.160156 295.757812 259.125 C 306.371094 246.941406 315.9375 234.402344 324.1875 221.867188 C 326.152344 218.90625 328.105469 215.8125 330 212.683594 C 331.378906 210.414062 332.726562 208.128906 333.996094 205.894531 C 341.707031 192.40625 347.84375 178.984375 352.226562 166.003906 C 357.835938 149.480469 360.664062 133.597656 360.648438 118.789062 C 360.621094 100.859375 356.410156 84.714844 348.136719 70.789062 "/>
</g>
<path style=" stroke:none;fill-rule:nonzero;fill:rgb(22.349548%,20.779419%,21.179199%);fill-opacity:1;" d="M 131.769531 204.386719 L 121.09375 178.378906 L 149.882812 182.355469 Z M 161.667969 177.746094 C 161.53125 177.394531 161.34375 177.066406 161.125 176.773438 C 160.46875 175.894531 159.484375 175.300781 158.371094 175.148438 L 142.4375 172.945312 C 150.25 155.699219 160.890625 144.574219 174.226562 139.851562 C 197.367188 131.660156 222.65625 144.84375 230.484375 149.496094 C 232.011719 150.40625 232.886719 150.996094 232.9375 151.027344 C 234.824219 152.328125 237.410156 151.851562 238.707031 149.964844 C 240.007812 148.074219 239.53125 145.488281 237.644531 144.1875 C 236.253906 143.230469 203.175781 120.824219 171.503906 132.011719 C 155.332031 137.71875 142.714844 151.066406 133.871094 171.761719 L 115.082031 169.164062 C 113.613281 168.960938 112.144531 169.5625 111.234375 170.734375 C 110.324219 171.90625 110.109375 173.480469 110.675781 174.851562 L 126.726562 213.960938 C 127.28125 215.3125 128.503906 216.273438 129.945312 216.492188 C 130.152344 216.523438 130.359375 216.535156 130.566406 216.535156 C 131.796875 216.535156 132.976562 215.992188 133.769531 215.023438 L 161.007812 181.898438 C 161.960938 180.734375 162.214844 179.148438 161.667969 177.746094 "/>
<path style=" stroke:none;fill-rule:nonzero;fill:rgb(22.349548%,20.779419%,21.179199%);fill-opacity:1;" d="M 224.433594 188.191406 L 239.933594 164.257812 L 253.484375 188.890625 Z M 243.863281 154.167969 C 243.160156 152.890625 241.832031 152.074219 240.375 152.023438 C 238.910156 151.980469 237.535156 152.6875 236.742188 153.914062 L 213.429688 189.90625 C 212.613281 191.167969 212.542969 192.773438 213.242188 194.101562 C 213.421875 194.4375 213.640625 194.742188 213.894531 195.011719 C 214.644531 195.804688 215.691406 196.285156 216.8125 196.3125 L 232.898438 196.699219 C 227.082031 214.722656 217.765625 226.976562 205.046875 233.175781 C 182.984375 243.933594 156.363281 233.691406 148.058594 229.953125 C 146.4375 229.226562 145.5 228.738281 145.445312 228.710938 C 143.425781 227.632812 140.914062 228.398438 139.835938 230.421875 C 138.757812 232.445312 139.523438 234.960938 141.546875 236.039062 C 142.617188 236.609375 161.152344 246.308594 182.695312 246.308594 C 191.171875 246.308594 200.113281 244.808594 208.640625 240.664062 C 224.066406 233.160156 235.09375 218.46875 241.542969 196.90625 L 260.5 197.359375 C 260.53125 197.363281 260.566406 197.363281 260.597656 197.363281 C 262.046875 197.363281 263.390625 196.609375 264.144531 195.367188 C 264.914062 194.097656 264.949219 192.515625 264.234375 191.210938 L 243.863281 154.167969 "/>
</g>
</svg>
