<?xml version="1.0" encoding="UTF-8"?>
<svg xmlns="http://www.w3.org/2000/svg" xmlns:xlink="http://www.w3.org/1999/xlink" width="375pt" height="374.999991pt" version="1.2" viewBox="0 0 375 374.999991">
    <defs>
        <clipPath id="clip1">
            <path d="M 182 29.839844 L 193 29.839844 L 193 55 L 182 55 Z M 182 29.839844 "/>
        </clipPath>
        <clipPath id="clip2">
            <path d="M 182 320 L 193 320 L 193 344.839844 L 182 344.839844 Z M 182 320 "/>
        </clipPath>
        <clipPath id="clip3">
            <path d="M 320 182 L 344.839844 182 L 344.839844 193 L 320 193 Z M 320 182 "/>
        </clipPath>
        <clipPath id="clip4">
            <path d="M 29.839844 182 L 55 182 L 55 193 L 29.839844 193 Z M 29.839844 182 "/>
        </clipPath>
        <clipPath id="clip5">
            <path d="M 88 88 L 335 88 L 335 344.839844 L 88 344.839844 Z M 88 88 "/>
        </clipPath>
    </defs>
    <g id="surface1">
        <g clip-path="url(#clip1)" clip-rule="nonzero">
            <path d="M 187.339844 54.449219 C 190.058594 54.449219 192.261719 52.246094 192.261719 49.527344 L 192.261719 34.761719 C 192.261719 32.046875 190.058594 29.839844 187.339844 29.839844 C 184.625 29.839844 182.417969 32.046875 182.417969 34.761719 L 182.417969 49.527344 C 182.417969 52.246094 184.625 54.449219 187.339844 54.449219 Z M 187.339844 54.449219 " style="stroke:none;fill-rule:nonzero;fill:rgb(25.099182%,25.099182%,25.099182%);fill-opacity:1"/>
        </g>
        <g clip-path="url(#clip2)" clip-rule="nonzero">
            <path d="M 187.339844 320.230469 C 184.625 320.230469 182.417969 322.4375 182.417969 325.152344 L 182.417969 339.917969 C 182.417969 342.636719 184.625 344.839844 187.339844 344.839844 C 190.058594 344.839844 192.261719 342.636719 192.261719 339.917969 L 192.261719 325.152344 C 192.261719 322.4375 190.058594 320.230469 187.339844 320.230469 Z M 187.339844 320.230469 " style="stroke:none;fill-rule:nonzero;fill:rgb(25.099182%,25.099182%,25.099182%);fill-opacity:1"/>
        </g>
        <g clip-path="url(#clip3)" clip-rule="nonzero">
            <path d="M 339.917969 182.417969 L 325.152344 182.417969 C 322.4375 182.417969 320.230469 184.625 320.230469 187.339844 C 320.230469 190.058594 322.4375 192.261719 325.152344 192.261719 L 339.917969 192.261719 C 342.636719 192.261719 344.839844 190.058594 344.839844 187.339844 C 344.839844 184.625 342.636719 182.417969 339.917969 182.417969 Z M 339.917969 182.417969 " style="stroke:none;fill-rule:nonzero;fill:rgb(25.099182%,25.099182%,25.099182%);fill-opacity:1"/>
        </g>
        <g clip-path="url(#clip4)" clip-rule="nonzero">
            <path d="M 49.527344 182.417969 L 34.761719 182.417969 C 32.046875 182.417969 29.839844 184.625 29.839844 187.339844 C 29.839844 190.058594 32.046875 192.261719 34.761719 192.261719 L 49.527344 192.261719 C 52.246094 192.261719 54.449219 190.058594 54.449219 187.339844 C 54.449219 184.625 52.246094 182.417969 49.527344 182.417969 Z M 49.527344 182.417969 " style="stroke:none;fill-rule:nonzero;fill:rgb(25.099182%,25.099182%,25.099182%);fill-opacity:1"/>
        </g>
        <path d="M 86.414062 93.375 C 87.375 94.335938 88.632812 94.816406 89.894531 94.816406 C 91.152344 94.816406 92.410156 94.335938 93.371094 93.375 C 95.296875 91.453125 95.296875 88.335938 93.371094 86.414062 L 82.933594 75.972656 C 81.011719 74.050781 77.894531 74.050781 75.972656 75.972656 C 74.050781 77.894531 74.050781 81.007812 75.972656 82.933594 Z M 86.414062 93.375 " style="stroke:none;fill-rule:nonzero;fill:rgb(25.099182%,25.099182%,25.099182%);fill-opacity:1"/>
        <path d="M 86.414062 281.3125 L 75.972656 291.75 C 74.050781 293.671875 74.050781 296.789062 75.972656 298.710938 C 76.933594 299.671875 78.191406 300.152344 79.453125 300.152344 C 80.710938 300.152344 81.972656 299.671875 82.933594 298.710938 L 93.375 288.269531 C 95.296875 286.351562 95.296875 283.234375 93.375 281.3125 C 91.457031 279.390625 88.339844 279.390625 86.414062 281.3125 Z M 86.414062 281.3125 " style="stroke:none;fill-rule:nonzero;fill:rgb(25.099182%,25.099182%,25.099182%);fill-opacity:1"/>
        <path d="M 284.789062 94.816406 C 286.050781 94.816406 287.308594 94.335938 288.269531 93.375 L 298.710938 82.933594 C 300.632812 81.007812 300.632812 77.894531 298.710938 75.972656 C 296.792969 74.050781 293.671875 74.050781 291.753906 75.972656 L 281.308594 86.414062 C 279.386719 88.335938 279.386719 91.453125 281.308594 93.375 C 282.269531 94.335938 283.53125 94.816406 284.789062 94.816406 Z M 284.789062 94.816406 " style="stroke:none;fill-rule:nonzero;fill:rgb(25.099182%,25.099182%,25.099182%);fill-opacity:1"/>
        <g clip-path="url(#clip5)" clip-rule="nonzero">
            <path d="M 284.378906 257.492188 C 283.5 256.515625 282.261719 255.933594 280.945312 255.878906 C 279.699219 255.851562 278.464844 256.253906 277.515625 257.070312 L 266.628906 245.667969 C 278.65625 229.34375 285.777344 209.175781 285.777344 187.339844 C 285.777344 132.976562 241.707031 88.902344 187.339844 88.902344 C 132.976562 88.902344 88.902344 132.976562 88.902344 187.339844 C 88.902344 241.707031 132.976562 285.777344 187.339844 285.777344 C 206.976562 285.777344 225.25 280.007812 240.609375 270.101562 L 251.351562 281.347656 L 250.496094 282.121094 L 250.550781 282.1875 C 249.035156 284.042969 249.042969 286.765625 250.695312 288.589844 L 297.203125 339.992188 C 300.117188 343.117188 304.148438 344.839844 308.554688 344.839844 C 312.804688 344.839844 316.910156 343.222656 320.113281 340.285156 L 329.429688 331.75 C 332.789062 328.675781 334.8125 324.378906 334.984375 319.96875 C 335.148438 315.832031 333.714844 311.921875 331 309.019531 Z M 98.746094 187.339844 C 98.746094 138.492188 138.492188 98.746094 187.339844 98.746094 C 236.191406 98.746094 275.933594 138.492188 275.933594 187.339844 C 275.933594 236.191406 236.191406 275.933594 187.339844 275.933594 C 138.492188 275.933594 98.746094 236.191406 98.746094 187.339844 Z M 248.679688 264.304688 C 252.859375 260.96875 256.773438 257.316406 260.359375 253.355469 L 270.570312 264.050781 L 258.671875 274.761719 Z M 322.78125 324.492188 L 313.464844 333.027344 C 312.078125 334.296875 310.335938 334.996094 308.554688 334.996094 C 306.910156 334.996094 305.4375 334.386719 304.453125 333.335938 L 261.300781 285.640625 L 280.742188 268.140625 L 323.753906 315.683594 C 324.980469 316.996094 325.191406 318.53125 325.148438 319.585938 C 325.078125 321.386719 324.214844 323.175781 322.78125 324.492188 Z M 322.78125 324.492188 " style="stroke:none;fill-rule:nonzero;fill:rgb(25.099182%,25.099182%,25.099182%);fill-opacity:1"/>
        </g>
        <path d="M 187.339844 113.511719 C 146.566406 113.511719 113.511719 146.566406 113.511719 187.339844 C 113.511719 228.117188 146.566406 261.167969 187.339844 261.167969 C 228.117188 261.167969 261.167969 228.117188 261.167969 187.339844 C 261.167969 146.566406 228.117188 113.511719 187.339844 113.511719 Z M 187.339844 251.324219 C 152.0625 251.324219 123.355469 222.621094 123.355469 187.339844 C 123.355469 152.058594 152.0625 123.355469 187.339844 123.355469 C 222.621094 123.355469 251.324219 152.058594 251.324219 187.339844 C 251.324219 222.621094 222.621094 251.324219 187.339844 251.324219 Z M 187.339844 251.324219 " style="stroke:none;fill-rule:nonzero;fill:rgb(25.099182%,25.099182%,25.099182%);fill-opacity:1"/>
        <path d="M 219.976562 150.777344 L 173.492188 169.257812 C 172.359375 169.707031 171.433594 170.5625 170.894531 171.65625 L 148.472656 217.160156 C 147.574219 218.984375 147.890625 221.175781 149.273438 222.671875 C 150.222656 223.703125 151.542969 224.253906 152.890625 224.253906 C 153.5 224.253906 154.117188 224.144531 154.707031 223.90625 L 201.191406 205.429688 C 202.324219 204.980469 203.25 204.125 203.789062 203.03125 L 226.210938 157.523438 C 227.109375 155.699219 226.792969 153.507812 225.410156 152.007812 C 224.03125 150.515625 221.871094 150.019531 219.976562 150.777344 Z M 176.199219 183.160156 L 191.664062 198.625 L 162.957031 210.035156 Z M 198.484375 191.527344 L 183.023438 176.0625 L 211.726562 164.648438 Z M 198.484375 191.527344 " style="stroke:none;fill-rule:nonzero;fill:rgb(25.099182%,25.099182%,25.099182%);fill-opacity:1"/>
    </g>
</svg>
