<?xml version="1.0" encoding="UTF-8"?>
<svg xmlns="http://www.w3.org/2000/svg" xmlns:xlink="http://www.w3.org/1999/xlink" width="600pt" height="693.000001pt" viewBox="0 0 600 693.000001" version="1.2">
<defs>
<clipPath id="clip1">
  <path d="M 0.433594 0 L 599.566406 0 L 599.566406 692 L 0.433594 692 Z M 0.433594 0 "/>
</clipPath>
<clipPath id="clip2">
  <path d="M 49.929688 98 L 550.210938 98 L 550.210938 599 L 49.929688 599 Z M 49.929688 98 "/>
</clipPath>
</defs>
<g id="surface1">
<g clip-path="url(#clip1)" clip-rule="nonzero">
<path style=" stroke:none;fill-rule:nonzero;fill:rgb(100%,100%,100%);fill-opacity:1;" d="M 0.433594 0 L 599.566406 0 L 599.566406 692 L 0.433594 692 Z M 0.433594 0 "/>
<path style=" stroke:none;fill-rule:nonzero;fill:rgb(100%,100%,100%);fill-opacity:1;" d="M 0.433594 0 L 599.566406 0 L 599.566406 692 L 0.433594 692 Z M 0.433594 0 "/>
</g>
<path style=" stroke:none;fill-rule:nonzero;fill:rgb(90.589905%,86.669922%,79.60968%);fill-opacity:1;" d="M 300 52.902344 C 295.203125 52.902344 290.410156 53.019531 285.617188 53.253906 C 280.828125 53.492188 276.046875 53.84375 271.269531 54.3125 C 266.496094 54.785156 261.738281 55.371094 256.992188 56.074219 C 252.25 56.777344 247.523438 57.597656 242.820312 58.535156 C 238.113281 59.46875 233.4375 60.519531 228.78125 61.6875 C 224.128906 62.851562 219.507812 64.132812 214.917969 65.523438 C 210.328125 66.914062 205.773438 68.421875 201.257812 70.035156 C 196.742188 71.652344 192.269531 73.378906 187.835938 75.214844 C 183.40625 77.050781 179.019531 78.992188 174.683594 81.042969 C 170.347656 83.09375 166.066406 85.25 161.835938 87.511719 C 157.605469 89.773438 153.433594 92.136719 149.316406 94.601562 C 145.203125 97.066406 141.152344 99.632812 137.164062 102.296875 C 133.175781 104.964844 129.253906 107.726562 125.402344 110.582031 C 121.550781 113.441406 117.769531 116.390625 114.0625 119.433594 C 110.351562 122.476562 106.722656 125.609375 103.167969 128.828125 C 99.613281 132.050781 96.140625 135.355469 92.75 138.75 C 89.355469 142.140625 86.050781 145.613281 82.828125 149.167969 C 79.605469 152.722656 76.476562 156.351562 73.433594 160.0625 C 70.390625 163.769531 67.4375 167.550781 64.582031 171.402344 C 61.722656 175.253906 58.960938 179.175781 56.296875 183.164062 C 53.632812 187.152344 51.066406 191.203125 48.601562 195.316406 C 46.136719 199.433594 43.773438 203.605469 41.511719 207.835938 C 39.25 212.066406 37.09375 216.347656 35.042969 220.683594 C 32.992188 225.019531 31.046875 229.40625 29.210938 233.835938 C 27.378906 238.269531 25.652344 242.742188 24.035156 247.257812 C 22.417969 251.773438 20.914062 256.328125 19.523438 260.917969 C 18.128906 265.507812 16.851562 270.128906 15.6875 274.785156 C 14.519531 279.4375 13.46875 284.117188 12.535156 288.820312 C 11.597656 293.523438 10.777344 298.25 10.074219 302.996094 C 9.371094 307.738281 8.785156 312.5 8.3125 317.273438 C 7.84375 322.046875 7.492188 326.828125 7.253906 331.617188 C 7.019531 336.410156 6.902344 341.203125 6.902344 346 C 6.902344 350.796875 7.019531 355.589844 7.253906 360.382812 C 7.492188 365.171875 7.84375 369.957031 8.3125 374.730469 C 8.785156 379.503906 9.371094 384.261719 10.074219 389.007812 C 10.777344 393.753906 11.597656 398.476562 12.535156 403.179688 C 13.46875 407.886719 14.519531 412.566406 15.6875 417.21875 C 16.851562 421.871094 18.128906 426.492188 19.523438 431.082031 C 20.914062 435.671875 22.417969 440.226562 24.035156 444.742188 C 25.652344 449.257812 27.378906 453.734375 29.210938 458.164062 C 31.046875 462.597656 32.992188 466.980469 35.042969 471.316406 C 37.09375 475.652344 39.25 479.9375 41.511719 484.167969 C 43.773438 488.398438 46.136719 492.570312 48.601562 496.683594 C 51.066406 500.796875 53.632812 504.847656 56.296875 508.835938 C 58.960938 512.824219 61.722656 516.746094 64.582031 520.597656 C 67.4375 524.453125 70.390625 528.230469 73.433594 531.941406 C 76.476562 535.648438 79.605469 539.277344 82.828125 542.832031 C 86.050781 546.386719 89.355469 549.859375 92.75 553.253906 C 96.140625 556.644531 99.613281 559.949219 103.167969 563.171875 C 106.722656 566.394531 110.351562 569.527344 114.0625 572.570312 C 117.769531 575.613281 121.550781 578.5625 125.402344 581.417969 C 129.253906 584.277344 133.175781 587.039062 137.164062 589.703125 C 141.152344 592.367188 145.203125 594.933594 149.316406 597.398438 C 153.433594 599.867188 157.605469 602.230469 161.835938 604.488281 C 166.066406 606.75 170.347656 608.90625 174.683594 610.957031 C 179.019531 613.007812 183.40625 614.953125 187.835938 616.789062 C 192.269531 618.625 196.742188 620.347656 201.257812 621.964844 C 205.773438 623.582031 210.328125 625.085938 214.917969 626.476562 C 219.507812 627.871094 224.128906 629.148438 228.78125 630.316406 C 233.4375 631.480469 238.113281 632.53125 242.820312 633.46875 C 247.523438 634.402344 252.25 635.222656 256.992188 635.925781 C 261.738281 636.628906 266.496094 637.21875 271.269531 637.6875 C 276.046875 638.15625 280.828125 638.511719 285.617188 638.746094 C 290.410156 638.980469 295.203125 639.097656 300 639.097656 C 304.796875 639.097656 309.589844 638.980469 314.382812 638.746094 C 319.171875 638.511719 323.953125 638.15625 328.730469 637.6875 C 333.503906 637.21875 338.261719 636.628906 343.007812 635.925781 C 347.75 635.222656 352.476562 634.402344 357.179688 633.46875 C 361.886719 632.53125 366.5625 631.480469 371.21875 630.316406 C 375.871094 629.148438 380.492188 627.871094 385.082031 626.476562 C 389.671875 625.085938 394.226562 623.582031 398.742188 621.964844 C 403.257812 620.347656 407.730469 618.625 412.164062 616.789062 C 416.59375 614.953125 420.980469 613.007812 425.316406 610.957031 C 429.652344 608.90625 433.933594 606.75 438.164062 604.488281 C 442.394531 602.230469 446.566406 599.867188 450.683594 597.398438 C 454.796875 594.933594 458.847656 592.367188 462.835938 589.703125 C 466.824219 587.039062 470.746094 584.277344 474.597656 581.417969 C 478.449219 578.5625 482.230469 575.613281 485.9375 572.570312 C 489.648438 569.527344 493.277344 566.394531 496.832031 563.171875 C 500.386719 559.949219 503.859375 556.644531 507.25 553.253906 C 510.644531 549.859375 513.949219 546.386719 517.171875 542.832031 C 520.390625 539.277344 523.523438 535.648438 526.566406 531.941406 C 529.609375 528.230469 532.5625 524.453125 535.417969 520.597656 C 538.277344 516.746094 541.035156 512.824219 543.703125 508.835938 C 546.367188 504.847656 548.933594 500.796875 551.398438 496.683594 C 553.863281 492.570312 556.226562 488.398438 558.488281 484.167969 C 560.75 479.9375 562.90625 475.652344 564.957031 471.316406 C 567.007812 466.980469 568.953125 462.597656 570.789062 458.164062 C 572.621094 453.734375 574.347656 449.257812 575.964844 444.742188 C 577.582031 440.226562 579.085938 435.671875 580.476562 431.082031 C 581.871094 426.492188 583.148438 421.871094 584.3125 417.21875 C 585.480469 412.566406 586.53125 407.886719 587.464844 403.179688 C 588.402344 398.476562 589.222656 393.753906 589.925781 389.007812 C 590.628906 384.261719 591.214844 379.503906 591.6875 374.730469 C 592.15625 369.957031 592.507812 365.171875 592.746094 360.382812 C 592.980469 355.589844 593.097656 350.796875 593.097656 346 C 593.097656 341.203125 592.980469 336.410156 592.746094 331.617188 C 592.507812 326.828125 592.15625 322.046875 591.6875 317.273438 C 591.214844 312.5 590.628906 307.738281 589.925781 302.996094 C 589.222656 298.25 588.402344 293.523438 587.464844 288.820312 C 586.53125 284.117188 585.480469 279.4375 584.3125 274.785156 C 583.148438 270.128906 581.871094 265.507812 580.476562 260.917969 C 579.085938 256.328125 577.582031 251.773438 575.964844 247.257812 C 574.347656 242.742188 572.621094 238.269531 570.789062 233.835938 C 568.953125 229.40625 567.007812 225.019531 564.957031 220.683594 C 562.90625 216.347656 560.75 212.066406 558.488281 207.835938 C 556.226562 203.605469 553.863281 199.433594 551.398438 195.316406 C 548.933594 191.203125 546.367188 187.152344 543.703125 183.164062 C 541.035156 179.175781 538.277344 175.253906 535.417969 171.402344 C 532.5625 167.550781 529.609375 163.769531 526.566406 160.0625 C 523.523438 156.351562 520.390625 152.722656 517.171875 149.167969 C 513.949219 145.613281 510.644531 142.140625 507.25 138.75 C 503.859375 135.355469 500.386719 132.050781 496.832031 128.828125 C 493.277344 125.609375 489.648438 122.476562 485.9375 119.433594 C 482.230469 116.390625 478.449219 113.441406 474.597656 110.582031 C 470.746094 107.726562 466.824219 104.964844 462.835938 102.296875 C 458.847656 99.632812 454.796875 97.066406 450.683594 94.601562 C 446.566406 92.136719 442.394531 89.773438 438.164062 87.511719 C 433.933594 85.25 429.652344 83.09375 425.316406 81.042969 C 420.980469 78.992188 416.59375 77.050781 412.164062 75.214844 C 407.730469 73.378906 403.257812 71.652344 398.742188 70.035156 C 394.226562 68.421875 389.671875 66.914062 385.082031 65.523438 C 380.492188 64.132812 375.871094 62.851562 371.21875 61.6875 C 366.5625 60.519531 361.886719 59.46875 357.179688 58.535156 C 352.476562 57.597656 347.75 56.777344 343.007812 56.074219 C 338.261719 55.371094 333.503906 54.785156 328.730469 54.3125 C 323.953125 53.84375 319.171875 53.492188 314.382812 53.253906 C 309.589844 53.019531 304.796875 52.902344 300 52.902344 Z M 300 52.902344 "/>
<g clip-path="url(#clip2)" clip-rule="nonzero">
<path style=" stroke:none;fill-rule:nonzero;fill:rgb(25.099182%,25.099182%,25.099182%);fill-opacity:1;" d="M 300.070312 119.355469 C 426.472656 119.355469 529.363281 222.128906 529.363281 348.4375 C 529.363281 474.765625 426.472656 577.519531 300.070312 577.519531 C 173.644531 577.519531 70.777344 474.765625 70.777344 348.4375 C 70.777344 222.128906 173.644531 119.355469 300.070312 119.355469 Z M 300.070312 98.53125 C 161.929688 98.53125 49.929688 210.425781 49.929688 348.4375 C 49.929688 486.449219 161.929688 598.347656 300.070312 598.347656 C 438.210938 598.347656 550.210938 486.449219 550.210938 348.4375 C 550.210938 210.425781 438.210938 98.53125 300.070312 98.53125 Z M 300.070312 98.53125 "/>
</g>
<path style=" stroke:none;fill-rule:nonzero;fill:rgb(25.099182%,25.099182%,25.099182%);fill-opacity:1;" d="M 383.449219 515.042969 L 232.679688 515.042969 C 228.863281 515.042969 225.339844 512.960938 223.527344 509.585938 C 221.691406 506.253906 221.839844 502.195312 223.921875 498.945312 C 238.472656 476.433594 242.871094 461.792969 247.917969 442.027344 C 252.753906 422.660156 251.042969 398.796875 249.394531 375.742188 C 248.980469 373.011719 237.785156 292.105469 237.785156 266.800781 C 237.785156 216.488281 264.089844 188.789062 311.828125 188.789062 C 331.148438 188.789062 351.808594 194.808594 373.296875 206.679688 C 378.320312 209.46875 380.136719 215.800781 377.34375 220.820312 C 374.550781 225.878906 368.210938 227.710938 363.167969 224.902344 C 344.824219 214.757812 327.523438 209.613281 311.804688 209.613281 C 275.515625 209.613281 258.609375 227.773438 258.609375 266.800781 C 258.609375 290.667969 269.96875 372.699219 270.074219 373.554688 C 271.824219 397.796875 273.765625 424.453125 268.09375 447.132812 C 263.945312 463.4375 259.964844 477.203125 250.917969 494.199219 L 383.449219 494.199219 C 389.183594 494.199219 393.871094 498.863281 393.871094 504.609375 C 393.871094 510.359375 389.183594 515.042969 383.449219 515.042969 Z M 383.449219 515.042969 "/>
<path style=" stroke:none;fill-rule:nonzero;fill:rgb(25.099182%,25.099182%,25.099182%);fill-opacity:1;" d="M 341.761719 390.089844 L 216.691406 390.089844 C 210.9375 390.089844 206.269531 385.402344 206.269531 379.675781 C 206.269531 373.949219 210.9375 369.265625 216.691406 369.265625 L 341.761719 369.265625 C 347.492188 369.265625 352.183594 373.949219 352.183594 379.675781 C 352.183594 385.402344 347.492188 390.089844 341.761719 390.089844 Z M 341.761719 390.089844 "/>
</g>
</svg>
