<?xml version="1.0" encoding="UTF-8"?>
<svg xmlns="http://www.w3.org/2000/svg" xmlns:xlink="http://www.w3.org/1999/xlink" width="600pt" height="693.000001pt" viewBox="0 0 600 693.000001" version="1.2">
<defs>
<clipPath id="clip1">
  <path d="M 0.433594 0 L 599.566406 0 L 599.566406 692 L 0.433594 692 Z M 0.433594 0 "/>
</clipPath>
<clipPath id="clip2">
  <path d="M 164.3125 171.765625 L 435.421875 171.765625 L 435.421875 520.011719 L 164.3125 520.011719 Z M 164.3125 171.765625 "/>
</clipPath>
</defs>
<g id="surface1">
<g clip-path="url(#clip1)" clip-rule="nonzero">
<path style=" stroke:none;fill-rule:nonzero;fill:rgb(100%,100%,100%);fill-opacity:1;" d="M 0.433594 0 L 599.566406 0 L 599.566406 692 L 0.433594 692 Z M 0.433594 0 "/>
<path style=" stroke:none;fill-rule:nonzero;fill:rgb(100%,100%,100%);fill-opacity:1;" d="M 0.433594 0 L 599.566406 0 L 599.566406 692 L 0.433594 692 Z M 0.433594 0 "/>
</g>
<path style=" stroke:none;fill-rule:nonzero;fill:rgb(90.589905%,86.669922%,79.60968%);fill-opacity:1;" d="M 300 52.902344 C 295.203125 52.902344 290.410156 53.019531 285.617188 53.253906 C 280.828125 53.492188 276.046875 53.84375 271.269531 54.3125 C 266.496094 54.785156 261.738281 55.371094 256.992188 56.074219 C 252.25 56.777344 247.523438 57.597656 242.820312 58.535156 C 238.113281 59.46875 233.4375 60.519531 228.78125 61.6875 C 224.128906 62.851562 219.507812 64.132812 214.917969 65.523438 C 210.328125 66.914062 205.773438 68.421875 201.257812 70.035156 C 196.742188 71.652344 192.269531 73.378906 187.835938 75.214844 C 183.40625 77.050781 179.019531 78.992188 174.683594 81.042969 C 170.347656 83.09375 166.066406 85.25 161.835938 87.511719 C 157.605469 89.773438 153.433594 92.136719 149.316406 94.601562 C 145.203125 97.066406 141.152344 99.632812 137.164062 102.296875 C 133.175781 104.964844 129.253906 107.726562 125.402344 110.582031 C 121.550781 113.441406 117.769531 116.390625 114.0625 119.433594 C 110.351562 122.476562 106.722656 125.609375 103.167969 128.828125 C 99.613281 132.050781 96.140625 135.355469 92.75 138.75 C 89.355469 142.140625 86.050781 145.613281 82.828125 149.167969 C 79.605469 152.722656 76.476562 156.351562 73.433594 160.0625 C 70.390625 163.769531 67.4375 167.550781 64.582031 171.402344 C 61.722656 175.253906 58.960938 179.175781 56.296875 183.164062 C 53.632812 187.152344 51.066406 191.203125 48.601562 195.316406 C 46.136719 199.433594 43.773438 203.605469 41.511719 207.835938 C 39.25 212.066406 37.09375 216.347656 35.042969 220.683594 C 32.992188 225.019531 31.046875 229.40625 29.210938 233.835938 C 27.378906 238.269531 25.652344 242.742188 24.035156 247.257812 C 22.417969 251.773438 20.914062 256.328125 19.523438 260.917969 C 18.128906 265.507812 16.851562 270.128906 15.6875 274.785156 C 14.519531 279.4375 13.46875 284.117188 12.535156 288.820312 C 11.597656 293.523438 10.777344 298.25 10.074219 302.996094 C 9.371094 307.738281 8.785156 312.5 8.3125 317.273438 C 7.84375 322.046875 7.492188 326.828125 7.253906 331.617188 C 7.019531 336.410156 6.902344 341.203125 6.902344 346 C 6.902344 350.796875 7.019531 355.589844 7.253906 360.382812 C 7.492188 365.171875 7.84375 369.957031 8.3125 374.730469 C 8.785156 379.503906 9.371094 384.261719 10.074219 389.007812 C 10.777344 393.753906 11.597656 398.476562 12.535156 403.179688 C 13.46875 407.886719 14.519531 412.566406 15.6875 417.21875 C 16.851562 421.871094 18.128906 426.492188 19.523438 431.082031 C 20.914062 435.671875 22.417969 440.226562 24.035156 444.742188 C 25.652344 449.257812 27.378906 453.734375 29.210938 458.164062 C 31.046875 462.597656 32.992188 466.980469 35.042969 471.316406 C 37.09375 475.652344 39.25 479.9375 41.511719 484.167969 C 43.773438 488.398438 46.136719 492.570312 48.601562 496.683594 C 51.066406 500.796875 53.632812 504.847656 56.296875 508.835938 C 58.960938 512.824219 61.722656 516.746094 64.582031 520.597656 C 67.4375 524.453125 70.390625 528.230469 73.433594 531.941406 C 76.476562 535.648438 79.605469 539.277344 82.828125 542.832031 C 86.050781 546.386719 89.355469 549.859375 92.75 553.253906 C 96.140625 556.644531 99.613281 559.949219 103.167969 563.171875 C 106.722656 566.394531 110.351562 569.527344 114.0625 572.570312 C 117.769531 575.613281 121.550781 578.5625 125.402344 581.417969 C 129.253906 584.277344 133.175781 587.039062 137.164062 589.703125 C 141.152344 592.367188 145.203125 594.933594 149.316406 597.398438 C 153.433594 599.867188 157.605469 602.230469 161.835938 604.488281 C 166.066406 606.75 170.347656 608.90625 174.683594 610.957031 C 179.019531 613.007812 183.40625 614.953125 187.835938 616.789062 C 192.269531 618.625 196.742188 620.347656 201.257812 621.964844 C 205.773438 623.582031 210.328125 625.085938 214.917969 626.476562 C 219.507812 627.871094 224.128906 629.148438 228.78125 630.316406 C 233.4375 631.480469 238.113281 632.53125 242.820312 633.46875 C 247.523438 634.402344 252.25 635.222656 256.992188 635.925781 C 261.738281 636.628906 266.496094 637.21875 271.269531 637.6875 C 276.046875 638.15625 280.828125 638.511719 285.617188 638.746094 C 290.410156 638.980469 295.203125 639.097656 300 639.097656 C 304.796875 639.097656 309.589844 638.980469 314.382812 638.746094 C 319.171875 638.511719 323.953125 638.15625 328.730469 637.6875 C 333.503906 637.21875 338.261719 636.628906 343.007812 635.925781 C 347.75 635.222656 352.476562 634.402344 357.179688 633.46875 C 361.886719 632.53125 366.5625 631.480469 371.21875 630.316406 C 375.871094 629.148438 380.492188 627.871094 385.082031 626.476562 C 389.671875 625.085938 394.226562 623.582031 398.742188 621.964844 C 403.257812 620.347656 407.730469 618.625 412.164062 616.789062 C 416.59375 614.953125 420.980469 613.007812 425.316406 610.957031 C 429.652344 608.90625 433.933594 606.75 438.164062 604.488281 C 442.394531 602.230469 446.566406 599.867188 450.683594 597.398438 C 454.796875 594.933594 458.847656 592.367188 462.835938 589.703125 C 466.824219 587.039062 470.746094 584.277344 474.597656 581.417969 C 478.449219 578.5625 482.230469 575.613281 485.9375 572.570312 C 489.648438 569.527344 493.277344 566.394531 496.832031 563.171875 C 500.386719 559.949219 503.859375 556.644531 507.25 553.253906 C 510.644531 549.859375 513.949219 546.386719 517.171875 542.832031 C 520.390625 539.277344 523.523438 535.648438 526.566406 531.941406 C 529.609375 528.230469 532.5625 524.453125 535.417969 520.597656 C 538.277344 516.746094 541.035156 512.824219 543.703125 508.835938 C 546.367188 504.847656 548.933594 500.796875 551.398438 496.683594 C 553.863281 492.570312 556.226562 488.398438 558.488281 484.167969 C 560.75 479.9375 562.90625 475.652344 564.957031 471.316406 C 567.007812 466.980469 568.953125 462.597656 570.789062 458.164062 C 572.621094 453.734375 574.347656 449.257812 575.964844 444.742188 C 577.582031 440.226562 579.085938 435.671875 580.476562 431.082031 C 581.871094 426.492188 583.148438 421.871094 584.3125 417.21875 C 585.480469 412.566406 586.53125 407.886719 587.464844 403.179688 C 588.402344 398.476562 589.222656 393.753906 589.925781 389.007812 C 590.628906 384.261719 591.214844 379.503906 591.6875 374.730469 C 592.15625 369.957031 592.507812 365.171875 592.746094 360.382812 C 592.980469 355.589844 593.097656 350.796875 593.097656 346 C 593.097656 341.203125 592.980469 336.410156 592.746094 331.617188 C 592.507812 326.828125 592.15625 322.046875 591.6875 317.273438 C 591.214844 312.5 590.628906 307.738281 589.925781 302.996094 C 589.222656 298.25 588.402344 293.523438 587.464844 288.820312 C 586.53125 284.117188 585.480469 279.4375 584.3125 274.785156 C 583.148438 270.128906 581.871094 265.507812 580.476562 260.917969 C 579.085938 256.328125 577.582031 251.773438 575.964844 247.257812 C 574.347656 242.742188 572.621094 238.269531 570.789062 233.835938 C 568.953125 229.40625 567.007812 225.019531 564.957031 220.683594 C 562.90625 216.347656 560.75 212.066406 558.488281 207.835938 C 556.226562 203.605469 553.863281 199.433594 551.398438 195.316406 C 548.933594 191.203125 546.367188 187.152344 543.703125 183.164062 C 541.035156 179.175781 538.277344 175.253906 535.417969 171.402344 C 532.5625 167.550781 529.609375 163.769531 526.566406 160.0625 C 523.523438 156.351562 520.390625 152.722656 517.171875 149.167969 C 513.949219 145.613281 510.644531 142.140625 507.25 138.75 C 503.859375 135.355469 500.386719 132.050781 496.832031 128.828125 C 493.277344 125.609375 489.648438 122.476562 485.9375 119.433594 C 482.230469 116.390625 478.449219 113.441406 474.597656 110.582031 C 470.746094 107.726562 466.824219 104.964844 462.835938 102.296875 C 458.847656 99.632812 454.796875 97.066406 450.683594 94.601562 C 446.566406 92.136719 442.394531 89.773438 438.164062 87.511719 C 433.933594 85.25 429.652344 83.09375 425.316406 81.042969 C 420.980469 78.992188 416.59375 77.050781 412.164062 75.214844 C 407.730469 73.378906 403.257812 71.652344 398.742188 70.035156 C 394.226562 68.421875 389.671875 66.914062 385.082031 65.523438 C 380.492188 64.132812 375.871094 62.851562 371.21875 61.6875 C 366.5625 60.519531 361.886719 59.46875 357.179688 58.535156 C 352.476562 57.597656 347.75 56.777344 343.007812 56.074219 C 338.261719 55.371094 333.503906 54.785156 328.730469 54.3125 C 323.953125 53.84375 319.171875 53.492188 314.382812 53.253906 C 309.589844 53.019531 304.796875 52.902344 300 52.902344 Z M 300 52.902344 "/>
<g clip-path="url(#clip2)" clip-rule="nonzero">
<path style=" stroke:none;fill-rule:nonzero;fill:rgb(25.099182%,25.099182%,25.099182%);fill-opacity:1;" d="M 428.808594 171.765625 L 170.925781 171.765625 C 167.367188 171.765625 164.480469 174.652344 164.480469 178.214844 L 164.480469 500.664062 C 164.480469 504.230469 167.367188 507.113281 170.925781 507.113281 L 196.714844 507.113281 C 193.15625 507.113281 190.269531 509.996094 190.269531 513.5625 C 190.269531 517.128906 193.15625 520.011719 196.714844 520.011719 L 222.503906 520.011719 C 226.0625 520.011719 228.949219 517.128906 228.949219 513.5625 C 228.949219 509.996094 226.0625 507.113281 222.503906 507.113281 L 377.230469 507.113281 C 373.667969 507.113281 370.785156 509.996094 370.785156 513.5625 C 370.785156 517.128906 373.667969 520.011719 377.230469 520.011719 L 403.019531 520.011719 C 406.585938 520.011719 409.46875 517.128906 409.46875 513.5625 C 409.46875 509.996094 406.585938 507.113281 403.019531 507.113281 L 428.808594 507.113281 C 432.375 507.113281 435.253906 504.230469 435.253906 500.664062 L 435.253906 178.214844 C 435.253906 174.652344 432.375 171.765625 428.808594 171.765625 Z M 422.363281 184.664062 L 422.363281 249.152344 L 177.375 249.152344 L 177.375 184.664062 Z M 177.375 494.214844 L 177.375 262.050781 L 422.363281 262.050781 L 422.363281 494.214844 Z M 177.375 494.214844 "/>
</g>
<path style=" stroke:none;fill-rule:nonzero;fill:rgb(25.099182%,25.099182%,25.099182%);fill-opacity:1;" d="M 299.867188 287.847656 C 246.542969 287.847656 203.164062 331.242188 203.164062 384.582031 C 203.164062 437.921875 246.542969 481.316406 299.867188 481.316406 C 353.191406 481.316406 396.574219 437.921875 396.574219 384.582031 C 396.574219 331.242188 353.191406 287.847656 299.867188 287.847656 Z M 299.867188 468.417969 C 253.65625 468.417969 216.058594 430.808594 216.058594 384.582031 C 216.058594 338.355469 253.65625 300.746094 299.867188 300.746094 C 346.082031 300.746094 383.679688 338.355469 383.679688 384.582031 C 383.679688 430.808594 346.082031 468.417969 299.867188 468.417969 Z M 299.867188 468.417969 "/>
<path style=" stroke:none;fill-rule:nonzero;fill:rgb(25.099182%,25.099182%,25.099182%);fill-opacity:1;" d="M 299.867188 313.644531 C 260.765625 313.644531 228.949219 345.46875 228.949219 384.582031 C 228.949219 423.695312 260.765625 455.523438 299.867188 455.523438 C 338.96875 455.523438 370.785156 423.695312 370.785156 384.582031 C 370.785156 345.46875 338.96875 313.644531 299.867188 313.644531 Z M 299.867188 442.625 C 267.878906 442.625 241.84375 416.589844 241.84375 384.582031 C 241.84375 352.574219 267.878906 326.542969 299.867188 326.542969 C 331.863281 326.542969 357.890625 352.574219 357.890625 384.582031 C 357.890625 416.589844 331.863281 442.625 299.867188 442.625 Z M 299.867188 442.625 "/>
<path style=" stroke:none;fill-rule:nonzero;fill:rgb(25.099182%,25.099182%,25.099182%);fill-opacity:1;" d="M 299.867188 339.4375 C 296.308594 339.4375 293.421875 342.328125 293.421875 345.886719 C 293.421875 349.449219 296.308594 352.335938 299.867188 352.335938 C 317.640625 352.335938 332.101562 366.800781 332.101562 384.582031 C 332.101562 388.148438 334.984375 391.03125 338.550781 391.03125 C 342.117188 391.03125 344.996094 388.148438 344.996094 384.582031 C 344.996094 359.695312 324.746094 339.4375 299.867188 339.4375 Z M 299.867188 339.4375 "/>
<path style=" stroke:none;fill-rule:nonzero;fill:rgb(25.099182%,25.099182%,25.099182%);fill-opacity:1;" d="M 299.867188 403.929688 C 289.203125 403.929688 280.527344 395.25 280.527344 384.582031 C 280.527344 381.015625 277.636719 378.132812 274.078125 378.132812 C 270.519531 378.132812 267.632812 381.015625 267.632812 384.582031 C 267.632812 402.363281 282.09375 416.828125 299.867188 416.828125 C 303.425781 416.828125 306.316406 413.945312 306.316406 410.378906 C 306.316406 406.8125 303.425781 403.929688 299.867188 403.929688 Z M 299.867188 403.929688 "/>
<path style=" stroke:none;fill-rule:nonzero;fill:rgb(25.099182%,25.099182%,25.099182%);fill-opacity:1;" d="M 338.550781 236.253906 C 349.214844 236.253906 357.890625 227.574219 357.890625 216.90625 C 357.890625 206.242188 349.214844 197.5625 338.550781 197.5625 C 327.886719 197.5625 319.210938 206.242188 319.210938 216.90625 C 319.210938 227.574219 327.886719 236.253906 338.550781 236.253906 Z M 338.550781 210.457031 C 342.109375 210.457031 344.996094 213.355469 344.996094 216.90625 C 344.996094 220.460938 342.109375 223.355469 338.550781 223.355469 C 334.992188 223.355469 332.101562 220.460938 332.101562 216.90625 C 332.101562 213.355469 334.992188 210.457031 338.550781 210.457031 Z M 338.550781 210.457031 "/>
<path style=" stroke:none;fill-rule:nonzero;fill:rgb(25.099182%,25.099182%,25.099182%);fill-opacity:1;" d="M 390.125 236.253906 C 400.789062 236.253906 409.46875 227.574219 409.46875 216.90625 C 409.46875 206.242188 400.789062 197.5625 390.125 197.5625 C 379.464844 197.5625 370.785156 206.242188 370.785156 216.90625 C 370.785156 227.574219 379.464844 236.253906 390.125 236.253906 Z M 390.125 210.457031 C 393.683594 210.457031 396.574219 213.355469 396.574219 216.90625 C 396.574219 220.460938 393.683594 223.355469 390.125 223.355469 C 386.566406 223.355469 383.679688 220.460938 383.679688 216.90625 C 383.679688 213.355469 386.566406 210.457031 390.125 210.457031 Z M 390.125 210.457031 "/>
<path style=" stroke:none;fill-rule:nonzero;fill:rgb(25.099182%,25.099182%,25.099182%);fill-opacity:1;" d="M 196.714844 236.253906 L 274.078125 236.253906 C 277.636719 236.253906 280.527344 233.367188 280.527344 229.804688 L 280.527344 204.011719 C 280.527344 200.449219 277.636719 197.5625 274.078125 197.5625 L 196.714844 197.5625 C 193.15625 197.5625 190.269531 200.449219 190.269531 204.011719 L 190.269531 229.804688 C 190.269531 233.367188 193.15625 236.253906 196.714844 236.253906 Z M 203.164062 210.457031 L 267.632812 210.457031 L 267.632812 223.355469 L 203.164062 223.355469 Z M 203.164062 210.457031 "/>
</g>
</svg>
