<?xml version="1.0" encoding="UTF-8"?>
<svg xmlns="http://www.w3.org/2000/svg" xmlns:xlink="http://www.w3.org/1999/xlink" width="600pt" height="693.000001pt" version="1.2" viewBox="0 0 600 693.000001">
    <defs>
        <clipPath id="clip1">
            <path d="M 153.679688 162.738281 L 447.304688 162.738281 L 447.304688 531 L 153.679688 531 Z M 153.679688 162.738281 "/>
        </clipPath>
    </defs>
    <g id="surface1">
        <path d="M 300 59.191406 C 295.3125 59.191406 290.628906 59.308594 285.945312 59.539062 C 281.261719 59.769531 276.589844 60.113281 271.921875 60.574219 C 267.257812 61.03125 262.605469 61.605469 257.96875 62.292969 C 253.332031 62.980469 248.714844 63.78125 244.117188 64.695312 C 239.519531 65.613281 234.945312 66.636719 230.398438 67.777344 C 225.851562 68.917969 221.335938 70.167969 216.847656 71.527344 C 212.363281 72.886719 207.914062 74.359375 203.5 75.9375 C 199.085938 77.515625 194.710938 79.203125 190.382812 80.996094 C 186.050781 82.792969 181.765625 84.691406 177.527344 86.695312 C 173.289062 88.699219 169.105469 90.808594 164.96875 93.015625 C 160.835938 95.226562 156.757812 97.535156 152.738281 99.945312 C 148.714844 102.355469 144.757812 104.863281 140.859375 107.46875 C 136.960938 110.074219 133.128906 112.769531 129.363281 115.5625 C 125.597656 118.355469 121.902344 121.238281 118.28125 124.214844 C 114.65625 127.1875 111.105469 130.25 107.632812 133.398438 C 104.160156 136.546875 100.765625 139.777344 97.449219 143.089844 C 94.136719 146.40625 90.90625 149.800781 87.757812 153.273438 C 84.609375 156.746094 81.546875 160.296875 78.574219 163.921875 C 75.597656 167.542969 72.714844 171.238281 69.921875 175.003906 C 67.128906 178.769531 64.433594 182.601562 61.828125 186.5 C 59.222656 190.398438 56.714844 194.355469 54.304688 198.378906 C 51.894531 202.398438 49.585938 206.476562 47.375 210.609375 C 45.167969 214.746094 43.058594 218.929688 41.054688 223.167969 C 39.050781 227.40625 37.152344 231.691406 35.355469 236.023438 C 33.5625 240.351562 31.875 244.726562 30.296875 249.140625 C 28.71875 253.554688 27.246094 258.003906 25.886719 262.488281 C 24.527344 266.976562 23.277344 271.492188 22.136719 276.039062 C 20.996094 280.585938 19.972656 285.160156 19.054688 289.757812 C 18.140625 294.355469 17.339844 298.972656 16.652344 303.609375 C 15.964844 308.246094 15.390625 312.898438 14.933594 317.5625 C 14.472656 322.230469 14.128906 326.902344 13.898438 331.585938 C 13.667969 336.265625 13.550781 340.953125 13.550781 345.640625 C 13.550781 350.328125 13.667969 355.011719 13.898438 359.695312 C 14.128906 364.378906 14.472656 369.050781 14.933594 373.71875 C 15.390625 378.382812 15.964844 383.035156 16.652344 387.671875 C 17.339844 392.308594 18.140625 396.925781 19.054688 401.523438 C 19.972656 406.121094 20.996094 410.695312 22.136719 415.242188 C 23.277344 419.789062 24.527344 424.304688 25.886719 428.792969 C 27.246094 433.277344 28.71875 437.726562 30.296875 442.140625 C 31.875 446.554688 33.5625 450.929688 35.355469 455.257812 C 37.152344 459.589844 39.050781 463.875 41.054688 468.113281 C 43.058594 472.351562 45.167969 476.535156 47.375 480.671875 C 49.585938 484.804688 51.894531 488.882812 54.304688 492.902344 C 56.714844 496.925781 59.222656 500.882812 61.828125 504.78125 C 64.433594 508.679688 67.128906 512.511719 69.921875 516.277344 C 72.714844 520.042969 75.597656 523.738281 78.574219 527.359375 C 81.546875 530.984375 84.609375 534.535156 87.757812 538.007812 C 90.90625 541.480469 94.136719 544.875 97.449219 548.1875 C 100.765625 551.503906 104.160156 554.734375 107.632812 557.882812 C 111.105469 561.03125 114.65625 564.09375 118.28125 567.066406 C 121.902344 570.042969 125.597656 572.925781 129.363281 575.71875 C 133.128906 578.507812 136.960938 581.207031 140.859375 583.8125 C 144.757812 586.417969 148.714844 588.925781 152.738281 591.335938 C 156.757812 593.746094 160.835938 596.054688 164.96875 598.265625 C 169.105469 600.472656 173.289062 602.582031 177.527344 604.585938 C 181.765625 606.589844 186.050781 608.488281 190.382812 610.285156 C 194.710938 612.078125 199.085938 613.765625 203.5 615.34375 C 207.914062 616.921875 212.363281 618.394531 216.847656 619.753906 C 221.335938 621.113281 225.851562 622.363281 230.398438 623.503906 C 234.945312 624.640625 239.519531 625.667969 244.117188 626.582031 C 248.714844 627.5 253.332031 628.300781 257.96875 628.988281 C 262.605469 629.675781 267.257812 630.25 271.921875 630.707031 C 276.589844 631.167969 281.261719 631.511719 285.945312 631.742188 C 290.628906 631.972656 295.3125 632.089844 300 632.089844 C 304.6875 632.089844 309.371094 631.972656 314.054688 631.742188 C 318.738281 631.511719 323.410156 631.167969 328.078125 630.707031 C 332.742188 630.25 337.394531 629.675781 342.03125 628.988281 C 346.667969 628.300781 351.285156 627.5 355.882812 626.582031 C 360.480469 625.667969 365.054688 624.640625 369.601562 623.503906 C 374.148438 622.363281 378.664062 621.113281 383.152344 619.753906 C 387.636719 618.394531 392.085938 616.921875 396.5 615.34375 C 400.914062 613.765625 405.289062 612.078125 409.617188 610.285156 C 413.949219 608.488281 418.234375 606.589844 422.472656 604.585938 C 426.710938 602.582031 430.894531 600.472656 435.03125 598.265625 C 439.164062 596.054688 443.242188 593.746094 447.261719 591.335938 C 451.285156 588.925781 455.242188 586.417969 459.140625 583.8125 C 463.039062 581.207031 466.871094 578.507812 470.636719 575.71875 C 474.402344 572.925781 478.097656 570.042969 481.71875 567.066406 C 485.34375 564.09375 488.894531 561.03125 492.367188 557.882812 C 495.839844 554.734375 499.234375 551.503906 502.546875 548.1875 C 505.863281 544.875 509.09375 541.480469 512.242188 538.007812 C 515.390625 534.535156 518.453125 530.984375 521.425781 527.359375 C 524.402344 523.738281 527.285156 520.042969 530.078125 516.277344 C 532.871094 512.511719 535.566406 508.679688 538.171875 504.78125 C 540.777344 500.882812 543.285156 496.925781 545.695312 492.902344 C 548.105469 488.882812 550.414062 484.804688 552.625 480.671875 C 554.832031 476.535156 556.941406 472.351562 558.945312 468.113281 C 560.949219 463.875 562.847656 459.589844 564.644531 455.257812 C 566.4375 450.929688 568.125 446.554688 569.703125 442.140625 C 571.28125 437.726562 572.753906 433.277344 574.113281 428.792969 C 575.472656 424.304688 576.722656 419.789062 577.863281 415.242188 C 579 410.695312 580.027344 406.121094 580.941406 401.523438 C 581.859375 396.925781 582.660156 392.308594 583.347656 387.671875 C 584.035156 383.035156 584.609375 378.382812 585.066406 373.71875 C 585.527344 369.050781 585.871094 364.378906 586.101562 359.695312 C 586.332031 355.011719 586.449219 350.328125 586.449219 345.640625 C 586.449219 340.953125 586.332031 336.265625 586.101562 331.585938 C 585.871094 326.902344 585.527344 322.230469 585.066406 317.5625 C 584.609375 312.898438 584.035156 308.246094 583.347656 303.609375 C 582.660156 298.972656 581.859375 294.355469 580.941406 289.757812 C 580.027344 285.160156 579 280.585938 577.863281 276.039062 C 576.722656 271.492188 575.472656 266.976562 574.113281 262.488281 C 572.753906 258.003906 571.28125 253.554688 569.703125 249.140625 C 568.125 244.726562 566.4375 240.351562 564.644531 236.023438 C 562.847656 231.691406 560.949219 227.40625 558.945312 223.167969 C 556.941406 218.929688 554.832031 214.746094 552.625 210.609375 C 550.414062 206.476562 548.105469 202.398438 545.695312 198.378906 C 543.285156 194.355469 540.777344 190.398438 538.171875 186.5 C 535.566406 182.601562 532.871094 178.769531 530.078125 175.003906 C 527.285156 171.238281 524.402344 167.542969 521.425781 163.921875 C 518.453125 160.296875 515.390625 156.746094 512.242188 153.273438 C 509.09375 149.800781 505.863281 146.40625 502.546875 143.089844 C 499.234375 139.777344 495.839844 136.546875 492.367188 133.398438 C 488.894531 130.25 485.34375 127.1875 481.71875 124.214844 C 478.097656 121.238281 474.402344 118.355469 470.636719 115.5625 C 466.871094 112.769531 463.039062 110.074219 459.140625 107.46875 C 455.242188 104.863281 451.285156 102.355469 447.261719 99.945312 C 443.242188 97.535156 439.164062 95.226562 435.03125 93.015625 C 430.894531 90.808594 426.710938 88.699219 422.472656 86.695312 C 418.234375 84.691406 413.949219 82.792969 409.617188 80.996094 C 405.289062 79.203125 400.914062 77.515625 396.5 75.9375 C 392.085938 74.359375 387.636719 72.886719 383.152344 71.527344 C 378.664062 70.167969 374.148438 68.917969 369.601562 67.777344 C 365.054688 66.636719 360.480469 65.613281 355.882812 64.695312 C 351.285156 63.78125 346.667969 62.980469 342.03125 62.292969 C 337.394531 61.605469 332.742188 61.03125 328.078125 60.574219 C 323.410156 60.113281 318.738281 59.769531 314.054688 59.539062 C 309.371094 59.308594 304.6875 59.191406 300 59.191406 Z M 300 59.191406 " style="stroke:none;fill-rule:nonzero;fill:rgb(90.589905%,86.669922%,79.60968%);fill-opacity:1"/>
        <g clip-path="url(#clip1)" clip-rule="nonzero">
            <path d="M 163.105469 250.347656 L 163.105469 521.703125 L 437.921875 521.703125 L 437.921875 249.25 L 163.46875 249.25 C 163.046875 249.3125 163.074219 249.828125 163.105469 250.34375 Z M 163.105469 173.128906 L 163.105469 241.964844 L 437.921875 241.964844 L 437.921875 172.035156 C 346.433594 172.035156 254.949219 172.035156 163.46875 172.035156 C 163.046875 172.097656 163.074219 172.609375 163.105469 173.128906 Z M 156.210938 163.292969 C 156.144531 162.984375 156.351562 162.949219 156.574219 162.929688 C 247.539062 162.925781 336.476562 162.929688 428.851562 162.929688 C 434.679688 162.929688 444.023438 162.136719 445.90625 164.019531 C 448.1875 166.308594 447 181.78125 447 186.242188 C 446.988281 294.6875 447 399.261719 447 507.867188 C 447 513.085938 448.0625 527.558594 445.90625 529.71875 C 443.980469 531.652344 433.367188 530.816406 428.476562 530.816406 C 342.566406 530.816406 259.082031 530.804688 172.183594 530.816406 C 167.050781 530.816406 156.914062 531.515625 155.121094 529.71875 C 152.734375 527.328125 154.03125 512.144531 154.03125 507.5 C 154.03125 396.472656 154.03125 286.125 154.03125 174.222656 C 154.03125 170.636719 153.074219 164.21875 156.210938 163.296875 " style="stroke:none;fill-rule:evenodd;fill:rgb(25.099182%,25.099182%,25.099182%);fill-opacity:1"/>
        </g>
        <path d="M 236.800781 207 C 233.917969 208.730469 228.09375 212.828125 225.546875 212.828125 C 222.480469 212.828125 217.324219 208.746094 214.292969 207 C 202.855469 200.417969 192.027344 194.746094 181.257812 188.789062 L 181.257812 229.582031 L 269.113281 229.582031 C 268.875 215.621094 269.589844 200.6875 268.75 187.332031 C 259.453125 193.160156 247.269531 200.726562 236.800781 207 Z M 225.183594 204.816406 C 237.527344 197.773438 249.695312 190.550781 261.484375 182.960938 C 236.679688 183.203125 210.90625 182.476562 186.703125 183.324219 C 199.824219 190.191406 212.476562 197.53125 225.183594 204.816406 Z M 177.265625 177.5 C 209.332031 177.738281 242.367188 177.011719 273.828125 177.859375 C 275.273438 195.113281 274.566406 216.464844 274.191406 234.316406 C 243.414062 235.765625 208.265625 235.054688 176.539062 234.683594 C 175.09375 217.554688 175.804688 196.320312 176.175781 178.589844 C 176.378906 178.066406 176.742188 177.703125 177.265625 177.5 " style="stroke:none;fill-rule:evenodd;fill:rgb(25.099182%,25.099182%,25.099182%);fill-opacity:1"/>
        <path d="M 290.894531 198.988281 L 303.601562 198.988281 L 303.601562 186.242188 L 290.894531 186.242188 Z M 286.898438 180.773438 C 293.921875 181.011719 301.894531 180.296875 308.316406 181.136719 C 309.730469 187.140625 309.074219 197.125 308.679688 203.722656 C 302.695312 205.140625 292.746094 204.476562 286.167969 204.085938 C 284.765625 198.210938 285.410156 188.339844 285.804688 181.871094 C 286.011719 181.34375 286.378906 180.980469 286.898438 180.773438 " style="stroke:none;fill-rule:evenodd;fill:rgb(25.099182%,25.099182%,25.099182%);fill-opacity:1"/>
        <path d="M 384.191406 193.523438 C 381.425781 196.09375 378.023438 201.113281 378.023438 207.730469 C 378.023438 218.804688 387.679688 227.652344 397.980469 227.398438 C 407.640625 227.160156 417.222656 218.171875 417.222656 207.730469 C 417.222656 196.332031 407.058594 187.324219 396.171875 188.425781 C 390.695312 188.976562 387.136719 190.785156 384.191406 193.523438 Z M 393.269531 182.960938 C 406.253906 181.246094 415.921875 186.78125 420.492188 196.074219 C 423.3125 201.808594 424.105469 211.246094 420.855469 218.65625 C 416.070312 229.589844 400.875 237.269531 386.730469 231.042969 C 376.511719 226.539062 367.5625 210.695312 374.753906 196.074219 C 377.324219 190.847656 384.328125 184.140625 393.269531 182.960938 " style="stroke:none;fill-rule:evenodd;fill:rgb(25.099182%,25.099182%,25.099182%);fill-opacity:1"/>
        <path d="M 291.257812 214.285156 L 291.257812 225.941406 L 303.238281 225.941406 L 303.238281 214.285156 Z M 287.261719 208.820312 C 294.078125 209.269531 302.695312 207.902344 308.316406 209.550781 C 308.917969 215.753906 308.917969 224.46875 308.316406 230.675781 C 302.582031 232.089844 292.871094 231.433594 286.535156 231.042969 C 285.140625 225.527344 285.773438 216.023438 286.167969 209.914062 C 286.378906 209.386719 286.742188 209.027344 287.261719 208.820312 " style="stroke:none;fill-rule:evenodd;fill:rgb(25.099182%,25.099182%,25.099182%);fill-opacity:1"/>
        <path d="M 188.882812 318.824219 L 188.882812 396.40625 L 200.5 396.40625 L 200.5 317.726562 L 189.246094 317.726562 C 188.820312 317.789062 188.851562 318.300781 188.882812 318.824219 Z M 187.429688 305.710938 L 187.429688 312.265625 C 193.289062 312.707031 200.914062 311.359375 205.578125 313 C 205.949219 341.671875 206.660156 373.777344 205.21875 401.5 C 200.003906 402.335938 193.246094 401.636719 187.429688 401.867188 L 187.429688 409.519531 L 222.644531 409.519531 C 222.617188 374.707031 222.679688 338.234375 222.644531 304.613281 L 188.15625 304.613281 C 187.699219 304.769531 187.414062 305.082031 187.429688 305.710938 Z M 274.554688 269.289062 C 260.328125 273.90625 250.421875 279.585938 240.070312 288.585938 C 236.15625 291.988281 228.710938 298.546875 227.726562 303.160156 C 226.171875 310.429688 227.726562 320.734375 227.726562 330.476562 L 227.726562 385.109375 C 227.726562 394.421875 226.199219 405.300781 227.726562 412.433594 C 228.347656 415.328125 232.09375 418.75 234.261719 421.175781 C 249.976562 438.726562 278.6875 454.074219 310.855469 450.671875 C 344.78125 447.089844 370.914062 426.375 383.828125 401.136719 C 391.175781 386.777344 396.296875 370.679688 394.714844 351.601562 C 393.238281 333.597656 387.628906 318.980469 379.105469 306.074219 C 364.730469 284.292969 335.875 262.269531 297.792969 264.914062 C 289.21875 265.507812 281.964844 266.882812 274.554688 269.289062 Z M 182.710938 414.617188 C 181.503906 378.238281 181.503906 336.636719 182.710938 299.882812 C 189.457031 299.214844 195.65625 299.519531 201.953125 299.519531 C 208.140625 299.519531 215.511719 301.011719 221.191406 299.519531 C 223.59375 298.890625 226.109375 294.507812 228.089844 292.230469 C 242.816406 275.292969 264.742188 260.882812 295.246094 259.085938 C 338.164062 256.558594 367 277.515625 383.828125 301.699219 C 392.675781 314.40625 399.28125 331.136719 400.53125 350.515625 C 403.195312 392.09375 382.671875 422.25 358.414062 439.382812 C 345.261719 448.667969 329.472656 454.679688 309.773438 456.144531 C 272.003906 458.929688 245.90625 443.550781 228.449219 423.722656 C 226.84375 421.894531 223.160156 415.722656 220.828125 414.980469 C 216.484375 413.605469 206.695312 414.980469 201.589844 414.980469 C 195.078125 414.980469 188.960938 415.285156 182.710938 414.617188 " style="stroke:none;fill-rule:evenodd;fill:rgb(25.099182%,25.099182%,25.099182%);fill-opacity:1"/>
        <path d="M 334.820312 366.898438 C 309.960938 368.683594 297.097656 347.851562 274.917969 346.140625 C 263.710938 345.273438 257.976562 348.300781 250.597656 353.0625 C 246.78125 355.515625 239.28125 359.621094 238.617188 364.351562 C 238.203125 367.292969 240.472656 373.800781 241.519531 377.101562 C 245.335938 389.109375 252.800781 399.664062 260.402344 406.242188 C 271.796875 416.089844 288.699219 423.792969 308.316406 421.539062 C 343.773438 417.457031 366.523438 391.269531 366.042969 352.332031 C 356.230469 357.96875 349.078125 365.875 334.820312 366.898438 Z M 342.441406 307.890625 C 332.230469 299.707031 316.859375 292.105469 299.242188 293.324219 C 265.355469 295.664062 243.445312 319.167969 238.617188 351.964844 C 247.101562 345.910156 257.722656 338.484375 271.652344 338.484375 C 283.878906 338.484375 292.652344 343.980469 302.144531 348.6875 C 311.605469 353.386719 321.085938 359.683594 332.28125 359.621094 C 345.988281 359.527344 355.148438 350.378906 364.585938 343.226562 C 360.589844 328.285156 353.511719 316.777344 342.441406 307.890625 Z M 295.972656 288.230469 C 324.4375 285.996094 342.835938 297.542969 355.875 312.632812 C 367.332031 325.882812 376.660156 352.53125 369.300781 378.195312 C 363.617188 398.054688 347.601562 414.628906 329.015625 422.261719 C 308.171875 430.820312 280.257812 427.929688 262.210938 415.347656 C 248.847656 406.023438 238.058594 391.207031 234.261719 373.089844 C 229.765625 351.652344 236.59375 329.035156 245.152344 316.996094 C 255.40625 302.578125 272.328125 290.078125 295.972656 288.230469 " style="stroke:none;fill-rule:evenodd;fill:rgb(25.099182%,25.099182%,25.099182%);fill-opacity:1"/>
    </g>
</svg>
