<?xml version="1.0" encoding="UTF-8"?>
<svg xmlns="http://www.w3.org/2000/svg" xmlns:xlink="http://www.w3.org/1999/xlink" width="600pt" height="693.000001pt" viewBox="0 0 600 693.000001" version="1.2">
<defs>
<clipPath id="clip1">
  <path d="M 0.433594 0 L 599.566406 0 L 599.566406 692 L 0.433594 692 Z M 0.433594 0 "/>
</clipPath>
<clipPath id="clip2">
  <path d="M 109.035156 145.628906 L 490.984375 145.628906 L 490.984375 512.597656 L 109.035156 512.597656 Z M 109.035156 145.628906 "/>
</clipPath>
</defs>
<g id="surface1">
<g clip-path="url(#clip1)" clip-rule="nonzero">
<path style=" stroke:none;fill-rule:nonzero;fill:rgb(100%,100%,100%);fill-opacity:1;" d="M 0.433594 0 L 599.566406 0 L 599.566406 692 L 0.433594 692 Z M 0.433594 0 "/>
<path style=" stroke:none;fill-rule:nonzero;fill:rgb(100%,100%,100%);fill-opacity:1;" d="M 0.433594 0 L 599.566406 0 L 599.566406 692 L 0.433594 692 Z M 0.433594 0 "/>
</g>
<path style=" stroke:none;fill-rule:nonzero;fill:rgb(90.589905%,86.669922%,79.60968%);fill-opacity:1;" d="M 300 53.171875 C 295.207031 53.171875 290.417969 53.289062 285.632812 53.527344 C 280.84375 53.761719 276.066406 54.113281 271.296875 54.582031 C 266.527344 55.054688 261.773438 55.640625 257.035156 56.34375 C 252.292969 57.046875 247.574219 57.863281 242.871094 58.800781 C 238.171875 59.734375 233.496094 60.785156 228.847656 61.949219 C 224.199219 63.113281 219.582031 64.390625 214.996094 65.78125 C 210.410156 67.171875 205.863281 68.675781 201.347656 70.289062 C 196.835938 71.90625 192.367188 73.628906 187.941406 75.464844 C 183.511719 77.296875 179.132812 79.238281 174.800781 81.289062 C 170.46875 83.335938 166.1875 85.492188 161.960938 87.75 C 157.734375 90.007812 153.566406 92.371094 149.457031 94.835938 C 145.347656 97.296875 141.296875 99.859375 137.3125 102.523438 C 133.328125 105.1875 129.410156 107.945312 125.5625 110.800781 C 121.714844 113.65625 117.9375 116.601562 114.230469 119.640625 C 110.527344 122.683594 106.898438 125.8125 103.347656 129.03125 C 99.796875 132.25 96.328125 135.550781 92.941406 138.941406 C 89.550781 142.328125 86.246094 145.800781 83.027344 149.351562 C 79.8125 152.902344 76.679688 156.527344 73.640625 160.234375 C 70.601562 163.9375 67.652344 167.714844 64.796875 171.5625 C 61.945312 175.414062 59.183594 179.328125 56.523438 183.316406 C 53.859375 187.300781 51.296875 191.347656 48.832031 195.457031 C 46.371094 199.566406 44.007812 203.738281 41.75 207.960938 C 39.488281 212.1875 37.335938 216.46875 35.289062 220.800781 C 33.238281 225.132812 31.296875 229.511719 29.460938 233.941406 C 27.628906 238.367188 25.90625 242.835938 24.289062 247.351562 C 22.675781 251.863281 21.171875 256.410156 19.78125 260.996094 C 18.390625 265.582031 17.113281 270.199219 15.949219 274.847656 C 14.785156 279.5 13.734375 284.171875 12.800781 288.871094 C 11.863281 293.574219 11.046875 298.292969 10.34375 303.035156 C 9.640625 307.773438 9.050781 312.53125 8.582031 317.296875 C 8.113281 322.066406 7.761719 326.847656 7.523438 331.632812 C 7.289062 336.417969 7.171875 341.207031 7.171875 346 C 7.171875 350.792969 7.289062 355.582031 7.523438 360.367188 C 7.761719 365.15625 8.113281 369.933594 8.582031 374.703125 C 9.050781 379.472656 9.640625 384.226562 10.34375 388.96875 C 11.046875 393.707031 11.863281 398.429688 12.800781 403.128906 C 13.734375 407.828125 14.785156 412.503906 15.949219 417.152344 C 17.113281 421.800781 18.390625 426.417969 19.78125 431.003906 C 21.171875 435.589844 22.675781 440.140625 24.289062 444.652344 C 25.90625 449.164062 27.628906 453.632812 29.460938 458.0625 C 31.296875 462.488281 33.238281 466.867188 35.289062 471.199219 C 37.335938 475.53125 39.488281 479.8125 41.75 484.039062 C 44.007812 488.265625 46.371094 492.433594 48.832031 496.542969 C 51.296875 500.65625 53.859375 504.703125 56.523438 508.6875 C 59.183594 512.671875 61.945312 516.589844 64.796875 520.4375 C 67.652344 524.285156 70.601562 528.0625 73.640625 531.769531 C 76.679688 535.472656 79.8125 539.101562 83.027344 542.652344 C 86.246094 546.203125 89.550781 549.671875 92.941406 553.0625 C 96.328125 556.449219 99.796875 559.753906 103.347656 562.972656 C 106.898438 566.191406 110.527344 569.320312 114.230469 572.359375 C 117.9375 575.398438 121.714844 578.347656 125.5625 581.203125 C 129.410156 584.054688 133.328125 586.816406 137.3125 589.476562 C 141.296875 592.140625 145.347656 594.703125 149.457031 597.167969 C 153.566406 599.628906 157.734375 601.992188 161.960938 604.25 C 166.1875 606.511719 170.46875 608.664062 174.800781 610.714844 C 179.132812 612.761719 183.511719 614.703125 187.941406 616.539062 C 192.367188 618.371094 196.835938 620.097656 201.347656 621.710938 C 205.863281 623.324219 210.410156 624.828125 214.996094 626.21875 C 219.582031 627.609375 224.199219 628.886719 228.847656 630.050781 C 233.496094 631.21875 238.171875 632.265625 242.871094 633.203125 C 247.574219 634.136719 252.292969 634.957031 257.035156 635.660156 C 261.773438 636.363281 266.527344 636.949219 271.296875 637.417969 C 276.066406 637.886719 280.84375 638.242188 285.632812 638.476562 C 290.417969 638.710938 295.207031 638.828125 300 638.828125 C 304.792969 638.828125 309.582031 638.710938 314.367188 638.476562 C 319.15625 638.242188 323.933594 637.886719 328.703125 637.417969 C 333.472656 636.949219 338.226562 636.363281 342.964844 635.660156 C 347.707031 634.957031 352.425781 634.136719 357.128906 633.203125 C 361.828125 632.265625 366.503906 631.21875 371.152344 630.050781 C 375.800781 628.886719 380.417969 627.609375 385.003906 626.21875 C 389.589844 624.828125 394.136719 623.324219 398.652344 621.710938 C 403.164062 620.097656 407.632812 618.371094 412.058594 616.539062 C 416.488281 614.703125 420.867188 612.761719 425.199219 610.714844 C 429.53125 608.664062 433.8125 606.511719 438.039062 604.25 C 442.265625 601.992188 446.433594 599.628906 450.542969 597.167969 C 454.652344 594.703125 458.703125 592.140625 462.6875 589.476562 C 466.671875 586.816406 470.585938 584.054688 474.4375 581.203125 C 478.285156 578.347656 482.0625 575.398438 485.769531 572.359375 C 489.472656 569.320312 493.101562 566.191406 496.652344 562.972656 C 500.203125 559.753906 503.671875 556.449219 507.058594 553.0625 C 510.449219 549.671875 513.753906 546.203125 516.96875 542.652344 C 520.1875 539.101562 523.316406 535.472656 526.359375 531.769531 C 529.398438 528.0625 532.347656 524.285156 535.199219 520.4375 C 538.054688 516.589844 540.816406 512.671875 543.476562 508.6875 C 546.140625 504.703125 548.703125 500.65625 551.167969 496.542969 C 553.628906 492.433594 555.992188 488.265625 558.25 484.039062 C 560.507812 479.8125 562.664062 475.53125 564.710938 471.199219 C 566.761719 466.867188 568.703125 462.488281 570.539062 458.0625 C 572.371094 453.632812 574.09375 449.164062 575.710938 444.652344 C 577.324219 440.140625 578.828125 435.589844 580.21875 431.003906 C 581.609375 426.417969 582.886719 421.800781 584.050781 417.152344 C 585.214844 412.503906 586.265625 407.828125 587.199219 403.128906 C 588.136719 398.429688 588.953125 393.707031 589.65625 388.96875 C 590.359375 384.226562 590.949219 379.472656 591.417969 374.703125 C 591.886719 369.933594 592.238281 365.15625 592.476562 360.367188 C 592.710938 355.582031 592.828125 350.792969 592.828125 346 C 592.828125 341.207031 592.710938 336.417969 592.476562 331.632812 C 592.238281 326.847656 591.886719 322.066406 591.417969 317.296875 C 590.949219 312.53125 590.359375 307.773438 589.65625 303.035156 C 588.953125 298.292969 588.136719 293.574219 587.199219 288.871094 C 586.265625 284.171875 585.214844 279.5 584.050781 274.847656 C 582.886719 270.199219 581.609375 265.582031 580.21875 260.996094 C 578.828125 256.410156 577.324219 251.863281 575.710938 247.351562 C 574.09375 242.835938 572.371094 238.367188 570.539062 233.941406 C 568.703125 229.511719 566.761719 225.132812 564.710938 220.800781 C 562.664062 216.46875 560.507812 212.1875 558.25 207.960938 C 555.992188 203.738281 553.628906 199.566406 551.167969 195.457031 C 548.703125 191.347656 546.140625 187.300781 543.476562 183.316406 C 540.816406 179.328125 538.054688 175.414062 535.199219 171.5625 C 532.347656 167.714844 529.398438 163.9375 526.359375 160.234375 C 523.316406 156.527344 520.1875 152.902344 516.96875 149.351562 C 513.753906 145.800781 510.449219 142.328125 507.058594 138.941406 C 503.671875 135.550781 500.203125 132.25 496.652344 129.03125 C 493.101562 125.8125 489.472656 122.683594 485.769531 119.640625 C 482.0625 116.601562 478.285156 113.65625 474.4375 110.800781 C 470.585938 107.945312 466.671875 105.1875 462.6875 102.523438 C 458.703125 99.859375 454.652344 97.296875 450.542969 94.835938 C 446.433594 92.371094 442.265625 90.007812 438.039062 87.75 C 433.8125 85.492188 429.53125 83.335938 425.199219 81.289062 C 420.867188 79.238281 416.488281 77.296875 412.058594 75.464844 C 407.632812 73.628906 403.164062 71.90625 398.652344 70.289062 C 394.136719 68.675781 389.589844 67.171875 385.003906 65.78125 C 380.417969 64.390625 375.800781 63.113281 371.152344 61.949219 C 366.503906 60.785156 361.828125 59.734375 357.128906 58.800781 C 352.425781 57.863281 347.707031 57.046875 342.964844 56.34375 C 338.226562 55.640625 333.472656 55.054688 328.703125 54.582031 C 323.933594 54.113281 319.15625 53.761719 314.367188 53.527344 C 309.582031 53.289062 304.792969 53.171875 300 53.171875 Z M 300 53.171875 "/>
<g clip-path="url(#clip2)" clip-rule="nonzero">
<path style=" stroke:none;fill-rule:nonzero;fill:rgb(25.099182%,25.099182%,25.099182%);fill-opacity:1;" d="M 490.132812 439.425781 L 454.632812 203.578125 C 454.066406 199.84375 450.859375 197.074219 447.078125 197.074219 L 358.539062 197.074219 C 354.78125 168.097656 329.972656 145.628906 300.007812 145.628906 C 270.042969 145.628906 245.234375 168.097656 241.476562 197.074219 L 152.9375 197.074219 C 149.15625 197.074219 145.949219 199.84375 145.386719 203.578125 L 109.886719 439.425781 C 106.945312 458.988281 112.367188 478.484375 124.769531 492.90625 C 135.695312 505.605469 150.492188 512.597656 166.445312 512.597656 L 433.570312 512.597656 C 449.523438 512.597656 464.320312 505.605469 475.25 492.898438 C 487.648438 478.476562 493.070312 458.988281 490.132812 439.425781 Z M 300.007812 160.914062 C 321.535156 160.914062 339.472656 176.554688 343.097656 197.074219 L 256.917969 197.074219 C 260.546875 176.554688 278.480469 160.914062 300.007812 160.914062 Z M 463.671875 482.933594 C 455.691406 492.210938 445.003906 497.3125 433.570312 497.3125 L 166.445312 497.3125 C 155.015625 497.3125 144.324219 492.210938 136.34375 482.933594 C 126.84375 471.890625 122.707031 456.863281 124.988281 441.703125 L 159.511719 212.359375 L 440.511719 212.359375 L 475.035156 441.703125 C 477.308594 456.855469 473.171875 471.890625 463.671875 482.933594 Z M 300.007812 290.125 C 292.265625 290.125 285.363281 294.207031 281.0625 301.316406 L 267.875 323.140625 C 265.691406 326.757812 260.996094 327.910156 257.390625 325.722656 C 253.78125 323.539062 252.625 318.839844 254.808594 315.230469 L 267.996094 293.40625 C 275.023438 281.78125 286.988281 274.835938 300.015625 274.835938 C 313.042969 274.835938 325.007812 281.773438 332.035156 293.398438 L 345.542969 315.75 L 346.742188 311.21875 C 347.816406 307.136719 352.003906 304.707031 356.074219 305.785156 C 360.148438 306.863281 362.585938 311.042969 361.5 315.125 L 355.234375 338.875 C 354.332031 342.300781 351.238281 344.570312 347.855469 344.570312 C 347.207031 344.570312 346.558594 344.484375 345.902344 344.316406 L 322.152344 338.050781 C 318.074219 336.972656 315.640625 332.792969 316.714844 328.710938 C 317.792969 324.632812 321.976562 322.195312 326.046875 323.269531 L 333.394531 325.210938 L 318.953125 301.316406 C 314.65625 294.207031 307.75 290.125 300.007812 290.125 Z M 383.945312 379.328125 C 391.785156 392.3125 392.023438 408.613281 384.554688 421.871094 C 377.636719 434.144531 365.441406 441.480469 351.933594 441.480469 L 317.890625 441.480469 L 322.273438 445.699219 C 325.3125 448.625 325.40625 453.464844 322.480469 456.503906 C 320.984375 458.0625 318.984375 458.851562 316.976562 458.851562 C 315.066406 458.851562 313.164062 458.140625 311.683594 456.71875 L 294 439.683594 C 290.960938 436.757812 290.867188 431.921875 293.792969 428.878906 L 310.8125 411.179688 C 313.738281 408.136719 318.570312 408.046875 321.609375 410.972656 C 324.648438 413.898438 324.742188 418.738281 321.816406 421.777344 L 317.5625 426.203125 L 351.925781 426.203125 C 359.96875 426.203125 367.007812 421.894531 371.246094 414.375 C 376.011719 405.914062 375.863281 395.519531 370.871094 387.242188 L 360.113281 369.429688 C 357.929688 365.816406 359.089844 361.121094 362.691406 358.9375 C 366.304688 356.75 370.992188 357.914062 373.175781 361.519531 Z M 274.777344 433.839844 C 274.777344 438.058594 271.359375 441.480469 267.144531 441.480469 L 248.089844 441.480469 C 234.582031 441.480469 222.386719 434.152344 215.46875 421.871094 C 208 408.613281 208.230469 392.3125 216.082031 379.328125 L 228.742188 358.378906 L 224.3125 359.457031 C 220.210938 360.457031 216.082031 357.945312 215.085938 353.839844 C 214.085938 349.734375 216.597656 345.601562 220.699219 344.609375 L 244.554688 338.792969 C 246.523438 338.3125 248.601562 338.632812 250.328125 339.6875 C 252.0625 340.742188 253.296875 342.4375 253.78125 344.410156 L 259.582031 368.285156 C 260.582031 372.386719 258.0625 376.523438 253.96875 377.515625 C 253.367188 377.660156 252.757812 377.738281 252.160156 377.738281 C 248.71875 377.738281 245.59375 375.390625 244.746094 371.898438 L 242.929688 364.441406 L 229.152344 387.234375 C 224.160156 395.503906 224.015625 405.898438 228.777344 414.367188 C 233.015625 421.886719 240.058594 426.195312 248.097656 426.195312 L 267.148438 426.195312 C 271.359375 426.195312 274.777344 429.621094 274.777344 433.839844 Z M 274.777344 433.839844 "/>
</g>
</g>
</svg>
