<svg xmlns="http://www.w3.org/2000/svg" width="810" viewBox="0 0 810 810" height="810" version="1.0"><defs><clipPath id="a"><path d="M 164 254 L 645 254 L 645 734.964844 L 164 734.964844 Z M 164 254"/></clipPath><clipPath id="b"><path d="M 276 74.964844 L 369 74.964844 L 369 105 L 276 105 Z M 276 74.964844"/></clipPath><clipPath id="c"><path d="M 441 74.964844 L 534 74.964844 L 534 105 L 441 105 Z M 441 74.964844"/></clipPath></defs><g clip-path="url(#a)"><path fill="#FFF" d="M 473.222656 264.867188 C 467.972656 263.367188 462.722656 262.015625 457.324219 260.816406 C 447.234375 258.511719 437.035156 256.910156 426.722656 256.015625 C 421.492188 255.410156 416.242188 255.109375 410.972656 255.117188 L 410.972656 254.96875 L 398.972656 254.96875 L 398.972656 255.117188 C 393.707031 255.109375 388.457031 255.410156 383.222656 256.015625 C 372.910156 256.910156 362.710938 258.511719 352.621094 260.816406 C 347.222656 262.015625 341.972656 263.367188 336.722656 264.867188 C 332.164062 266.21875 327.644531 267.707031 323.175781 269.328125 C 318.703125 270.949219 314.28125 272.703125 309.914062 274.585938 C 305.546875 276.46875 301.238281 278.480469 296.992188 280.621094 C 292.742188 282.761719 288.5625 285.027344 284.449219 287.414062 C 280.335938 289.804688 276.296875 292.3125 272.332031 294.941406 C 268.367188 297.570312 264.484375 300.316406 260.683594 303.175781 C 256.882812 306.035156 253.167969 309.003906 249.546875 312.085938 C 245.921875 315.164062 242.390625 318.351562 238.957031 321.640625 C 235.519531 324.933594 232.1875 328.320312 228.953125 331.808594 C 225.71875 335.300781 222.59375 338.878906 219.570312 342.554688 C 216.550781 346.230469 213.640625 349.992188 210.84375 353.839844 C 208.046875 357.6875 205.367188 361.613281 202.804688 365.621094 C 200.242188 369.628906 197.796875 373.707031 195.476562 377.859375 C 193.15625 382.011719 190.960938 386.226562 188.890625 390.511719 C 186.820312 394.792969 184.878906 399.132812 183.066406 403.53125 C 181.257812 407.929688 179.578125 412.378906 178.027344 416.875 C 176.480469 421.375 175.070312 425.914062 173.792969 430.496094 C 172.511719 435.078125 171.375 439.695312 170.371094 444.34375 C 169.367188 448.992188 168.503906 453.667969 167.777344 458.371094 C 167.050781 463.070312 166.46875 467.789062 166.023438 472.527344 C 165.578125 477.261719 165.273438 482.007812 165.113281 486.761719 C 164.949219 491.515625 164.929688 496.269531 165.050781 501.023438 C 165.167969 505.78125 165.429688 510.527344 165.832031 515.265625 C 166.238281 520.007812 166.78125 524.730469 167.464844 529.4375 C 168.144531 534.144531 168.96875 538.828125 169.929688 543.484375 C 170.894531 548.144531 171.992188 552.769531 173.230469 557.363281 C 174.464844 561.957031 175.839844 566.507812 177.347656 571.019531 C 178.855469 575.53125 180.492188 579.996094 182.265625 584.410156 C 184.039062 588.820312 185.941406 593.179688 187.976562 597.480469 C 190.007812 601.78125 192.164062 606.019531 194.449219 610.191406 C 196.734375 614.363281 199.140625 618.464844 201.667969 622.492188 C 204.195312 626.523438 206.839844 630.472656 209.601562 634.347656 C 212.367188 638.21875 215.242188 642.003906 218.230469 645.707031 C 221.214844 649.40625 224.3125 653.015625 227.515625 656.535156 C 230.71875 660.050781 234.019531 663.46875 237.425781 666.789062 C 240.832031 670.109375 244.335938 673.328125 247.929688 676.441406 C 251.527344 679.554688 255.214844 682.554688 258.992188 685.449219 C 262.765625 688.34375 266.625 691.121094 270.566406 693.785156 C 274.507812 696.449219 278.523438 698.992188 282.613281 701.417969 C 286.707031 703.84375 290.867188 706.144531 295.097656 708.324219 C 299.324219 710.5 303.617188 712.550781 307.964844 714.472656 C 312.316406 716.394531 316.722656 718.1875 321.179688 719.847656 C 325.636719 721.507812 330.140625 723.035156 334.6875 724.429688 C 339.234375 725.820312 343.820312 727.078125 348.445312 728.199219 C 353.066406 729.320312 357.71875 730.300781 362.402344 731.144531 C 367.082031 731.988281 371.785156 732.691406 376.507812 733.257812 C 381.230469 733.820312 385.964844 734.246094 390.714844 734.527344 C 395.464844 734.808594 400.214844 734.953125 404.972656 734.953125 C 409.730469 734.953125 414.480469 734.808594 419.230469 734.527344 C 423.980469 734.246094 428.714844 733.820312 433.4375 733.257812 C 438.160156 732.691406 442.863281 731.988281 447.542969 731.144531 C 452.226562 730.300781 456.878906 729.320312 461.5 728.199219 C 466.125 727.078125 470.710938 725.820312 475.257812 724.429688 C 479.804688 723.035156 484.308594 721.507812 488.765625 719.847656 C 493.222656 718.1875 497.628906 716.394531 501.980469 714.472656 C 506.332031 712.550781 510.621094 710.5 514.847656 708.324219 C 519.078125 706.144531 523.238281 703.84375 527.332031 701.417969 C 531.421875 698.992188 535.441406 696.449219 539.378906 693.785156 C 543.320312 691.121094 547.179688 688.34375 550.957031 685.449219 C 554.730469 682.554688 558.417969 679.554688 562.015625 676.441406 C 565.613281 673.328125 569.113281 670.109375 572.519531 666.789062 C 575.925781 663.46875 579.230469 660.050781 582.429688 656.535156 C 585.632812 653.015625 588.730469 649.40625 591.71875 645.707031 C 594.703125 642.003906 597.582031 638.21875 600.34375 634.347656 C 603.105469 630.472656 605.75 626.523438 608.277344 622.492188 C 610.808594 618.464844 613.210938 614.363281 615.496094 610.191406 C 617.78125 606.019531 619.9375 601.78125 621.972656 597.480469 C 624.003906 593.179688 625.90625 588.820312 627.679688 584.410156 C 629.453125 579.996094 631.09375 575.53125 632.597656 571.019531 C 634.105469 566.507812 635.480469 561.957031 636.714844 557.363281 C 637.953125 552.769531 639.054688 548.144531 640.015625 543.484375 C 640.976562 538.828125 641.800781 534.144531 642.484375 529.4375 C 643.167969 524.730469 643.710938 520.007812 644.113281 515.265625 C 644.515625 510.527344 644.777344 505.78125 644.894531 501.023438 C 645.015625 496.269531 644.996094 491.515625 644.832031 486.761719 C 644.671875 482.007812 644.367188 477.261719 643.921875 472.527344 C 643.476562 467.789062 642.894531 463.070312 642.167969 458.371094 C 641.441406 453.667969 640.578125 448.992188 639.574219 444.34375 C 638.574219 439.695312 637.433594 435.078125 636.15625 430.496094 C 634.875 425.914062 633.464844 421.375 631.917969 416.875 C 630.371094 412.378906 628.691406 407.929688 626.878906 403.53125 C 625.066406 399.132812 623.125 394.792969 621.054688 390.511719 C 618.984375 386.226562 616.789062 382.011719 614.46875 377.859375 C 612.148438 373.707031 609.703125 369.628906 607.140625 365.621094 C 604.578125 361.613281 601.898438 357.6875 599.101562 353.839844 C 596.304688 349.992188 593.394531 346.230469 590.375 342.554688 C 587.355469 338.878906 584.226562 335.300781 580.992188 331.808594 C 577.757812 328.320312 574.425781 324.933594 570.988281 321.640625 C 567.554688 318.351562 564.023438 315.164062 560.402344 312.085938 C 556.777344 309.003906 553.0625 306.035156 549.261719 303.175781 C 545.460938 300.316406 541.578125 297.570312 537.613281 294.941406 C 533.648438 292.3125 529.609375 289.804688 525.496094 287.414062 C 521.382812 285.027344 517.203125 282.761719 512.953125 280.621094 C 508.707031 278.480469 504.398438 276.46875 500.03125 274.585938 C 495.664062 272.703125 491.242188 270.949219 486.769531 269.328125 C 482.300781 267.707031 477.785156 266.21875 473.222656 264.867188 Z M 404.972656 704.960938 C 401.535156 704.960938 398.101562 704.875 394.667969 704.707031 C 391.234375 704.539062 387.808594 704.285156 384.390625 703.949219 C 380.96875 703.613281 377.558594 703.191406 374.160156 702.6875 C 370.757812 702.183594 367.375 701.597656 364.003906 700.925781 C 360.632812 700.253906 357.28125 699.503906 353.945312 698.667969 C 350.613281 697.832031 347.300781 696.914062 344.011719 695.917969 C 340.722656 694.921875 337.460938 693.84375 334.226562 692.683594 C 330.988281 691.527344 327.785156 690.289062 324.609375 688.976562 C 321.433594 687.660156 318.292969 686.269531 315.1875 684.796875 C 312.078125 683.328125 309.011719 681.785156 305.980469 680.164062 C 302.949219 678.542969 299.957031 676.851562 297.011719 675.082031 C 294.0625 673.316406 291.160156 671.480469 288.304688 669.570312 C 285.445312 667.660156 282.636719 665.683594 279.875 663.632812 C 277.117188 661.585938 274.40625 659.472656 271.75 657.292969 C 269.09375 655.113281 266.492188 652.867188 263.945312 650.5625 C 261.398438 648.253906 258.910156 645.882812 256.480469 643.453125 C 254.050781 641.023438 251.679688 638.535156 249.371094 635.988281 C 247.066406 633.441406 244.820312 630.839844 242.640625 628.183594 C 240.460938 625.527344 238.347656 622.820312 236.300781 620.058594 C 234.25 617.296875 232.273438 614.488281 230.363281 611.632812 C 228.453125 608.773438 226.617188 605.871094 224.851562 602.921875 C 223.082031 599.976562 221.390625 596.988281 219.769531 593.957031 C 218.148438 590.925781 216.605469 587.855469 215.136719 584.75 C 213.664062 581.640625 212.273438 578.5 210.957031 575.324219 C 209.644531 572.152344 208.40625 568.945312 207.25 565.710938 C 206.089844 562.472656 205.011719 559.210938 204.015625 555.921875 C 203.019531 552.632812 202.101562 549.324219 201.265625 545.988281 C 200.429688 542.65625 199.679688 539.304688 199.007812 535.933594 C 198.335938 532.5625 197.75 529.175781 197.246094 525.777344 C 196.742188 522.378906 196.320312 518.96875 195.984375 515.546875 C 195.648438 512.125 195.394531 508.699219 195.226562 505.269531 C 195.058594 501.835938 194.972656 498.402344 194.972656 494.964844 C 194.972656 491.527344 195.058594 488.09375 195.226562 484.660156 C 195.394531 481.226562 195.648438 477.800781 195.984375 474.378906 C 196.320312 470.960938 196.742188 467.550781 197.246094 464.152344 C 197.75 460.75 198.335938 457.367188 199.007812 453.996094 C 199.679688 450.625 200.429688 447.273438 201.265625 443.9375 C 202.101562 440.605469 203.019531 437.292969 204.015625 434.003906 C 205.011719 430.714844 206.089844 427.453125 207.25 424.21875 C 208.40625 420.980469 209.644531 417.777344 210.957031 414.601562 C 212.273438 411.425781 213.664062 408.285156 215.136719 405.179688 C 216.605469 402.070312 218.148438 399.003906 219.769531 395.972656 C 221.390625 392.941406 223.082031 389.953125 224.851562 387.003906 C 226.617188 384.054688 228.453125 381.152344 230.363281 378.296875 C 232.273438 375.4375 234.25 372.628906 236.300781 369.867188 C 238.347656 367.109375 240.460938 364.398438 242.640625 361.742188 C 244.820312 359.085938 247.066406 356.484375 249.371094 353.9375 C 251.679688 351.390625 254.050781 348.902344 256.480469 346.472656 C 258.910156 344.042969 261.398438 341.675781 263.945312 339.367188 C 266.492188 337.058594 269.09375 334.8125 271.75 332.632812 C 274.40625 330.453125 277.117188 328.339844 279.875 326.292969 C 282.636719 324.246094 285.445312 322.265625 288.304688 320.359375 C 291.160156 318.449219 294.0625 316.609375 297.011719 314.84375 C 299.960938 313.078125 302.949219 311.382812 305.980469 309.761719 C 309.011719 308.144531 312.078125 306.597656 315.1875 305.128906 C 318.292969 303.660156 321.433594 302.265625 324.609375 300.953125 C 327.785156 299.636719 330.988281 298.398438 334.226562 297.242188 C 337.460938 296.085938 340.722656 295.007812 344.011719 294.007812 C 347.300781 293.011719 350.613281 292.09375 353.945312 291.261719 C 357.28125 290.425781 360.632812 289.671875 364.003906 289 C 367.375 288.332031 370.757812 287.742188 374.160156 287.238281 C 377.558594 286.734375 380.96875 286.316406 384.390625 285.976562 C 387.808594 285.640625 391.234375 285.386719 394.667969 285.21875 C 398.101562 285.050781 401.535156 284.964844 404.972656 284.964844 C 408.410156 284.964844 411.84375 285.050781 415.277344 285.21875 C 418.710938 285.386719 422.136719 285.640625 425.554688 285.976562 C 428.976562 286.316406 432.386719 286.734375 435.785156 287.238281 C 439.1875 287.742188 442.570312 288.332031 445.941406 289 C 449.3125 289.671875 452.664062 290.425781 456 291.261719 C 459.332031 292.09375 462.644531 293.011719 465.933594 294.007812 C 469.222656 295.007812 472.484375 296.085938 475.71875 297.242188 C 478.957031 298.398438 482.160156 299.636719 485.335938 300.953125 C 488.511719 302.265625 491.652344 303.660156 494.757812 305.128906 C 497.867188 306.597656 500.933594 308.144531 503.964844 309.761719 C 506.996094 311.382812 509.988281 313.078125 512.933594 314.84375 C 515.882812 316.609375 518.785156 318.449219 521.640625 320.359375 C 524.5 322.265625 527.308594 324.246094 530.070312 326.292969 C 532.828125 328.339844 535.539062 330.453125 538.195312 332.632812 C 540.851562 334.8125 543.453125 337.058594 546 339.367188 C 548.546875 341.675781 551.035156 344.042969 553.464844 346.472656 C 555.894531 348.902344 558.265625 351.390625 560.574219 353.9375 C 562.878906 356.484375 565.125 359.085938 567.304688 361.742188 C 569.484375 364.398438 571.597656 367.109375 573.644531 369.867188 C 575.695312 372.628906 577.671875 375.4375 579.582031 378.296875 C 581.492188 381.152344 583.328125 384.054688 585.09375 387.003906 C 586.863281 389.953125 588.554688 392.941406 590.175781 395.972656 C 591.796875 399.003906 593.339844 402.070312 594.808594 405.179688 C 596.28125 408.285156 597.671875 411.425781 598.988281 414.601562 C 600.300781 417.777344 601.539062 420.980469 602.695312 424.21875 C 603.855469 427.453125 604.933594 430.714844 605.929688 434.003906 C 606.929688 437.292969 607.84375 440.605469 608.679688 443.9375 C 609.515625 447.273438 610.265625 450.625 610.9375 453.996094 C 611.609375 457.367188 612.195312 460.75 612.699219 464.152344 C 613.203125 467.550781 613.625 470.960938 613.960938 474.378906 C 614.296875 477.800781 614.550781 481.226562 614.71875 484.660156 C 614.886719 488.09375 614.972656 491.527344 614.972656 494.964844 C 614.96875 498.398438 614.882812 501.832031 614.710938 505.265625 C 614.539062 508.695312 614.28125 512.121094 613.941406 515.539062 C 613.601562 518.957031 613.179688 522.367188 612.671875 525.765625 C 612.164062 529.164062 611.574219 532.546875 610.902344 535.917969 C 610.226562 539.285156 609.472656 542.636719 608.636719 545.96875 C 607.796875 549.300781 606.878906 552.609375 605.878906 555.898438 C 604.878906 559.183594 603.800781 562.445312 602.640625 565.679688 C 601.480469 568.914062 600.242188 572.117188 598.925781 575.292969 C 597.609375 578.464844 596.21875 581.605469 594.746094 584.710938 C 593.277344 587.816406 591.730469 590.882812 590.109375 593.910156 C 588.488281 596.941406 586.796875 599.929688 585.027344 602.875 C 583.261719 605.820312 581.421875 608.722656 579.511719 611.578125 C 577.601562 614.433594 575.625 617.242188 573.578125 620 C 571.53125 622.761719 569.417969 625.46875 567.234375 628.125 C 565.054688 630.78125 562.8125 633.378906 560.503906 635.925781 C 558.199219 638.472656 555.828125 640.957031 553.398438 643.386719 C 550.96875 645.816406 548.480469 648.1875 545.9375 650.492188 C 543.390625 652.800781 540.789062 655.042969 538.136719 657.226562 C 535.480469 659.40625 532.773438 661.519531 530.011719 663.566406 C 527.253906 665.613281 524.445312 667.589844 521.589844 669.5 C 518.734375 671.410156 515.832031 673.25 512.886719 675.015625 C 509.9375 676.785156 506.949219 678.476562 503.921875 680.097656 C 500.890625 681.71875 497.824219 683.265625 494.71875 684.734375 C 491.613281 686.207031 488.476562 687.597656 485.300781 688.914062 C 482.128906 690.230469 478.925781 691.46875 475.691406 692.628906 C 472.457031 693.789062 469.195312 694.867188 465.90625 695.867188 C 462.621094 696.867188 459.3125 697.785156 455.976562 698.625 C 452.644531 699.460938 449.296875 700.214844 445.925781 700.886719 C 442.558594 701.5625 439.171875 702.152344 435.773438 702.660156 C 432.375 703.164062 428.96875 703.589844 425.550781 703.929688 C 422.128906 704.269531 418.707031 704.523438 415.273438 704.695312 C 411.84375 704.871094 408.410156 704.957031 404.972656 704.960938 Z M 404.972656 704.960938"/></g><path fill="#FFF" d="M 371.671875 227.066406 L 334.773438 134.96875 L 271.171875 134.96875 L 348.121094 231.117188 C 355.894531 229.304688 363.742188 227.953125 371.671875 227.066406 Z M 371.671875 227.066406"/><path fill="#FFF" d="M 538.773438 134.96875 L 475.171875 134.96875 L 438.273438 227.066406 C 446.203125 227.953125 454.050781 229.304688 461.824219 231.117188 Z M 538.773438 134.96875"/><g clip-path="url(#b)"><path fill="#FFF" d="M 368.671875 74.96875 L 306.121094 74.96875 L 276.121094 104.96875 L 338.671875 104.96875 Z M 368.671875 74.96875"/></g><g clip-path="url(#c)"><path fill="#FFF" d="M 533.824219 104.96875 L 503.824219 74.96875 L 441.273438 74.96875 L 471.273438 104.96875 Z M 533.824219 104.96875"/></g><path fill="#FFF" d="M 404.972656 81.121094 L 381.121094 104.96875 L 428.824219 104.96875 Z M 404.972656 81.121094"/><path fill="#FFF" d="M 403.171875 224.96875 L 406.773438 224.96875 L 442.921875 134.96875 L 367.023438 134.96875 Z M 403.171875 224.96875"/></svg>