<svg xmlns="http://www.w3.org/2000/svg" width="810" viewBox="0 0 810 810" height="810" version="1.0"><defs><clipPath id="a"><path d="M 75 320 L 735 320 L 735 723.183594 L 75 723.183594 Z M 75 320"/></clipPath></defs><g clip-path="url(#a)"><path fill="#FFF" d="M 625.972656 581.28125 L 597.832031 581.28125 C 592.816406 581.28125 587.84375 580.816406 582.960938 579.882812 C 586.132812 575.023438 589.117188 570.070312 591.917969 565.039062 C 593.347656 565.132812 594.773438 565.195312 596.183594 565.195312 L 613.886719 565.195312 C 653.984375 565.195312 686.605469 530.332031 686.605469 487.488281 C 686.605469 448.078125 659.003906 415.453125 623.378906 410.464844 L 623.378906 393.695312 L 625.972656 393.695312 C 673.328125 393.695312 711.859375 435.769531 711.859375 487.488281 C 711.859375 539.207031 673.328125 581.28125 625.972656 581.28125 Z M 373.316406 670.699219 L 325.113281 670.699219 C 199.882812 670.699219 98 568.738281 98 443.414062 L 98 399.273438 L 600.425781 399.273438 L 600.425781 443.414062 C 600.425781 446.125 600.359375 448.824219 600.269531 451.523438 C 600.25 451.917969 600.238281 452.3125 600.21875 452.699219 C 600.207031 453.128906 600.1875 453.554688 600.167969 453.972656 C 600.0625 456.234375 599.929688 458.492188 599.761719 460.738281 C 599.742188 460.976562 599.730469 461.214844 599.710938 461.445312 C 599.648438 462.269531 599.566406 463.089844 599.492188 463.90625 C 599.355469 465.457031 599.199219 467 599.035156 468.535156 C 598.472656 473.597656 597.761719 478.609375 596.878906 483.5625 C 596.871094 483.585938 596.871094 483.613281 596.867188 483.644531 C 577.832031 589.84375 484.832031 670.699219 373.316406 670.699219 Z M 600.425781 343.277344 L 600.425781 376.304688 L 98 376.304688 L 98 343.277344 Z M 621.234375 476.191406 C 621.328125 475.472656 621.414062 474.753906 621.503906 474.03125 C 621.699219 472.445312 621.886719 470.851562 622.046875 469.257812 C 622.28125 467 622.488281 464.738281 622.65625 462.46875 C 622.726562 461.539062 622.777344 460.605469 622.839844 459.675781 C 622.953125 457.808594 623.058594 455.925781 623.132812 454.042969 C 623.171875 453.191406 623.207031 452.332031 623.234375 451.472656 C 623.320312 448.792969 623.378906 446.113281 623.378906 443.414062 L 623.378906 433.75 C 646.296875 438.636719 663.65625 460.875 663.65625 487.488281 C 663.65625 517.671875 641.324219 542.226562 613.886719 542.226562 L 603.148438 542.226562 C 612.1875 521.214844 618.261719 499.058594 621.234375 476.191406 Z M 734.808594 487.488281 C 734.808594 423.109375 685.984375 370.730469 625.972656 370.730469 L 623.378906 370.730469 L 623.378906 320.3125 L 75.050781 320.3125 L 75.050781 443.414062 C 75.050781 554.222656 147.398438 648.425781 247.300781 681.246094 L 223.753906 717.976562 C 221.898438 720.875 223.191406 723.246094 226.640625 723.246094 L 470.734375 723.246094 C 474.175781 723.246094 475.503906 720.855469 473.691406 717.925781 L 450.960938 681.292969 C 497.589844 666.019531 538.226562 637.367188 568.316406 599.882812 C 577.882812 602.773438 587.769531 604.246094 597.832031 604.246094 L 625.972656 604.246094 C 685.984375 604.246094 734.808594 551.867188 734.808594 487.488281"/></g><path fill="#FFF" d="M 272.921875 91.375 C 268.144531 87.203125 260.898438 87.679688 256.730469 92.453125 C 250.375 99.726562 242.21875 121.539062 240.117188 144.105469 C 238.054688 166.265625 240.824219 197.777344 265.703125 222.03125 C 275.746094 231.824219 280.652344 241.703125 280.296875 251.398438 C 279.738281 266.523438 266.742188 277.742188 266.390625 278.042969 C 261.527344 282.070312 260.832031 289.277344 264.835938 294.164062 C 267.105469 296.933594 270.398438 298.367188 273.714844 298.367188 C 276.277344 298.367188 278.855469 297.515625 280.984375 295.757812 C 281.851562 295.054688 302.128906 278.117188 303.222656 252.53125 C 303.921875 235.984375 296.6875 220.1875 281.71875 205.582031 C 245.503906 170.265625 270.699219 111.851562 274 107.578125 C 278.171875 102.804688 277.6875 95.554688 272.921875 91.375"/><path fill="#FFF" d="M 345.628906 91.375 C 340.859375 87.203125 333.621094 87.679688 329.4375 92.453125 C 323.085938 99.726562 314.925781 121.539062 312.832031 144.105469 C 310.769531 166.265625 313.535156 197.777344 338.414062 222.03125 C 348.457031 231.824219 353.367188 241.703125 353.007812 251.398438 C 352.453125 266.523438 339.457031 277.742188 339.097656 278.042969 C 334.238281 282.070312 333.542969 289.277344 337.550781 294.164062 C 339.820312 296.933594 343.109375 298.367188 346.425781 298.367188 C 348.992188 298.367188 351.566406 297.515625 353.699219 295.757812 C 354.5625 295.054688 374.84375 278.117188 375.933594 252.53125 C 376.636719 235.984375 369.402344 220.1875 354.433594 205.582031 C 318.214844 170.265625 343.410156 111.851562 346.714844 107.578125 C 350.882812 102.804688 350.402344 95.554688 345.628906 91.375"/><path fill="#FFF" d="M 428.511719 91.375 C 423.742188 87.203125 416.496094 87.679688 412.320312 92.453125 C 405.964844 99.726562 397.808594 121.539062 395.707031 144.105469 C 393.644531 166.265625 396.414062 197.777344 421.289062 222.03125 C 431.332031 231.824219 436.25 241.703125 435.886719 251.398438 C 435.328125 266.523438 422.332031 277.742188 421.980469 278.042969 C 417.117188 282.070312 416.421875 289.277344 420.433594 294.164062 C 422.703125 296.933594 425.992188 298.367188 429.300781 298.367188 C 431.867188 298.367188 434.441406 297.515625 436.582031 295.757812 C 437.441406 295.054688 457.71875 278.117188 458.8125 252.53125 C 459.519531 235.984375 452.285156 220.1875 437.308594 205.582031 C 401.09375 170.265625 426.289062 111.851562 429.589844 107.578125 C 433.765625 102.804688 433.285156 95.554688 428.511719 91.375"/></svg>