<svg xmlns="http://www.w3.org/2000/svg" width="810" viewBox="0 0 810 810" height="810" version="1.0"><defs><clipPath id="a"><path d="M 85.125 120 L 262 120 L 262 297 L 85.125 297 Z M 85.125 120"/></clipPath></defs><path fill="#FFF" d="M 622.464844 231.21875 L 550.351562 333.679688 L 523.632812 333.679688 L 573.652344 231.21875 Z M 291.277344 333.679688 L 219.171875 231.21875 L 554.652344 231.21875 L 504.617188 333.679688 Z M 721.671875 183.167969 L 640.3125 80.183594 C 638.558594 77.988281 636.082031 76.96875 633.566406 77.242188 C 631.0625 77.59375 628.835938 79.363281 627.53125 81.992188 L 566.097656 207.78125 L 173.339844 207.78125 L 412.007812 546.878906 L 412.007812 693.457031 L 412.121094 693.570312 L 341.402344 726.480469 C 339.113281 728.347656 340.183594 732.753906 342.925781 732.753906 L 498.824219 732.753906 C 501.570312 732.753906 502.636719 728.347656 500.347656 726.480469 L 429.628906 693.570312 L 429.628906 546.878906 L 668.296875 207.78125 L 585.097656 207.78125 L 636.019531 103.503906 L 710.039062 197.222656 C 713.152344 201.148438 718.300781 201.339844 721.542969 197.375 C 724.75 193.53125 724.824219 187.132812 721.671875 183.167969"/><g clip-path="url(#a)"><path fill="#FFF" d="M 216.839844 260.078125 C 215.441406 261.25 214 262.386719 212.511719 263.4375 C 202.941406 270.25 191.535156 274.613281 179.179688 275.683594 L 179.179688 222.429688 Z M 179.179688 141.042969 C 193.464844 142.257812 206.480469 147.917969 216.839844 156.625 L 179.179688 194.273438 Z M 240.679688 202.53125 L 187.433594 202.53125 L 225.089844 164.875 C 233.800781 175.234375 239.464844 188.242188 240.679688 202.53125 Z M 167.503906 194.273438 L 129.84375 156.625 C 140.195312 147.917969 153.234375 142.257812 167.503906 141.042969 Z M 167.503906 275.683594 C 153.234375 274.445312 140.195312 268.808594 129.84375 260.078125 L 167.503906 222.429688 Z M 105.996094 214.199219 L 159.265625 214.199219 L 121.609375 251.84375 C 112.871094 241.472656 107.234375 228.460938 105.996094 214.199219 Z M 121.609375 164.875 L 159.265625 202.53125 L 105.996094 202.53125 C 107.234375 188.242188 112.871094 175.234375 121.609375 164.875 Z M 173.347656 120.195312 C 124.632812 120.195312 85.140625 159.675781 85.140625 208.351562 C 85.140625 257.054688 124.632812 296.535156 173.347656 296.535156 C 192.378906 296.535156 209.976562 290.527344 224.375 280.292969 C 230.988281 275.578125 236.929688 269.984375 242 263.679688 L 229.523438 245.941406 C 228.164062 248 226.675781 249.953125 225.089844 251.84375 L 187.433594 214.199219 L 240.679688 214.199219 C 240.1875 220.132812 238.910156 225.847656 236.957031 231.21875 L 258.535156 231.21875 C 260.488281 223.933594 261.542969 216.253906 261.542969 208.351562 L 261.542969 207.78125 C 261.230469 159.359375 221.859375 120.195312 173.347656 120.195312"/></g></svg>