<svg xmlns="http://www.w3.org/2000/svg" width="810" viewBox="0 0 810 810" height="810" version="1.0"><defs><clipPath id="a"><path d="M 142.886719 173 L 667 173 L 667 769 L 142.886719 769 Z M 142.886719 173"/></clipPath></defs><g clip-path="url(#a)"><path fill="#FFF" d="M 213.429688 517.078125 C 204.398438 499.148438 201.085938 476.113281 204.539062 455.203125 L 230.882812 261.910156 L 373.710938 282.347656 L 338.003906 487.890625 C 331.335938 528.195312 293.3125 557.003906 255.050781 550.570312 C 232.726562 546.929688 220.101562 530.324219 213.429688 517.078125 Z M 384.304688 221.558594 L 377.875 258.457031 L 234.148438 237.929688 L 239.207031 200.839844 Z M 569.605469 200.839844 L 574.667969 237.929688 L 430.9375 258.457031 L 424.507812 221.558594 Z M 595.382812 517.078125 C 588.714844 530.324219 576.085938 546.929688 553.761719 550.570312 C 515.546875 556.957031 477.476562 528.195312 470.808594 487.796875 L 435.101562 282.347656 L 577.976562 261.910156 L 604.367188 455.535156 C 607.726562 476.113281 604.414062 499.148438 595.382812 517.078125 Z M 315.304688 744.335938 L 242.421875 733.882812 L 263.5625 575.5 C 264.414062 575.550781 265.3125 575.738281 266.210938 575.738281 C 312.511719 575.738281 353.800781 540.777344 361.839844 491.960938 L 404.40625 247.199219 L 446.972656 491.863281 C 455.011719 540.777344 496.300781 575.738281 542.601562 575.738281 C 543.5 575.738281 544.398438 575.550781 545.25 575.5 L 566.390625 733.882812 L 493.507812 744.335938 L 496.914062 768.273438 L 666.417969 744.050781 L 663.011719 720.113281 L 590.320312 730.476562 L 569.179688 571.527344 C 589.28125 564.859375 606.070312 549.765625 616.996094 527.960938 C 628.441406 505.253906 632.507812 477.4375 628.300781 451.890625 L 590.320312 173.402344 L 404.40625 199.988281 L 218.492188 173.402344 L 180.609375 451.5625 C 176.304688 477.4375 180.371094 505.253906 191.816406 527.960938 C 202.742188 549.765625 219.53125 564.859375 239.632812 571.527344 L 218.492188 730.476562 L 145.800781 720.113281 L 142.394531 744.050781 L 311.898438 768.273438 L 315.304688 744.335938"/></g><path fill="#FFF" d="M 422.566406 41.796875 L 398.351562 41.796875 L 398.351562 126.570312 L 422.566406 126.570312 L 422.566406 41.796875"/><path fill="#FFF" d="M 336.066406 132.4375 L 299.742188 71.886719 L 279.027344 84.375 L 315.351562 144.925781 L 336.066406 132.4375"/><path fill="#FFF" d="M 529.785156 84.375 L 509.070312 71.886719 L 472.746094 132.4375 L 493.460938 144.925781 L 529.785156 84.375"/><path fill="#FFF" d="M 277.277344 453.546875 C 283.949219 453.546875 289.386719 448.105469 289.386719 441.4375 C 289.386719 434.765625 283.949219 429.328125 277.277344 429.328125 L 253.0625 429.328125 C 246.394531 429.328125 240.957031 434.765625 240.957031 441.4375 C 240.957031 448.105469 246.394531 453.546875 253.0625 453.546875 L 277.277344 453.546875"/><path fill="#FFF" d="M 265.171875 501.988281 L 289.386719 501.988281 C 296.054688 501.988281 301.492188 496.546875 301.492188 489.878906 C 301.492188 483.207031 296.054688 477.769531 289.386719 477.769531 L 265.171875 477.769531 C 258.503906 477.769531 253.0625 483.207031 253.0625 489.878906 C 253.0625 496.546875 258.503906 501.988281 265.171875 501.988281"/><path fill="#FFF" d="M 519.425781 441.4375 L 495.210938 441.4375 C 488.542969 441.4375 483.105469 446.878906 483.105469 453.546875 C 483.105469 460.21875 488.542969 465.65625 495.210938 465.65625 L 519.425781 465.65625 C 526.09375 465.65625 531.535156 460.21875 531.535156 453.546875 C 531.535156 446.878906 526.09375 441.4375 519.425781 441.4375"/><path fill="#FFF" d="M 567.855469 477.769531 L 543.640625 477.769531 C 536.972656 477.769531 531.535156 483.207031 531.535156 489.878906 C 531.535156 496.546875 536.972656 501.988281 543.640625 501.988281 L 567.855469 501.988281 C 574.523438 501.988281 579.964844 496.546875 579.964844 489.878906 C 579.964844 483.207031 574.523438 477.769531 567.855469 477.769531"/></svg>