<svg xmlns="http://www.w3.org/2000/svg" width="810" viewBox="0 0 810 810" height="810" version="1.0"><defs><clipPath id="a"><path d="M 67.296875 120.898438 L 742.980469 120.898438 L 742.980469 689.398438 L 67.296875 689.398438 Z M 67.296875 120.898438"/></clipPath></defs><g clip-path="url(#a)"><path fill="#FFF" d="M 732.214844 626.671875 C 731.671875 633.777344 727.417969 638.742188 719.734375 641.421875 C 655.695312 661.28125 534.425781 678.671875 459.417969 678.777344 C 459.164062 678.734375 458.914062 678.714844 458.640625 678.714844 C 458.515625 678.714844 458.410156 678.714844 458.308594 678.714844 C 396.070312 678.714844 356.804688 657.511719 334.714844 611.863281 L 238.300781 429.679688 C 225.589844 403.347656 205.507812 379.210938 183.207031 363.4375 C 179.539062 360.210938 133.617188 320.027344 78.25 284.414062 C 84.511719 210.0625 118.558594 158.105469 140.214844 141.136719 C 153.59375 130.660156 162.808594 125.214844 182.515625 144.195312 C 253.503906 212.511719 372.972656 394.945312 419.253906 505.6875 C 427.773438 526.09375 447.667969 539.269531 469.929688 539.269531 C 469.972656 539.269531 470.035156 539.269531 470.074219 539.269531 C 487.371094 539.226562 500.105469 537.59375 511.328125 533.949219 C 520.753906 530.890625 529.902344 530.765625 537.085938 533.550781 L 687.464844 592.628906 C 707.148438 599.207031 711.128906 601.34375 720.71875 606.519531 L 724.152344 608.363281 C 728.464844 610.667969 732.84375 618.753906 732.214844 626.671875 Z M 126.265625 405.191406 L 126.265625 678.714844 L 104.824219 678.714844 L 104.824219 512.453125 C 104.824219 411.914062 88.320312 330.0625 81.117188 299.121094 C 119.0625 324.261719 151.417969 350.550781 166.765625 363.476562 C 145.53125 367.25 126.957031 380.511719 126.265625 405.191406 Z M 729.21875 598.914062 L 725.808594 597.070312 C 715.921875 591.75 711.421875 589.320312 691.109375 582.554688 L 540.980469 523.558594 C 531.476562 519.871094 519.769531 519.933594 508.019531 523.746094 C 497.757812 527.078125 486.410156 528.523438 470.054688 528.542969 C 470.011719 528.542969 469.972656 528.542969 469.929688 528.542969 C 452.003906 528.542969 436.003906 517.964844 429.136719 501.539062 C 382.4375 389.792969 261.734375 205.558594 189.949219 136.464844 C 164.628906 112.078125 148.839844 120.773438 133.597656 132.691406 C 110.121094 151.066406 73.097656 207.273438 67.316406 286.824219 C 67.253906 287.386719 67.339844 287.953125 67.484375 288.5 C 67.484375 288.539062 67.484375 288.601562 67.484375 288.644531 C 67.757812 289.609375 94.101562 386.042969 94.101562 512.453125 L 94.101562 678.714844 C 94.101562 684.621094 98.898438 689.441406 104.824219 689.441406 L 126.265625 689.441406 C 132.171875 689.441406 136.988281 684.621094 136.988281 678.714844 L 136.988281 405.359375 C 137.636719 382.1875 159.164062 373.554688 178.136719 373.074219 C 198.554688 387.84375 216.921875 410.050781 228.75 434.519531 L 325.144531 616.703125 C 348.742188 665.453125 392.050781 689.25 457.53125 689.441406 C 457.929688 689.503906 458.328125 689.503906 458.726562 689.503906 C 534.53125 689.503906 657.851562 671.84375 723.085938 651.605469 C 739.125 646.03125 742.390625 634.109375 742.914062 627.511719 C 743.816406 616.050781 737.785156 603.503906 729.21875 598.914062"/></g></svg>