<svg xmlns="http://www.w3.org/2000/svg" width="810" viewBox="0 0 810 810" height="810" version="1.0"><defs><clipPath id="a"><path d="M 81 192.1875 L 729 192.1875 L 729 618.039062 L 81 618.039062 Z M 81 192.1875"/></clipPath></defs><g clip-path="url(#a)"><path fill="#FFF" d="M 643.972656 206.691406 C 669.402344 207.039062 693.792969 216.363281 713.007812 233 C 715.136719 234.957031 715.308594 238.292969 713.351562 240.480469 C 713.066406 240.769531 712.777344 241.058594 712.433594 241.289062 C 685.335938 263.160156 655.421875 281.351562 623.550781 295.339844 L 536.335938 334.65625 C 534.035156 335.691406 532.136719 337.589844 531.042969 339.953125 L 426.226562 569.511719 C 416.277344 584.941406 401.546875 596.683594 384.230469 602.898438 L 418.519531 406.089844 C 419.554688 400.277344 415.699219 394.75 409.890625 393.714844 C 407.820312 393.371094 405.632812 393.65625 403.675781 394.519531 L 313.53125 435.21875 C 266.472656 456.460938 215.15625 466.589844 163.554688 464.863281 C 155.84375 464.632812 148.941406 460.144531 145.605469 453.179688 L 96.128906 349.621094 C 94.402344 346.054688 95.898438 341.734375 99.464844 340.007812 C 101.710938 338.972656 104.355469 339.085938 106.425781 340.410156 L 188.347656 391.875 C 193.640625 395.210938 200.257812 395.671875 206.007812 393.082031 L 335.851562 334.484375 C 341.199219 332.066406 343.558594 325.789062 341.144531 320.4375 C 340.339844 318.539062 338.898438 316.925781 337.175781 315.832031 L 223.09375 243.300781 C 241.621094 233.574219 262.90625 230.523438 283.386719 234.785156 L 436.179688 286.070312 C 438.710938 286.933594 441.53125 286.820312 444.003906 285.726562 L 598.007812 216.191406 C 612.390625 209.742188 628.039062 206.460938 643.800781 206.691406 Z M 643.972656 192.300781 C 626.140625 192.015625 608.363281 195.699219 592.082031 203.066406 L 439.402344 271.96875 L 287.183594 220.851562 C 262.214844 215.441406 236.152344 219.355469 213.890625 231.847656 C 207.675781 235.359375 205.433594 243.246094 208.941406 249.460938 C 209.980469 251.363281 211.472656 252.914062 213.257812 254.125 L 323.539062 324.238281 L 200.082031 379.957031 C 198.761719 380.535156 197.265625 380.476562 196 379.667969 L 114.136719 328.207031 C 104.011719 321.875 90.664062 324.925781 84.335938 335 C 80.367188 341.273438 79.90625 349.160156 83.128906 355.839844 L 132.660156 459.394531 C 138.242188 471.195312 149.976562 478.851562 163.035156 479.3125 C 216.824219 481.097656 270.324219 470.503906 319.398438 448.398438 L 403.101562 410.582031 L 369.5625 602.898438 C 368.355469 609.921875 373.070312 616.65625 380.089844 617.867188 C 382.21875 618.210938 384.347656 618.097656 386.359375 617.40625 C 408.164062 610.269531 426.6875 595.761719 438.882812 576.421875 L 543.527344 347.203125 L 629.359375 308.523438 C 662.324219 294.015625 693.273438 275.25 721.292969 252.628906 C 729.921875 246.007812 731.53125 233.632812 724.914062 224.996094 C 724.109375 223.960938 723.191406 222.984375 722.210938 222.121094 C 700.464844 203.238281 672.738281 192.703125 643.914062 192.300781 L 643.972656 192.300781"/></g></svg>