<svg xmlns="http://www.w3.org/2000/svg" width="810" viewBox="0 0 810 810" height="810" version="1.0"><defs><clipPath id="a"><path d="M 332 202 L 758 202 L 758 758.804688 L 332 758.804688 Z M 332 202"/></clipPath><clipPath id="b"><path d="M 52 338 L 398 338 L 398 758.804688 L 52 758.804688 Z M 52 338"/></clipPath></defs><path fill="#FFF" d="M 454.425781 87.316406 C 448.992188 81.59375 441.671875 78.679688 434.292969 78.679688 C 429.03125 78.679688 423.710938 80.164062 419.023438 83.195312 L 410.5 88.800781 C 406.839844 91.148438 402.148438 91.148438 398.488281 88.800781 L 389.964844 83.195312 C 378.753906 75.875 363.882812 77.589844 354.617188 87.316406 C 344.550781 97.839844 344.207031 113.96875 353.242188 124.324219 L 404.492188 174.371094 L 455.226562 124.894531 C 464.835938 113.96875 464.496094 97.839844 454.425781 87.316406 Z M 412.15625 197.59375 C 410.042969 199.652344 407.296875 200.683594 404.492188 200.683594 C 401.746094 200.683594 399.003906 199.652344 396.828125 197.59375 L 337.285156 139.367188 C 320.183594 119.859375 320.753906 90.917969 338.714844 72.15625 C 355.300781 54.769531 381.898438 51.679688 401.976562 64.835938 L 404.492188 66.496094 L 407.066406 64.835938 C 427.144531 51.679688 453.742188 54.769531 470.328125 72.15625 C 488.289062 90.917969 488.859375 119.859375 471.128906 140.050781 L 412.15625 197.59375"/><path fill="#FFF" d="M 615.328125 156.410156 L 607.890625 154.867188 C 603.601562 153.953125 600.285156 150.632812 599.367188 146.402344 L 597.824219 138.910156 C 596.050781 130.5 588.617188 124.496094 580.035156 124.496094 C 579.863281 124.496094 579.75 124.496094 579.578125 124.496094 C 570.140625 124.664062 562.53125 131.988281 561.960938 140.625 L 562.53125 191.644531 L 612.8125 192.273438 C 622.25 191.703125 629.511719 184.09375 629.742188 174.601562 C 629.96875 165.847656 623.90625 158.242188 615.328125 156.410156 Z M 613.382812 214.238281 L 551.550781 213.496094 C 545.601562 213.4375 540.796875 208.632812 540.742188 202.628906 L 539.996094 139.996094 C 541.371094 119.117188 558.1875 103.042969 579.121094 102.53125 C 598.738281 102.53125 615.328125 115.457031 619.273438 134.390625 L 619.847656 134.90625 C 638.777344 138.910156 652.164062 155.78125 651.707031 175.113281 C 651.191406 196.050781 635.117188 212.867188 613.382812 214.238281"/><path fill="#FFF" d="M 229.40625 124.496094 C 220.542969 124.496094 213.050781 130.328125 211.21875 138.910156 L 209.675781 146.34375 C 208.757812 150.632812 205.441406 153.953125 201.152344 154.867188 L 193.714844 156.410156 C 185.136719 158.242188 179.074219 165.847656 179.300781 174.601562 C 179.53125 184.09375 186.796875 191.703125 195.433594 192.273438 L 246.453125 191.644531 L 247.140625 141.425781 C 246.511719 131.988281 238.902344 124.664062 229.40625 124.496094 Z M 257.433594 213.496094 L 194.804688 214.183594 C 173.925781 212.867188 157.796875 196.050781 157.335938 175.113281 C 156.878906 155.78125 170.265625 138.910156 189.199219 134.90625 L 189.769531 134.390625 C 193.714844 115.457031 210.820312 102.472656 229.921875 102.53125 C 250.859375 103.042969 267.675781 119.117188 269.046875 140.851562 L 268.304688 202.628906 C 268.246094 208.632812 263.441406 213.4375 257.433594 213.496094"/><g clip-path="url(#a)"><path fill="#FFF" d="M 395.800781 520.765625 C 397.113281 522.710938 428.746094 570.128906 449.621094 630.472656 C 451.511719 635.964844 453.167969 641.855469 454.597656 647.917969 L 639.523438 528.601562 C 644.613281 525.34375 651.363281 526.773438 654.679688 531.863281 C 657.996094 536.953125 656.511719 543.761719 651.417969 547.019531 L 459.289062 671.027344 C 462.492188 690.703125 464.207031 710.722656 465.066406 726.910156 C 465.351562 732.34375 469.128906 734.859375 470.730469 735.660156 C 472.332031 736.460938 476.5625 738.0625 481.140625 735.148438 L 556.8125 686.242188 C 556.871094 686.242188 556.871094 686.242188 556.871094 686.242188 L 655.308594 622.695312 C 655.308594 622.695312 655.367188 622.695312 655.367188 622.695312 L 731.039062 573.847656 C 735.617188 570.871094 735.902344 566.410156 735.789062 564.582031 C 735.730469 562.808594 734.988281 558.347656 730.183594 555.828125 C 705.300781 542.960938 670.980469 523.167969 648.675781 502.0625 C 602.230469 458.191406 572.085938 409.859375 570.941406 407.972656 C 551.035156 377.140625 517.460938 360.324219 483.253906 360.324219 C 463.921875 360.324219 444.359375 365.699219 426.914062 376.910156 C 378.695312 408.085938 364.738281 472.664062 395.800781 520.765625 Z M 602 710.265625 C 614.414062 712.953125 627.167969 710.609375 637.863281 703.6875 C 656.738281 691.5625 664.003906 668.226562 656.796875 647.863281 L 579.179688 698.023438 C 585.46875 704.03125 593.25 708.378906 602 710.265625 Z M 448.9375 258.511719 C 459.117188 235.859375 456.085938 226.023438 453.855469 224.992188 C 453.570312 224.878906 453.285156 224.820312 452.996094 224.820312 C 451.167969 224.820312 448.652344 226.707031 447.792969 227.394531 C 442.585938 231.570312 436.980469 239.921875 432.0625 250.960938 C 422.855469 271.550781 419.535156 291.398438 419.992188 300.550781 C 427.085938 294.773438 439.726562 279.101562 448.9375 258.511719 Z M 378.296875 250.960938 C 373.378906 239.921875 367.773438 231.570312 362.566406 227.394531 C 361.59375 226.59375 358.390625 224.132812 356.503906 224.992188 C 354.273438 226.023438 351.242188 235.859375 361.421875 258.511719 C 370.632812 279.101562 383.273438 294.773438 390.363281 300.550781 C 390.824219 291.398438 387.503906 271.550781 378.296875 250.960938 Z M 389.164062 352.375 C 391.910156 356.664062 396.199219 359.582031 401.175781 360.667969 C 406.09375 361.753906 411.242188 360.839844 415.53125 358.035156 C 419.824219 355.289062 422.796875 351 423.882812 346.023438 C 424.96875 341.046875 423.996094 335.902344 421.253906 331.667969 C 418.507812 327.378906 414.21875 324.402344 409.242188 323.316406 C 407.867188 323.03125 406.496094 322.917969 405.179688 322.917969 C 401.519531 322.917969 397.972656 323.945312 394.828125 325.949219 C 386.019531 331.667969 383.445312 343.507812 389.164062 352.375 Z M 390.078125 379.828125 C 382.414062 376.796875 375.492188 371.707031 370.6875 364.269531 C 360.621094 348.65625 362.679688 328.863281 374.179688 315.421875 C 371.546875 313.078125 368.914062 310.390625 366.171875 307.242188 C 357.019531 296.605469 347.753906 281.734375 341.347656 267.492188 C 320.695312 221.332031 340.832031 207.945312 347.523438 204.972656 C 352.84375 202.570312 363.652344 200.109375 376.292969 210.292969 C 384.417969 216.8125 391.851562 227.453125 398.316406 241.980469 C 400.375 246.5 402.835938 252.847656 405.179688 260.054688 C 407.523438 252.847656 409.984375 246.5 412.042969 241.980469 C 418.507812 227.453125 425.941406 216.8125 434.066406 210.292969 C 446.707031 200.109375 457.515625 202.570312 462.835938 204.972656 C 469.527344 207.945312 489.660156 221.332031 469.011719 267.492188 C 462.605469 281.734375 453.339844 296.605469 444.1875 307.242188 C 441.445312 310.390625 438.8125 313.078125 436.238281 315.421875 C 437.441406 316.796875 438.699219 318.167969 439.671875 319.714844 C 444.417969 327.09375 446.535156 335.558594 446.078125 344.078125 C 498.8125 327.777344 558.070312 347.511719 589.472656 396.246094 C 589.757812 396.703125 619.503906 444.234375 663.71875 486.105469 C 684.195312 505.4375 716.625 524.085938 740.25 536.324219 C 750.660156 541.703125 757.179688 551.882812 757.753906 563.550781 C 758.265625 575.21875 752.777344 585.914062 742.9375 592.265625 L 675.5 635.792969 C 689 666.507812 678.816406 703.402344 649.761719 722.164062 C 638.378906 729.542969 625.394531 733.316406 612.179688 733.316406 C 607.261719 733.316406 602.285156 732.800781 597.367188 731.714844 C 582.839844 728.625 570.140625 720.960938 560.417969 710.09375 L 493.035156 753.566406 C 487.660156 757.054688 481.597656 758.828125 475.476562 758.828125 C 470.5 758.828125 465.46875 757.625 460.777344 755.222656 C 450.367188 749.90625 443.789062 739.78125 443.160156 728.113281 C 441.730469 701.515625 438.070312 664.277344 428.859375 637.679688 C 408.953125 580.082031 377.894531 533.464844 377.4375 532.835938 C 345.863281 483.875 352.671875 421.125 390.078125 379.828125"/></g><g clip-path="url(#b)"><path fill="#FFF" d="M 172.496094 703.6875 C 183.191406 710.609375 195.945312 712.953125 208.359375 710.265625 C 217.109375 708.378906 224.890625 704.03125 231.179688 698.023438 L 153.5625 647.863281 C 146.355469 668.226562 153.621094 691.5625 172.496094 703.6875 Z M 70.109375 536.324219 C 93.734375 524.085938 126.164062 505.4375 146.640625 486.105469 C 190.855469 444.234375 220.597656 396.703125 220.941406 396.074219 C 247.824219 354.433594 296.902344 332.296875 345.863281 339.734375 C 351.871094 340.648438 355.988281 346.195312 355.074219 352.257812 C 354.214844 358.207031 348.667969 362.382812 342.605469 361.46875 C 302.109375 355.289062 261.609375 373.59375 239.53125 407.800781 C 238.273438 409.859375 208.128906 458.191406 161.742188 502.0625 C 139.378906 523.167969 105.058594 542.960938 80.175781 555.828125 C 75.371094 558.347656 74.628906 562.808594 74.570312 564.582031 C 74.457031 566.410156 74.800781 570.871094 79.320312 573.847656 L 154.992188 622.695312 C 155.050781 622.695312 155.050781 622.695312 155.050781 622.695312 L 253.488281 686.242188 C 253.488281 686.242188 253.488281 686.242188 253.546875 686.242188 L 329.21875 735.148438 C 333.796875 738.0625 338.027344 736.460938 339.628906 735.660156 C 341.230469 734.859375 345.007812 732.34375 345.292969 726.910156 C 346.152344 710.722656 347.867188 690.703125 351.070312 671.027344 L 158.9375 547.019531 C 153.847656 543.761719 152.363281 536.953125 155.679688 531.863281 C 158.996094 526.773438 165.746094 525.34375 170.835938 528.601562 L 355.761719 647.917969 C 357.191406 641.855469 358.847656 635.964844 360.734375 630.472656 C 365.082031 617.945312 370.230469 604.964844 376.121094 591.863281 C 378.582031 586.316406 385.101562 583.800781 390.59375 586.316406 C 396.140625 588.777344 398.601562 595.296875 396.140625 600.84375 C 390.535156 613.3125 385.617188 625.726562 381.5 637.679688 C 372.289062 664.277344 368.628906 701.515625 367.199219 728.113281 C 366.570312 739.78125 359.992188 749.90625 349.582031 755.222656 C 344.890625 757.625 339.859375 758.828125 334.882812 758.828125 C 328.761719 758.828125 322.699219 757.054688 317.324219 753.566406 L 249.941406 710.09375 C 240.21875 720.960938 227.519531 728.625 212.992188 731.714844 C 208.074219 732.800781 203.097656 733.316406 198.175781 733.316406 C 184.964844 733.316406 171.980469 729.542969 160.597656 722.164062 C 131.542969 703.402344 121.359375 666.507812 134.859375 635.792969 L 67.421875 592.265625 C 57.582031 585.914062 52.09375 575.21875 52.605469 563.550781 C 53.179688 551.882812 59.699219 541.703125 70.109375 536.324219"/></g><path fill="#FFF" d="M 356.21875 319.65625 C 352.898438 324.746094 346.152344 326.234375 341.003906 322.972656 C 340.773438 322.859375 317.207031 307.929688 289.808594 315.367188 C 275.511719 319.199219 263.441406 325.890625 251.773438 332.355469 C 238.046875 339.90625 225.117188 347.113281 210.304688 348.714844 C 208.246094 348.941406 206.242188 349 204.242188 349 C 178.273438 349 159.398438 331.210938 158.539062 330.410156 C 154.191406 326.175781 154.019531 319.253906 158.253906 314.851562 C 162.429688 310.503906 169.40625 310.332031 173.753906 314.566406 C 173.925781 314.679688 189.367188 328.980469 207.957031 326.863281 C 218.367188 325.777344 228.894531 319.886719 241.132812 313.136719 C 253.375 306.386719 267.214844 298.664062 284.089844 294.144531 C 320.753906 284.308594 351.585938 303.640625 352.898438 304.5 C 357.992188 307.757812 359.476562 314.566406 356.21875 319.65625"/><path fill="#FFF" d="M 606.117188 349 C 604.117188 349 602.113281 348.941406 600.054688 348.714844 C 585.242188 347.113281 572.3125 339.90625 558.585938 332.355469 C 546.917969 325.890625 534.847656 319.199219 520.550781 315.367188 C 493.664062 308.042969 469.871094 322.6875 469.300781 323.03125 C 464.207031 326.234375 457.460938 324.746094 454.140625 319.65625 C 450.882812 314.566406 452.367188 307.757812 457.460938 304.5 C 458.773438 303.640625 489.605469 284.308594 526.269531 294.144531 C 543.144531 298.664062 556.984375 306.386719 569.226562 313.136719 C 581.464844 319.886719 591.992188 325.777344 602.402344 326.863281 C 621.046875 329.035156 636.492188 314.679688 636.605469 314.566406 C 640.953125 310.332031 647.929688 310.503906 652.105469 314.851562 C 656.339844 319.253906 656.167969 326.175781 651.820312 330.410156 C 650.960938 331.210938 632.085938 349 606.117188 349"/></svg>