<svg xmlns="http://www.w3.org/2000/svg" width="810" viewBox="0 0 810 810" height="810" version="1.0"><defs><clipPath id="a"><path d="M 53.703125 156 L 756.453125 156 L 756.453125 653.898438 L 53.703125 653.898438 Z M 53.703125 156"/></clipPath></defs><g clip-path="url(#a)"><path fill="#FFF" d="M 639.328125 595.105469 C 671.683594 595.105469 697.597656 568.917969 697.597656 536.582031 L 697.890625 214.691406 C 697.890625 182.355469 671.683594 156.167969 639.328125 156.167969 L 170.828125 156.167969 C 138.472656 156.167969 112.265625 182.355469 112.265625 214.691406 L 112.265625 536.582031 C 112.265625 568.917969 138.472656 595.105469 170.828125 595.105469 L 53.703125 595.105469 C 53.703125 627.441406 79.910156 653.632812 112.265625 653.632812 L 697.890625 653.632812 C 730.246094 653.632812 756.453125 627.441406 756.453125 595.105469 Z M 170.828125 214.691406 L 639.328125 214.691406 L 639.328125 536.582031 L 170.828125 536.582031 Z M 405.078125 624.371094 C 388.972656 624.371094 375.796875 611.203125 375.796875 595.105469 C 375.796875 579.011719 388.972656 565.84375 405.078125 565.84375 C 421.183594 565.84375 434.359375 579.011719 434.359375 595.105469 C 434.359375 611.203125 421.183594 624.371094 405.078125 624.371094 Z M 405.078125 624.371094"/></g></svg>