<?xml version="1.0" encoding="UTF-8"?>
<svg width="213.94" height="270.36" version="1.1" viewBox="0 0 56.606204 71.532668" xmlns="http://www.w3.org/2000/svg" xmlns:cc="http://creativecommons.org/ns#" xmlns:dc="http://purl.org/dc/elements/1.1/" xmlns:rdf="http://www.w3.org/1999/02/22-rdf-syntax-ns#">
<metadata>
<rdf:RDF>
<cc:Work rdf:about="">
<dc:format>image/svg+xml</dc:format>
<dc:type rdf:resource="http://purl.org/dc/dcmitype/StillImage"/>
</cc:Work>
</rdf:RDF>
</metadata>
<g transform="translate(122.35 94.838)">
<path d="m-94.262-94.837c-0.43701 0.08989-0.88838 0.0306-1.3328 0.04754h-25.192c-0.69677-0.11994-1.4052 0.45852-1.4288 1.1648-0.0226 7.4336-0.0298 14.868-0.0466 22.301-0.016 8.3153-0.0321 16.631-0.0481 24.946-0.0645 0.30526 0.0293 0.61242-1e-3 0.92098-0.0111 6.86-0.0307 13.72-0.0366 20.58 4e-3 0.61022 0.3412 1.2586 0.95241 1.4479 0.48441 0.15562 1.002 0.06251 1.5014 0.08804h25.453c0.30759 0.09555 0.61742-0.0377 0.93007 0 8.8918-0.0019 17.784 0.0039 26.676-0.0029 0.40398 0.01847 0.86464-0.15375 1.0016-0.56771 0.15238-0.48948 0.06514-1.0126 0.08789-1.5168-0.01298-6.82-0.02597-13.64-0.03895-20.46 0.05822-0.30978-0.03015-0.62118-0.0019-0.934-0.03143-15.584-0.05732-31.169-0.09221-46.753-0.0307-0.56799-0.45539-1.0982-1.0267-1.1932-0.32325-0.05845-0.65722-0.0029-0.98537-0.0217h-25.704c-0.21682-0.0674-0.44375-0.04366-0.66663-0.04754zm-1.1658 2.5358v44.93h-24.363c0.0288-14.977 0.0575-29.953 0.0863-44.93zm27.036 0c0.02876 14.977 0.05753 29.953 0.0863 44.93h-24.362c-3e-6 -14.977 0-29.953 0-44.93zm-32.381 20.142c-0.69838 0-1.2663 0.70503-1.2139 1.3992 3e-3 3.1428-6e-3 6.2859 5e-3 9.4286 0.039 0.7252 0.75916 1.3121 1.4769 1.2066 0.67681-0.0665 1.2147-0.71785 1.1643-1.394-0.0031-3.1428 0.0062-6.2859-0.0047-9.4286-0.04596-0.7141-0.71509-1.2816-1.4273-1.2118zm13.233 0c-0.69891 0-1.269 0.70434-1.2159 1.3992 0.0031 3.1428-0.0062 6.2859 0.0047 9.4286 0.03895 0.72611 0.76041 1.3131 1.479 1.2066 0.67682-0.0665 1.2147-0.71785 1.1643-1.394-0.0031-3.1428 0.0062-6.2859-0.0046-9.4286-0.04596-0.7141-0.71167-1.2118-1.4273-1.2118zm-7.8874 27.275v8.0998h-24.383c5e-3 -2.6999 0.0103-5.3998 0.0155-8.0998zm27.127 0c0.0052 2.6999 0.01034 5.3998 0.0155 8.0998h-24.383c0-2.6999-3e-6 -5.3998 0-8.0998h24.368zm-41.382 2.7668c-0.72625-0.0044-1.3567 0.67968-1.2923 1.4032 0.0246 0.69729 0.67728 1.2833 1.3721 1.2422 1.4554-5e-3 2.9115 0.01004 4.3664-0.0075 0.7237-0.05361 1.2953-0.78546 1.1743-1.5002-0.0786-0.67623-0.74046-1.1969-1.4145-1.1381-1.402 3.44e-4 -2.804-6.88e-4 -4.206 5.16e-4zm26.932 0c-0.72688-0.0052-1.3595 0.67844-1.2944 1.4032 0.02464 0.69785 0.67862 1.2844 1.3742 1.2422 1.4554-5e-3 2.9115 0.01004 4.3664-0.0075 0.7237-0.05361 1.2953-0.78546 1.1743-1.5002-0.07859-0.67623-0.74047-1.1969-1.4145-1.1381-1.402 3.44e-4 -2.804-6.88e-4 -4.206 5.16e-4zm-12.676 7.9794v8.1292h-24.404c5e-3 -2.7097 0.0107-5.4195 0.016-8.1292h24.388zm27.148 0c0.0052 2.7097 0.01033 5.4195 0.0155 8.1292h-24.404c-3e-6 -2.7097 0-5.4195 0-8.1292h24.388zm-41.403 2.7275c-0.72625-0.0044-1.3567 0.67969-1.2923 1.4032 0.0244 0.69735 0.67715 1.2837 1.3721 1.2427 1.4554-5e-3 2.9115 0.01004 4.3664-0.0075 0.72372-0.05391 1.2955-0.78578 1.1743-1.5007-0.0786-0.67623-0.74046-1.1969-1.4145-1.1381-1.402 3.44e-4 -2.804-6.9e-4 -4.206 5.16e-4zm26.932 0c-0.72688-0.0052-1.3595 0.67844-1.2944 1.4032 0.02386 0.69804 0.67854 1.2851 1.3742 1.2427 1.4554-5e-3 2.9115 0.01004 4.3664-0.0075 0.72372-0.05391 1.2955-0.78578 1.1743-1.5007-0.07859-0.67623-0.74047-1.1969-1.4145-1.1381-1.402 3.44e-4 -2.804-6.9e-4 -4.206 5.16e-4z" color="#000000" stroke-linecap="round" stroke-linejoin="round" style="-inkscape-stroke:none"/>
</g>
</svg>
