<?xml version="1.0" encoding="UTF-8"?>
<svg xmlns="http://www.w3.org/2000/svg" xmlns:xlink="http://www.w3.org/1999/xlink" width="600pt" height="693.000001pt" version="1.2" viewBox="0 0 600 693.000001">
    <defs>
        <clipPath id="clip1">
            <path d="M 94.664062 126.191406 L 505.289062 126.191406 L 505.289062 520.777344 L 94.664062 520.777344 Z M 94.664062 126.191406 "/>
        </clipPath>
    </defs>
    <g id="surface1">
        <path d="M 300 53.171875 C 295.207031 53.171875 290.417969 53.289062 285.632812 53.527344 C 280.84375 53.761719 276.066406 54.113281 271.296875 54.582031 C 266.527344 55.054688 261.773438 55.640625 257.035156 56.34375 C 252.292969 57.046875 247.574219 57.863281 242.871094 58.800781 C 238.171875 59.734375 233.496094 60.785156 228.847656 61.949219 C 224.199219 63.113281 219.582031 64.390625 214.996094 65.78125 C 210.410156 67.171875 205.863281 68.675781 201.347656 70.289062 C 196.835938 71.90625 192.367188 73.628906 187.941406 75.464844 C 183.511719 77.296875 179.132812 79.238281 174.800781 81.289062 C 170.46875 83.335938 166.1875 85.492188 161.960938 87.75 C 157.734375 90.007812 153.566406 92.371094 149.457031 94.835938 C 145.347656 97.296875 141.296875 99.859375 137.3125 102.523438 C 133.328125 105.1875 129.410156 107.945312 125.5625 110.800781 C 121.714844 113.65625 117.9375 116.601562 114.230469 119.640625 C 110.527344 122.683594 106.898438 125.8125 103.347656 129.03125 C 99.796875 132.25 96.328125 135.550781 92.941406 138.941406 C 89.550781 142.328125 86.246094 145.800781 83.027344 149.351562 C 79.8125 152.902344 76.679688 156.527344 73.640625 160.234375 C 70.601562 163.9375 67.652344 167.714844 64.796875 171.5625 C 61.945312 175.414062 59.183594 179.328125 56.523438 183.316406 C 53.859375 187.300781 51.296875 191.347656 48.832031 195.457031 C 46.371094 199.566406 44.007812 203.738281 41.75 207.960938 C 39.488281 212.1875 37.335938 216.46875 35.289062 220.800781 C 33.238281 225.132812 31.296875 229.511719 29.460938 233.941406 C 27.628906 238.367188 25.90625 242.835938 24.289062 247.351562 C 22.675781 251.863281 21.171875 256.410156 19.78125 260.996094 C 18.390625 265.582031 17.113281 270.199219 15.949219 274.847656 C 14.785156 279.5 13.734375 284.171875 12.800781 288.871094 C 11.863281 293.574219 11.046875 298.292969 10.34375 303.035156 C 9.640625 307.773438 9.050781 312.53125 8.582031 317.296875 C 8.113281 322.066406 7.761719 326.847656 7.523438 331.632812 C 7.289062 336.417969 7.171875 341.207031 7.171875 346 C 7.171875 350.792969 7.289062 355.582031 7.523438 360.367188 C 7.761719 365.15625 8.113281 369.933594 8.582031 374.703125 C 9.050781 379.472656 9.640625 384.226562 10.34375 388.96875 C 11.046875 393.707031 11.863281 398.429688 12.800781 403.128906 C 13.734375 407.828125 14.785156 412.503906 15.949219 417.152344 C 17.113281 421.800781 18.390625 426.417969 19.78125 431.003906 C 21.171875 435.589844 22.675781 440.140625 24.289062 444.652344 C 25.90625 449.164062 27.628906 453.632812 29.460938 458.0625 C 31.296875 462.488281 33.238281 466.867188 35.289062 471.199219 C 37.335938 475.53125 39.488281 479.8125 41.75 484.039062 C 44.007812 488.265625 46.371094 492.433594 48.832031 496.542969 C 51.296875 500.65625 53.859375 504.703125 56.523438 508.6875 C 59.183594 512.671875 61.945312 516.589844 64.796875 520.4375 C 67.652344 524.285156 70.601562 528.0625 73.640625 531.769531 C 76.679688 535.472656 79.8125 539.101562 83.027344 542.652344 C 86.246094 546.203125 89.550781 549.671875 92.941406 553.0625 C 96.328125 556.449219 99.796875 559.753906 103.347656 562.972656 C 106.898438 566.191406 110.527344 569.320312 114.230469 572.359375 C 117.9375 575.398438 121.714844 578.347656 125.5625 581.203125 C 129.410156 584.054688 133.328125 586.816406 137.3125 589.476562 C 141.296875 592.140625 145.347656 594.703125 149.457031 597.167969 C 153.566406 599.628906 157.734375 601.992188 161.960938 604.25 C 166.1875 606.511719 170.46875 608.664062 174.800781 610.714844 C 179.132812 612.761719 183.511719 614.703125 187.941406 616.539062 C 192.367188 618.371094 196.835938 620.097656 201.347656 621.710938 C 205.863281 623.324219 210.410156 624.828125 214.996094 626.21875 C 219.582031 627.609375 224.199219 628.886719 228.847656 630.050781 C 233.496094 631.21875 238.171875 632.265625 242.871094 633.203125 C 247.574219 634.136719 252.292969 634.957031 257.035156 635.660156 C 261.773438 636.363281 266.527344 636.949219 271.296875 637.417969 C 276.066406 637.886719 280.84375 638.242188 285.632812 638.476562 C 290.417969 638.710938 295.207031 638.828125 300 638.828125 C 304.792969 638.828125 309.582031 638.710938 314.367188 638.476562 C 319.15625 638.242188 323.933594 637.886719 328.703125 637.417969 C 333.472656 636.949219 338.226562 636.363281 342.964844 635.660156 C 347.707031 634.957031 352.425781 634.136719 357.128906 633.203125 C 361.828125 632.265625 366.503906 631.21875 371.152344 630.050781 C 375.800781 628.886719 380.417969 627.609375 385.003906 626.21875 C 389.589844 624.828125 394.136719 623.324219 398.652344 621.710938 C 403.164062 620.097656 407.632812 618.371094 412.058594 616.539062 C 416.488281 614.703125 420.867188 612.761719 425.199219 610.714844 C 429.53125 608.664062 433.8125 606.511719 438.039062 604.25 C 442.265625 601.992188 446.433594 599.628906 450.542969 597.167969 C 454.652344 594.703125 458.703125 592.140625 462.6875 589.476562 C 466.671875 586.816406 470.585938 584.054688 474.4375 581.203125 C 478.285156 578.347656 482.0625 575.398438 485.769531 572.359375 C 489.472656 569.320312 493.101562 566.191406 496.652344 562.972656 C 500.203125 559.753906 503.671875 556.449219 507.058594 553.0625 C 510.449219 549.671875 513.753906 546.203125 516.96875 542.652344 C 520.1875 539.101562 523.316406 535.472656 526.359375 531.769531 C 529.398438 528.0625 532.347656 524.285156 535.199219 520.4375 C 538.054688 516.589844 540.816406 512.671875 543.476562 508.6875 C 546.140625 504.703125 548.703125 500.65625 551.167969 496.542969 C 553.628906 492.433594 555.992188 488.265625 558.25 484.039062 C 560.507812 479.8125 562.664062 475.53125 564.710938 471.199219 C 566.761719 466.867188 568.703125 462.488281 570.539062 458.0625 C 572.371094 453.632812 574.09375 449.164062 575.710938 444.652344 C 577.324219 440.140625 578.828125 435.589844 580.21875 431.003906 C 581.609375 426.417969 582.886719 421.800781 584.050781 417.152344 C 585.214844 412.503906 586.265625 407.828125 587.199219 403.128906 C 588.136719 398.429688 588.953125 393.707031 589.65625 388.96875 C 590.359375 384.226562 590.949219 379.472656 591.417969 374.703125 C 591.886719 369.933594 592.238281 365.15625 592.476562 360.367188 C 592.710938 355.582031 592.828125 350.792969 592.828125 346 C 592.828125 341.207031 592.710938 336.417969 592.476562 331.632812 C 592.238281 326.847656 591.886719 322.066406 591.417969 317.296875 C 590.949219 312.53125 590.359375 307.773438 589.65625 303.035156 C 588.953125 298.292969 588.136719 293.574219 587.199219 288.871094 C 586.265625 284.171875 585.214844 279.5 584.050781 274.847656 C 582.886719 270.199219 581.609375 265.582031 580.21875 260.996094 C 578.828125 256.410156 577.324219 251.863281 575.710938 247.351562 C 574.09375 242.835938 572.371094 238.367188 570.539062 233.941406 C 568.703125 229.511719 566.761719 225.132812 564.710938 220.800781 C 562.664062 216.46875 560.507812 212.1875 558.25 207.960938 C 555.992188 203.738281 553.628906 199.566406 551.167969 195.457031 C 548.703125 191.347656 546.140625 187.300781 543.476562 183.316406 C 540.816406 179.328125 538.054688 175.414062 535.199219 171.5625 C 532.347656 167.714844 529.398438 163.9375 526.359375 160.234375 C 523.316406 156.527344 520.1875 152.902344 516.96875 149.351562 C 513.753906 145.800781 510.449219 142.328125 507.058594 138.941406 C 503.671875 135.550781 500.203125 132.25 496.652344 129.03125 C 493.101562 125.8125 489.472656 122.683594 485.769531 119.640625 C 482.0625 116.601562 478.285156 113.65625 474.4375 110.800781 C 470.585938 107.945312 466.671875 105.1875 462.6875 102.523438 C 458.703125 99.859375 454.652344 97.296875 450.542969 94.835938 C 446.433594 92.371094 442.265625 90.007812 438.039062 87.75 C 433.8125 85.492188 429.53125 83.335938 425.199219 81.289062 C 420.867188 79.238281 416.488281 77.296875 412.058594 75.464844 C 407.632812 73.628906 403.164062 71.90625 398.652344 70.289062 C 394.136719 68.675781 389.589844 67.171875 385.003906 65.78125 C 380.417969 64.390625 375.800781 63.113281 371.152344 61.949219 C 366.503906 60.785156 361.828125 59.734375 357.128906 58.800781 C 352.425781 57.863281 347.707031 57.046875 342.964844 56.34375 C 338.226562 55.640625 333.472656 55.054688 328.703125 54.582031 C 323.933594 54.113281 319.15625 53.761719 314.367188 53.527344 C 309.582031 53.289062 304.792969 53.171875 300 53.171875 Z M 300 53.171875 " style="stroke:none;fill-rule:nonzero;fill:rgb(90.589905%,86.669922%,79.60968%);fill-opacity:1"/>
        <g clip-path="url(#clip1)" clip-rule="nonzero">
            <path d="M 504.375 442.097656 L 466.210938 188.503906 C 465.601562 184.484375 462.15625 181.511719 458.089844 181.511719 L 362.902344 181.511719 C 358.863281 150.351562 332.191406 126.191406 299.976562 126.191406 C 267.761719 126.191406 241.089844 150.351562 237.050781 181.511719 L 141.863281 181.511719 C 137.796875 181.511719 134.351562 184.484375 133.742188 188.503906 L 95.578125 442.097656 C 92.417969 463.132812 98.246094 484.097656 111.578125 499.601562 C 123.324219 513.257812 139.234375 520.777344 156.386719 520.777344 L 443.566406 520.777344 C 460.71875 520.777344 476.628906 513.257812 488.375 499.59375 C 501.707031 484.085938 507.535156 463.132812 504.375 442.097656 Z M 299.976562 142.628906 C 323.117188 142.628906 342.402344 159.449219 346.300781 181.511719 L 253.652344 181.511719 C 257.550781 159.449219 276.835938 142.628906 299.976562 142.628906 Z M 475.929688 488.878906 C 467.351562 498.855469 455.859375 504.34375 443.566406 504.34375 L 156.386719 504.34375 C 144.09375 504.34375 132.601562 498.855469 124.023438 488.878906 C 113.8125 477.003906 109.359375 460.847656 111.816406 444.546875 L 148.929688 197.945312 L 451.03125 197.945312 L 488.144531 444.546875 C 490.59375 460.839844 486.140625 477.003906 475.929688 488.878906 Z M 299.976562 281.566406 C 291.652344 281.566406 284.230469 285.953125 279.609375 293.59375 L 265.429688 317.0625 C 263.082031 320.949219 258.035156 322.191406 254.160156 319.839844 C 250.277344 317.492188 249.035156 312.4375 251.386719 308.558594 L 265.5625 285.089844 C 273.117188 272.589844 285.980469 265.121094 299.984375 265.121094 C 313.988281 265.121094 326.855469 272.582031 334.40625 285.082031 L 348.929688 309.117188 L 350.21875 304.246094 C 351.375 299.855469 355.875 297.242188 360.25 298.402344 C 364.632812 299.5625 367.253906 304.054688 366.085938 308.445312 L 359.347656 333.984375 C 358.378906 337.664062 355.054688 340.105469 351.417969 340.105469 C 350.71875 340.105469 350.019531 340.015625 349.316406 339.832031 L 323.785156 333.09375 C 319.398438 331.9375 316.78125 327.441406 317.9375 323.054688 C 319.097656 318.664062 323.59375 316.042969 327.972656 317.203125 L 335.867188 319.289062 L 320.34375 293.59375 C 315.722656 285.953125 308.300781 281.566406 299.976562 281.566406 Z M 390.214844 377.476562 C 398.644531 391.4375 398.902344 408.964844 390.871094 423.222656 C 383.433594 436.417969 370.324219 444.308594 355.800781 444.308594 L 319.203125 444.308594 L 323.914062 448.84375 C 327.183594 451.992188 327.28125 457.191406 324.136719 460.464844 C 322.527344 462.140625 320.378906 462.984375 318.21875 462.984375 C 316.164062 462.984375 314.121094 462.222656 312.527344 460.691406 L 293.515625 442.375 C 290.25 439.230469 290.148438 434.027344 293.292969 430.757812 L 311.59375 411.726562 C 314.738281 408.457031 319.933594 408.355469 323.199219 411.503906 C 326.46875 414.652344 326.566406 419.851562 323.421875 423.125 L 318.851562 427.882812 L 355.792969 427.882812 C 364.4375 427.882812 372.007812 423.246094 376.5625 415.160156 C 381.683594 406.066406 381.53125 394.890625 376.160156 385.988281 L 364.59375 366.835938 C 362.246094 362.949219 363.492188 357.902344 367.367188 355.554688 C 371.25 353.203125 376.292969 354.453125 378.640625 358.332031 Z M 272.851562 436.089844 C 272.851562 440.625 269.175781 444.308594 264.644531 444.308594 L 244.160156 444.308594 C 229.636719 444.308594 216.527344 436.425781 209.089844 423.222656 C 201.0625 408.964844 201.308594 391.4375 209.746094 377.476562 L 223.359375 354.953125 L 218.597656 356.113281 C 214.1875 357.1875 209.746094 354.484375 208.679688 350.070312 C 207.605469 345.660156 210.304688 341.214844 214.714844 340.144531 L 240.359375 333.890625 C 242.476562 333.375 244.710938 333.71875 246.566406 334.855469 C 248.429688 335.988281 249.757812 337.8125 250.277344 339.933594 L 256.515625 365.601562 C 257.589844 370.015625 254.882812 374.460938 250.480469 375.53125 C 249.832031 375.683594 249.175781 375.769531 248.535156 375.769531 C 244.832031 375.769531 241.476562 373.246094 240.566406 369.488281 L 238.609375 361.46875 L 223.800781 385.980469 C 218.433594 394.871094 218.277344 406.046875 223.398438 415.152344 C 227.953125 423.238281 235.523438 427.875 244.167969 427.875 L 264.652344 427.875 C 269.175781 427.875 272.851562 431.554688 272.851562 436.089844 Z M 272.851562 436.089844 " style="stroke:none;fill-rule:nonzero;fill:rgb(25.099182%,25.099182%,25.099182%);fill-opacity:1"/>
        </g>
    </g>
</svg>
